{
.appVersion = "3087";
.formatVersion = 3;
axes = (
{
name = Weight;
tag = wght;
}
);
customParameters = (
{
name = "Variable Font Origin";
value = "19FA402B-9607-46D9-AAD6-815AECBA5B6B";
},
{
name = "Use Typo Metrics";
value = 1;
}
);
date = "2022-05-27 18:49:23 +0000";
familyName = "26F Galaxy Sans";
featurePrefixes = (
{
automatic = 1;
code = "languagesystem DFLT dflt;

languagesystem latn dflt;
languagesystem latn ROM;
languagesystem latn MOL;
languagesystem latn NLD;
";
name = Languagesystems;
}
);
features = (
{
automatic = 1;
code = "feature locl;
feature subs;
feature sinf;
feature sups;
feature numr;
feature dnom;
feature frac;
feature ordn;
";
tag = aalt;
},
{
code = "lookup locl_latn_0 {
	script latn;
	language ROM;
	sub Scedilla by Scommaaccent;
	sub Tcedilla by Tcommaaccent;
	language MOL;
	sub Scedilla by Scommaaccent;
	sub Tcedilla by Tcommaaccent;
} locl_latn_0;

lookup locl_latn_1 {
	script latn;
	language CAT;
	sub  L' periodcentered' L by Ldot;
} locl_latn_1;

lookup locl_latn_2 {
	script latn;
	language NLD;
	sub Iacute J' by Jacute;
} locl_latn_2;

lookup locl_latn_3 {
	script latn;
	language AZE;
	sub i by Idotaccent;
	language CRT;
	sub i by Idotaccent;
	language KAZ;
	sub i by Idotaccent;
	language TAT;
	sub i by Idotaccent;
	language TRK;
	sub i by Idotaccent;
} locl_latn_3;
";
tag = locl;
},
{
automatic = 1;
code = "sub zero by zeroinferior;
sub one by oneinferior;
sub two by twoinferior;
sub three by threeinferior;
sub four by fourinferior;
sub five by fiveinferior;
sub six by sixinferior;
sub seven by seveninferior;
sub eight by eightinferior;
sub nine by nineinferior;
";
tag = subs;
},
{
automatic = 1;
code = "sub zero by zeroinferior;
sub one by oneinferior;
sub two by twoinferior;
sub three by threeinferior;
sub four by fourinferior;
sub five by fiveinferior;
sub six by sixinferior;
sub seven by seveninferior;
sub eight by eightinferior;
sub nine by nineinferior;
";
tag = sinf;
},
{
automatic = 1;
code = "sub zero by zerosuperior;

glyphs = (
{
color = 4;
glyphname = A;
kernLeft = A;
kernRight = A;
lastChange = "2022-06-03 00:46:04 +0000";
layers = (
{
anchors = (
{
name = bottom;
pos = (676,0);
},
{
name = ogonek;
pos = (1267,0);
},
{
name = top;
pos = (676,1400);
}
);
layerId = m01;
shapes = (
{
closed = 1;
nodes = (
(389,681,l),
(391,684,o),
(391,687,o),
(391,690,cs),
(391,704,o),
(380,715,o),
(366,715,cs),
(356,715,o),
(347,709,o),
(343,701,cs),
(62,34,l),
(60,31,o),
(60,28,o),
(60,25,cs),
(60,11,o),
(71,0,o),
(85,0,cs),
(95,0,o),
(104,6,o),
(108,14,cs)
);
},
{
closed = 1;
nodes = (
(711,1386,ls),
(707,1394,o),
(698,1400,o),
(688,1400,cs),
(674,1400,o),
(663,1389,o),
(663,1375,cs),
(663,1372,o),
(664,1368,o),
(670,1353,cs),
(1244,14,ls),
(1248,6,o),
(1257,0,o),
(1267,0,cs),
(1281,0,o),
(1292,11,o),
(1292,25,cs),
(1292,28,o),
(1291,32,o),
(1285,47,cs)
);
}
);
width = 1352;
},
{
anchors = (
{
name = bottom;
pos = (706,0);
},
{
name = ogonek;
pos = (1283,-1);
},
{
name = top;
pos = (706,1400);
}
);
layerId = "19FA402B-9607-46D9-AAD6-815AECBA5B6B";
name = Regular;
shapes = (
{
closed = 1;
nodes = (
(439,637,ls),
(442,644,o),
(444,652,o),
(444,661,cs),
(444,694,o),
(417,721,o),
(384,721,cs),
(360,721,o),
(339,707,o),
(329,686,cs),
(75,84,ls),
(72,77,o),
(70,69,o),
(70,60,cs),
(70,27,o),
(97,0,o),
(130,0,cs),
(154,0,o),
(175,14,o),
(185,35,cs)
);
},
{
closed = 1;
nodes = (
(788,1365,ls),
(778,1386,o),
(758,1400,o),
(733,1400,cs),
(700,1400,o),
(673,1373,o),
(673,1340,cs),
(673,1331,o),
(675,1323,o),
(679,1316,c),
(1227,35,ls),
(1237,14,o),
(1257,0,o),
(1282,0,cs),
(1315,0,o),
(1342,27,o),
(1342,60,cs),
(1342,69,o),
(1340,77,o),
(1336,84,c)
);
}
);
width = 1412;
},
{
anchors = (
{
name = bottom;
pos = (783,0);
},
{
name = ogonek;
pos = (1304,3);
},
{
name = top;
pos = (783,1400);
}
);
layerId = "FF87E3F2-B049-41CB-BF2F-09DB15105515";
name = Black;
shapes = (
{
closed = 1;
nodes = (
(589,522,ls),
(599,542,o),
(605,565,o),
(605,589,cs),
(605,672,o),
(538,739,o),
(455,739,cs),
(396,739,o),
(345,705,o),
(320,655,cs),
(116,217,ls),
(106,197,o),
(100,174,o),
(100,150,cs),
(100,67,o),
(167,0,o),
(250,0,cs),
(309,0,o),
(360,34,o),
(385,84,cs)
);
},
{
closed = 1;
nodes = (
(939,1316,l),
(914,1365,o),
(863,1400,o),
(804,1400,cs),
(721,1400,o),
(654,1332,o),
(654,1250,cs),
(654,1226,o),
(660,1203,o),
(669,1183,cs),
(1181,84,l),
(1206,35,o),
(1257,0,o),
(1316,0,cs),
(1399,0,o),
(1466,68,o),
(1466,150,cs),
(1466,174,o),
(1460,197,o),
(1451,217,cs)
);
}
);
width = 1566;
}
);
unicode = (65,97);
},
{
color = 5;
glyphname = AE;
kernLeft = A;
kernRight = E;
lastChange = "2022-06-03 00:46:04 +0000";
layers = (
{
layerId = m01;
shapes = (
{
closed = 1;
nodes = (
(707,1364,ls),
(708,1367,o),
(709,1371,o),
(709,1374,cs),
(709,1388,o),
(698,1399,o),
(684,1399,cs),
(674,1399,o),
(665,1394,o),
(661,1385,cs),
(62,35,ls),
(61,32,o),
(60,28,o),
(60,25,cs),
(60,11,o),
(71,0,o),
(85,0,cs),
(95,0,o),
(104,5,o),
(108,14,cs)
);
},
{
closed = 1;
nodes = (
(870,50,ls),
(856,50,o),
(845,39,o),
(845,25,cs),
(845,11,o),
(856,0,o),
(870,0,cs),
(1543,0,ls),
(1556,0,o),
(1568,11,o),
(1568,25,cs),
(1568,39,o),
(1556,50,o),
(1543,50,cs)
);
},
{
closed = 1;
nodes = (
(895,736,ls),
(895,749,o),
(884,761,o),
(870,761,cs),
(856,761,o),
(845,749,o),
(845,736,cs),
(845,28,l),
(895,28,l)
);
},
{
closed = 1;
nodes = (
(1543,675,ls),
(1556,675,o),
(1568,686,o),
(1568,700,cs),
(1568,714,o),
(1556,725,o),
(1543,725,cs),
(1166,725,ls),
(1152,725,o),
(1141,714,o),
(1141,700,cs),
(1141,686,o),
(1152,675,o),
(1166,675,cs)
);
},
{
closed = 1;
nodes = (
(1543,1350,ls),
(1556,1350,o),
(1568,1361,o),
(1568,1375,cs),
(1568,1389,o),
(1556,1400,o),
(1543,1400,cs),
(684,1400,ls),
(670,1400,o),
(659,1389,o),
(659,1375,cs),
(659,1361,o),
(670,1350,o),
(684,1350,cs)
);
}
);
width = 1638;
},
{
layerId = "19FA402B-9607-46D9-AAD6-815AECBA5B6B";
shapes = (
{
closed = 1;
nodes = (
(749,1311,ls),
(753,1319,o),
(755,1328,o),
(755,1337,cs),
(755,1370,o),
(728,1397,o),
(695,1397,cs),
(671,1397,o),
(650,1383,o),
(641,1362,cs),
(76,89,ls),
(72,81,o),
(70,72,o),
(70,63,cs),
(70,30,o),
(97,3,o),
(130,3,cs),
(154,3,o),
(175,17,o),
(184,38,cs)
);
},
{
closed = 1;
nodes = (
(897,120,ls),
(864,120,o),
(837,93,o),
(837,60,cs),
(837,27,o),
(864,0,o),
(897,0,cs),
(1540,0,ls),
(1573,0,o),
(1600,27,o),
(1600,60,cs),
(1600,93,o),
(1573,120,o),
(1540,120,cs)
);
},
{
closed = 1;
nodes = (
(957,706,ls),
(957,739,o),
(930,766,o),
(897,766,cs),
(864,766,o),
(837,739,o),
(837,706,cs),
(837,60,l),
(957,60,l)
);
},
{
closed = 1;
nodes = (
(1539,640,ls),
(1572,640,o),
(1599,667,o),
(1599,700,cs),
(1599,733,o),
(1572,760,o),
(1539,760,cs),
(1224,760,ls),
(1191,760,o),
(1164,733,o),
(1164,700,cs),
(1164,667,o),
(1191,640,o),
(1224,640,cs)
);
},
{
closed = 1;
nodes = (
(1540,1280,ls),
(1573,1280,o),
(1600,1307,o),
(1600,1340,cs),
(1600,1373,o),
(1573,1400,o),
(1540,1400,cs),
(697,1400,ls),
(664,1400,o),
(637,1373,o),
(637,1340,cs),
(637,1307,o),
(664,1280,o),
(697,1280,cs)
);
}
);
width = 1680;
},
{
layerId = "FF87E3F2-B049-41CB-BF2F-09DB15105515";
shapes = (
{
closed = 1;
nodes = (
(817,1193,l),
(825,1210,o),
(829,1230,o),
(829,1250,cs),
(829,1333,o),
(762,1400,o),
(679,1400,cs),
(617,1400,o),
(563,1362,o),
(540,1308,cs),
(112,207,l),
(104,190,o),
(100,170,o),
(100,150,cs),
(100,67,o),
(167,0,o),
(250,0,cs),
(312,0,o),
(366,38,o),
(389,92,cs)
);
},
{
closed = 1;
nodes = (
(1018,300,ls),
(935,300,o),
(868,233,o),
(868,150,cs),
(868,67,o),
(935,0,o),
(1018,0,cs),
(1701,0,ls),
(1784,0,o),
(1851,67,o),
(1851,150,cs),
(1851,233,o),
(1784,300,o),
(1701,300,cs)
);
},
{
closed = 1;
nodes = (
(1168,705,ls),
(1168,788,o),
(1101,855,o),
(1018,855,cs),
(935,855,o),
(868,788,o),
(868,705,cs),
(868,140,l),
(1168,140,l)
);
},
{
closed = 1;
nodes = (
(1701,550,ls),
(1784,550,o),
(1851,617,o),
(1851,700,cs),
(1851,783,o),
(1784,850,o),
(1701,850,cs),
(1436,850,ls),
(1353,850,o),
(1286,783,o),
(1286,700,cs),
(1286,617,o),
(1353,550,o),
(1436,550,cs)
);
},
{
closed = 1;
nodes = (
(1701,1100,ls),
(1784,1100,o),
(1851,1167,o),
(1851,1250,cs),
(1851,1333,o),
(1784,1400,o),
(1701,1400,cs),
(678,1400,ls),
(595,1400,o),
(528,1333,o),
(528,1250,cs),
(528,1167,o),
(595,1100,o),
(678,1100,cs)
);
}
);
width = 1971;
}
);
metricLeft = A;
metricRight = E;
unicode = (198,230);
},
{
color = 4;
glyphname = B;
kernLeft = I;
kernRight = B;
lastChange = "2022-06-03 00:46:04 +0000";
layers = (
{
anchors = (
{
name = bottom;
pos = (594,0);
},
{
name = center;
pos = (594,700);
},
{
name = top;
pos = (594,1400);
}
);
layerId = m01;
shapes = (
{
closed = 1;
nodes = (
(135,978,ls),
(135,991,o),
(124,1003,o),
(110,1003,cs),
(96,1003,o),
(85,991,o),
(85,978,cs),
(85,26,ls),
(85,12,o),
(96,1,o),
(110,1,cs),
(124,1,o),
(135,12,o),
(135,26,cs)
);
},
{
closed = 1;
nodes = (
(795,675,ls),
(967,675,o),
(1107,507,o),
(1107,348,cs),
(1107,190,o),
(967,50,o),
(795,50,cs),
(558,50,ls),
(544,50,o),
(533,39,o),
(533,25,cs),
(533,11,o),
(544,0,o),
(558,0,cs),
(795,0,ls),
(995,0,o),
(1157,162,o),
(1157,348,cs),
(1157,532,o),
(997,725,o),
(795,725,cs),
(615,725,l),
(615,675,l)
);
},
{
closed = 1;
nodes = (
(695,675,ls),
(895,675,o),
(1057,837,o),
(1057,1038,cs),
(1057,1239,o),
(894,1400,o),
(695,1400,cs),
(110,1400,ls),
(96,1400,o),
(85,1389,o),
(85,1375,cs),
(85,1361,o),
(96,1350,o),
(110,1350,cs),
(695,1350,ls),
(867,1350,o),
(1007,1211,o),
(1007,1038,cs),
(1007,865,o),
(867,725,o),
(695,725,cs),
(448,725,ls),
(434,725,o),
(423,714,o),
(423,700,cs),
(423,686,o),
(434,675,o),
(448,675,cs)
);
}
);
width = 1200;
},
{
anchors = (
{
name = bottom;
pos = (620,0);
},
{
name = center;
pos = (620,700);
},
{
name = top;
pos = (570,1400);
}
);
layerId = "19FA402B-9607-46D9-AAD6-815AECBA5B6B";
name = Regular;
shapes = (
{
closed = 1;
nodes = (
(220,946,ls),
(220,979,o),
(193,1006,o),
(160,1006,cs),
(127,1006,o),
(100,979,o),
(100,946,cs),
(100,60,ls),
(100,27,o),
(127,0,o),
(160,0,cs),
(193,0,o),
(220,27,o),
(220,60,cs)
);
},
{
closed = 1;
nodes = (
(810,640,ls),
(954,640,o),
(1070,524,o),
(1070,380,cs),
(1070,236,o),
(954,120,o),
(810,120,cs),
(604,120,ls),
(571,120,o),
(544,93,o),
(544,60,cs),
(544,27,o),
(571,0,o),
(604,0,cs),
(810,0,ls),
(1020,0,o),
(1190,170,o),
(1190,380,cs),
(1190,590,o),
(1020,760,o),
(810,760,cs),
(630,760,l),
(630,640,l)
);
},
{
closed = 1;
nodes = (
(710,640,ls),
(920,640,o),
(1090,810,o),
(1090,1020,cs),
(1090,1230,o),
(920,1400,o),
(710,1400,cs),
(160,1400,ls),
(127,1400,o),
(100,1373,o),
(100,1340,cs),
(100,1307,o),
(127,1280,o),
(160,1280,cs),
(710,1280,ls),
(854,1280,o),
(970,1164,o),
(970,1020,cs),
(970,876,o),
(854,760,o),
(710,760,cs),
(494,760,ls),
(461,760,o),
(434,733,o),
(434,700,cs),
(434,667,o),
(461,640,o),
(494,640,cs)
);
}
);
width = 1240;
},
{
anchors = (
{
name = bottom;
pos = (670,0);
},
{
name = center;
pos = (670,700);
},
{
name = top;
pos = (670,1400);
}
);
layerId = "FF87E3F2-B049-41CB-BF2F-09DB15105515";
shapes = (
{
closed = 1;
nodes = (
(450,785,ls),
(450,868,o),
(383,935,o),
(300,935,cs),
(217,935,o),
(150,868,o),
(150,785,cs),
(150,150,ls),
(150,67,o),
(217,0,o),
(300,0,cs),
(383,0,o),
(450,67,o),
(450,150,cs)
);
},
{
closed = 1;
nodes = (
(840,551,ls),
(909,551,o),
(965,495,o),
(965,426,cs),
(965,357,o),
(909,300,o),
(840,300,cs),
(764,300,ls),
(681,300,o),
(614,233,o),
(614,150,cs),
(614,67,o),
(681,0,o),
(764,0,cs),
(840,0,ls),
(1075,0,o),
(1265,191,o),
(1265,426,cs),
(1265,661,o),
(1075,851,o),
(840,851,cs),
(709,851,l),
(709,551,l)
);
},
{
closed = 1;
nodes = (
(760,551,ls),
(994,551,o),
(1184,741,o),
(1184,976,cs),
(1184,1210,o),
(994,1400,o),
(760,1400,cs),
(300,1400,ls),
(217,1400,o),
(150,1333,o),
(150,1250,cs),
(150,1167,o),
(217,1100,o),
(300,1100,cs),
(760,1100,ls),
(828,1100,o),
(884,1044,o),
(884,976,cs),
(884,907,o),
(828,851,o),
(760,851,cs),
(725,851,ls),
(642,851,o),
(575,784,o),
(575,701,cs),
(575,618,o),
(642,551,o),
(725,551,cs)
);
}
);
width = 1340;
}
);
metricLeft = H;
metricRight = "=H/2";
unicode = (66,98);
},
{
color = 4;
glyphname = C;
kernLeft = O;
kernRight = C;
lastChange = "2022-06-01 06:48:07 +0000";
layers = (
{
anchors = (
{
name = bottom;
pos = (594,0);
},
{
name = top;
pos = (694,1400);
}
);
layerId = m01;
shapes = (
{
closed = 1;
nodes = (
(1118,0,ls),
(1132,0,o),
(1143,11,o),
(1143,25,cs),
(1143,39,o),
(1132,50,o),
(1118,50,cs),
(764,50,ls),
(405,50,o),
(114,341,o),
(114,700,cs),
(114,1052,o),
(393,1338,o),
(742,1350,cs),
(756,1350,o),
(767,1361,o),
(767,1375,cs),
(767,1389,o),
(754,1400,o),
(741,1400,cs),
(365,1387,o),
(64,1079,o),
(64,700,cs),
(64,313,o),
(377,0,o),
(764,0,cs)
);
},
{
closed = 1;
nodes = (
(1133,1350,o),
(1144,1361,o),
(1144,1375,cs),
(1144,1389,o),
(1133,1400,o),
(1119,1400,cs),
(1105,1400,o),
(1094,1389,o),
(1094,1375,cs),
(1094,1361,o),
(1105,1350,o),
(1119,1350,cs)
);
}
);
width = 1188;
},
{
anchors = (
{
name = bottom;
pos = (631,0);
},
{
name = top;
pos = (691,1400);
}
);
layerId = "19FA402B-9607-46D9-AAD6-815AECBA5B6B";
name = Regular;
shapes = (
{
closed = 1;
nodes = (
(1134,0,ls),
(1167,0,o),
(1194,27,o),
(1194,60,cs),
(1194,93,o),
(1167,120,o),
(1134,120,cs),
(780,120,ls),
(460,120,o),
(200,380,o),
(200,700,cs),
(200,1004,o),
(434,1253,o),
(731,1278,cs),
(762,1281,o),
(786,1306,o),
(786,1338,cs),
(786,1374,o),
(755,1400,o),
(721,1398,cs),
(362,1368,o),
(80,1066,o),
(80,700,cs),
(80,314,o),
(394,0,o),
(780,0,cs)
);
},
{
closed = 1;
nodes = (
(1114,1280,o),
(1141,1307,o),
(1141,1340,cs),
(1141,1373,o),
(1114,1400,o),
(1081,1400,cs),
(1048,1400,o),
(1021,1373,o),
(1021,1340,cs),
(1021,1307,o),
(1048,1280,o),
(1081,1280,cs)
);
}
);
width = 1244;
},
{
anchors = (
{
name = bottom;
pos = (651,0);
},
{
name = top;
pos = (751,1400);
}
);
layerId = "FF87E3F2-B049-41CB-BF2F-09DB15105515";
shapes = (
{
closed = 1;
nodes = (
(1076,0,ls),
(1159,0,o),
(1226,67,o),
(1226,150,cs),
(1226,233,o),
(1159,300,o),
(1076,300,cs),
(827,300,ls),
(602,300,o),
(420,483,o),
(420,708,cs),
(420,899,o),
(552,1060,o),
(729,1104,cs),
(795,1120,o),
(843,1179,o),
(843,1250,cs),
(843,1347,o),
(751,1420,o),
(657,1396,cs),
(349,1319,o),
(120,1040,o),
(120,708,cs),
(120,317,o),
(436,0,o),
(827,0,cs)
);
},
{
closed = 1;
nodes = (
(1159,1100,o),
(1226,1167,o),
(1226,1250,cs),
(1226,1333,o),
(1159,1400,o),
(1076,1400,cs),
(993,1400,o),
(926,1333,o),
(926,1250,cs),
(926,1167,o),
(993,1100,o),
(1076,1100,cs)
);
}
);
width = 1301;
}
);
metricLeft = O;
unicode = (67,99);
},
{
color = 4;
glyphname = D;
kernLeft = I;
kernRight = O;
lastChange = "2022-06-03 00:46:04 +0000";
layers = (
{
anchors = (
{
name = bottom;
pos = (623,0);
},
{
name = center;
pos = (623,700);
},
{
name = top;
pos = (573,1400);
}
);
layerId = m01;
shapes = (
{
closed = 1;
nodes = (
(87,26,ls),
(87,12,o),
(98,1,o),
(112,1,cs),
(126,1,o),
(137,12,o),
(137,26,cs),
(137,769,ls),
(137,782,o),
(126,794,o),
(112,794,cs),
(98,794,o),
(87,782,o),
(87,769,cs)
);
},
{
closed = 1;
nodes = (
(893,0,o),
(1206,313,o),
(1206,700,cs),
(1206,1087,o),
(893,1400,o),
(506,1400,cs),
(110,1400,ls),
(96,1400,o),
(85,1389,o),
(85,1375,cs),
(85,1361,o),
(96,1350,o),
(110,1350,cs),
(506,1350,ls),
(865,1350,o),
(1156,1059,o),
(1156,700,cs),
(1156,341,o),
(865,50,o),
(506,50,cs),
(492,50,o),
(481,39,o),
(481,25,cs),
(481,11,o),
(492,0,o),
(506,0,cs)
);
}
);
width = 1270;
},
{
anchors = (
{
name = bottom;
pos = (643,0);
},
{
name = center;
pos = (643,700);
},
{
name = top;
pos = (583,1400);
}
);
layerId = "19FA402B-9607-46D9-AAD6-815AECBA5B6B";
name = Regular;
shapes = (
{
closed = 1;
nodes = (
(100,60,ls),
(100,27,o),
(127,0,o),
(160,0,cs),
(193,0,o),
(220,27,o),
(220,60,cs),
(220,737,ls),
(220,770,o),
(193,797,o),
(160,797,cs),
(127,797,o),
(100,770,o),
(100,737,cs)
);
},
{
closed = 1;
nodes = (
(911,0,o),
(1225,314,o),
(1225,700,cs),
(1225,1086,o),
(911,1400,o),
(525,1400,cs),
(160,1400,ls),
(127,1400,o),
(100,1373,o),
(100,1340,cs),
(100,1307,o),
(127,1280,o),
(160,1280,cs),
(525,1280,ls),
(845,1280,o),
(1105,1020,o),
(1105,700,cs),
(1105,380,o),
(845,120,o),
(525,120,cs),
(492,120,o),
(465,93,o),
(465,60,cs),
(465,27,o),
(492,0,o),
(525,0,cs)
);
}
);
width = 1305;
},
{
anchors = (
{
name = bottom;
pos = (783,0);
},
{
name = center;
pos = (783,700);
},
{
name = top;
pos = (753,1400);
}
);
layerId = "FF87E3F2-B049-41CB-BF2F-09DB15105515";
shapes = (
{
closed = 1;
nodes = (
(165,150,ls),
(165,67,o),
(232,0,o),
(315,0,cs),
(398,0,o),
(465,67,o),
(465,150,cs),
(465,656,ls),
(465,739,o),
(398,806,o),
(315,806,cs),
(232,806,o),
(165,739,o),
(165,656,cs)
);
},
{
closed = 1;
nodes = (
(1131,0,o),
(1445,313,o),
(1445,701,cs),
(1445,1087,o),
(1131,1400,o),
(745,1400,cs),
(300,1400,ls),
(217,1400,o),
(150,1333,o),
(150,1250,cs),
(150,1167,o),
(217,1100,o),
(300,1100,cs),
(745,1100,ls),
(965,1100,o),
(1145,921,o),
(1145,701,cs),
(1145,479,o),
(965,300,o),
(745,300,cs),
(662,300,o),
(595,233,o),
(595,150,cs),
(595,67,o),
(662,0,o),
(745,0,cs)
);
}
);
width = 1565;
}
);
metricLeft = H;
metricRight = O;
unicode = (68,100);
},
{
color = 5;
glyphname = Eth;
kernLeft = I;
kernRight = O;
lastChange = "2022-06-03 00:46:04 +0000";
layers = (
{
anchors = (
{
name = bottom;
pos = (744,0);
},
{
name = center;
pos = (744,700);
},
{
name = top;
pos = (694,1400);
}
);
layerId = m01;
shapes = (
{
closed = 1;
nodes = (
(208,26,ls),
(208,12,o),
(219,1,o),
(233,1,cs),
(247,1,o),
(258,12,o),
(258,26,cs),
(258,469,ls),
(258,482,o),
(247,494,o),
(233,494,cs),
(219,494,o),
(208,482,o),
(208,469,cs)
);
},
{
closed = 1;
nodes = (
(25,725,ls),
(11,725,o),
(-1,714,o),
(-1,700,cs),
(-1,686,o),
(11,675,o),
(25,675,cs),
(566,675,ls),
(579,675,o),
(591,686,o),
(591,700,cs),
(591,714,o),
(579,725,o),
(566,725,cs)
);
},
{
closed = 1;
nodes = (
(1014,0,o),
(1327,313,o),
(1327,700,cs),
(1327,1087,o),
(1014,1400,o),
(627,1400,cs),
(231,1400,ls),
(217,1400,o),
(206,1389,o),
(206,1375,cs),
(206,1361,o),
(217,1350,o),
(231,1350,cs),
(627,1350,ls),
(986,1350,o),
(1277,1059,o),
(1277,700,cs),
(1277,341,o),
(986,50,o),
(627,50,cs),
(613,50,o),
(602,39,o),
(602,25,cs),
(602,11,o),
(613,0,o),
(627,0,cs)
);
}
);
width = 1391;
},
{
anchors = (
{
name = bottom;
pos = (722,0);
},
{
name = center;
pos = (722,700);
},
{
name = top;
pos = (662,1400);
}
);
layerId = "19FA402B-9607-46D9-AAD6-815AECBA5B6B";
shapes = (
{
closed = 1;
nodes = (
(179,60,ls),
(179,27,o),
(206,0,o),
(239,0,cs),
(272,0,o),
(299,27,o),
(299,60,cs),
(299,437,ls),
(299,470,o),
(272,497,o),
(239,497,cs),
(206,497,o),
(179,470,o),
(179,437,cs)
);
},
{
closed = 1;
nodes = (
(60,760,ls),
(27,760,o),
(0,733,o),
(0,700,cs),
(0,667,o),
(27,640,o),
(60,640,cs),
(538,640,ls),
(571,640,o),
(598,667,o),
(598,700,cs),
(598,733,o),
(571,760,o),
(538,760,cs)
);
},
{
closed = 1;
nodes = (
(990,0,o),
(1304,314,o),
(1304,700,cs),
(1304,1086,o),
(990,1400,o),
(604,1400,cs),
(239,1400,ls),
(206,1400,o),
(179,1373,o),
(179,1340,cs),
(179,1307,o),
(206,1280,o),
(239,1280,cs),
(604,1280,ls),
(924,1280,o),
(1184,1020,o),
(1184,700,cs),
(1184,380,o),
(924,120,o),
(604,120,cs),
(571,120,o),
(544,93,o),
(544,60,cs),
(544,27,o),
(571,0,o),
(604,0,cs)
);
}
);
width = 1384;
},
{
anchors = (
{
name = bottom;
pos = (660,0);
},
{
name = center;
pos = (792,700);
},
{
name = top;
pos = (760,1400);
}
);
layerId = "FF87E3F2-B049-41CB-BF2F-09DB15105515";
shapes = (
{
closed = 1;
nodes = (
(174,150,ls),
(174,67,o),
(241,0,o),
(324,0,cs),
(407,0,o),
(474,67,o),
(474,150,cs),
(474,286,ls),
(474,369,o),
(407,436,o),
(324,436,cs),
(241,436,o),
(174,369,o),
(174,286,cs)
);
},
{
closed = 1;
nodes = (
(150,850,ls),
(67,850,o),
(0,783,o),
(0,700,cs),
(0,617,o),
(67,550,o),
(150,550,cs),
(466,550,ls),
(549,550,o),
(616,617,o),
(616,700,cs),
(616,783,o),
(549,850,o),
(466,850,cs)
);
},
{
closed = 1;
nodes = (
(1140,0,o),
(1454,313,o),
(1454,701,cs),
(1454,1087,o),
(1140,1400,o),
(754,1400,cs),
(309,1400,ls),
(226,1400,o),
(159,1333,o),
(159,1250,cs),
(159,1167,o),
(226,1100,o),
(309,1100,cs),
(754,1100,ls),
(974,1100,o),
(1154,921,o),
(1154,701,cs),
(1154,479,o),
(974,300,o),
(754,300,cs),
(671,300,o),
(604,233,o),
(604,150,cs),
(604,67,o),
(671,0,o),
(754,0,cs)
);
}
);
width = 1574;
}
);
metricRight = O;
unicode = (208,240);
},
{
color = 4;
glyphname = E;
kernLeft = I;
kernRight = E;
lastChange = "2022-06-03 00:46:04 +0000";
layers = (
{
anchors = (
{
name = bottom;
pos = (488,0);
},
{
name = ogonek;
pos = (906,1);
},
{
name = top;
pos = (488,1400);
},
{
name = topleft;
pos = (-5,1400);
}
);
layerId = m01;
shapes = (
{
closed = 1;
nodes = (
(135,736,ls),
(135,749,o),
(124,761,o),
(110,761,cs),
(96,761,o),
(85,749,o),
(85,736,cs),
(85,28,l),
(135,28,l)
);
},
{
closed = 1;
nodes = (
(110,50,ls),
(96,50,o),
(85,39,o),
(85,25,cs),
(85,11,o),
(96,0,o),
(110,0,cs),
(906,0,ls),
(919,0,o),
(931,11,o),
(931,25,cs),
(931,39,o),
(919,50,o),
(906,50,cs)
);
},
{
closed = 1;
nodes = (
(906,675,ls),
(919,675,o),
(931,686,o),
(931,700,cs),
(931,714,o),
(919,725,o),
(906,725,cs),
(406,725,ls),
(392,725,o),
(381,714,o),
(381,700,cs),
(381,686,o),
(392,675,o),
(406,675,cs)
);
},
{
closed = 1;
nodes = (
(906,1350,ls),
(919,1350,o),
(931,1361,o),
(931,1375,cs),
(931,1389,o),
(919,1400,o),
(906,1400,cs),
(110,1400,ls),
(96,1400,o),
(85,1389,o),
(85,1375,cs),
(85,1361,o),
(96,1350,o),
(110,1350,cs)
);
}
);
width = 1001;
},
{
anchors = (
{
name = bottom;
pos = (497,0);
},
{
name = ogonek;
pos = (925,0);
},
{
name = top;
pos = (517,1400);
},
{
name = topleft;
pos = (20,1400);
}
);
layerId = "19FA402B-9607-46D9-AAD6-815AECBA5B6B";
name = Regular;
shapes = (
{
closed = 1;
nodes = (
(220,706,ls),
(220,739,o),
(193,766,o),
(160,766,cs),
(127,766,o),
(100,739,o),
(100,706,cs),
(100,60,l),
(220,60,l)
);
},
{
closed = 1;
nodes = (
(160,120,ls),
(127,120,o),
(100,93,o),
(100,60,cs),
(100,27,o),
(127,0,o),
(160,0,cs),
(924,0,ls),
(957,0,o),
(984,27,o),
(984,60,cs),
(984,93,o),
(957,120,o),
(924,120,cs)
);
},
{
closed = 1;
nodes = (
(924,640,ls),
(957,640,o),
(984,667,o),
(984,700,cs),
(984,733,o),
(957,760,o),
(924,760,cs),
(487,760,ls),
(454,760,o),
(427,733,o),
(427,700,cs),
(427,667,o),
(454,640,o),
(487,640,cs)
);
},
{
closed = 1;
nodes = (
(924,1280,ls),
(957,1280,o),
(984,1307,o),
(984,1340,cs),
(984,1373,o),
(957,1400,o),
(924,1400,cs),
(160,1400,ls),
(127,1400,o),
(100,1373,o),
(100,1340,cs),
(100,1307,o),
(127,1280,o),
(160,1280,cs)
);
}
);
width = 1064;
},
{
anchors = (
{
name = bottom;
pos = (627,0);
},
{
name = ogonek;
pos = (969,0);
},
{
name = top;
pos = (627,1400);
},
{
name = topleft;
pos = (20,1400);
}
);
layerId = "FF87E3F2-B049-41CB-BF2F-09DB15105515";
shapes = (
{
closed = 1;
nodes = (
(450,705,ls),
(450,788,o),
(383,855,o),
(300,855,cs),
(217,855,o),
(150,788,o),
(150,705,cs),
(150,140,l),
(450,140,l)
);
},
{
closed = 1;
nodes = (
(300,300,ls),
(217,300,o),
(150,233,o),
(150,150,cs),
(150,67,o),
(217,0,o),
(300,0,cs),
(983,0,ls),
(1066,0,o),
(1133,67,o),
(1133,150,cs),
(1133,233,o),
(1066,300,o),
(983,300,cs)
);
},
{
closed = 1;
nodes = (
(983,550,ls),
(1066,550,o),
(1133,617,o),
(1133,700,cs),
(1133,783,o),
(1066,850,o),
(983,850,cs),
(718,850,ls),
(635,850,o),
(568,783,o),
(568,700,cs),
(568,617,o),
(635,550,o),
(718,550,cs)
);
},
{
closed = 1;
nodes = (
(983,1100,ls),
(1066,1100,o),
(1133,1167,o),
(1133,1250,cs),
(1133,1333,o),
(1066,1400,o),
(983,1400,cs),
(300,1400,ls),
(217,1400,o),
(150,1333,o),
(150,1250,cs),
(150,1167,o),
(217,1100,o),
(300,1100,cs)
);
}
);
width = 1253;
}
);
metricLeft = H;
unicode = (69,101);
},
{
color = 5;
glyphname = Schwa;
kernLeft = O;
kernRight = O;
lastChange = "2022-06-03 00:46:04 +0000";
layers = (
{
anchors = (
{
name = bottom;
pos = (764,0);
},
{
name = center;
pos = (764,700);
},
{
name = ogonek;
pos = (1375,10);
},
{
name = top;
pos = (764,1400);
},
{
name = topleft;
pos = (20,1400);
},
{
name = topright;
pos = (1508,1400);
}
);
layerId = m01;
shapes = (
{
closed = 1;
nodes = (
(1123,1350,o),
(1414,1059,o),
(1414,700,cs),
(1414,341,o),
(1123,50,o),
(764,50,cs),
(405,50,o),
(114,341,o),
(114,700,cs),
(114,714,o),
(103,725,o),
(89,725,cs),
(75,725,o),
(64,714,o),
(64,700,cs),
(64,313,o),
(377,0,o),
(764,0,cs),
(1151,0,o),
(1464,313,o),
(1464,700,cs),
(1464,1087,o),
(1151,1400,o),
(764,1400,cs),
(750,1400,o),
(739,1389,o),
(739,1375,cs),
(739,1361,o),
(750,1350,o),
(764,1350,cs)
);
},
{
closed = 1;
nodes = (
(1064,675,ls),
(1078,675,o),
(1089,686,o),
(1089,700,cs),
(1089,714,o),
(1078,725,o),
(1064,725,cs),
(90,725,ls),
(76,725,o),
(65,714,o),
(65,700,cs),
(65,686,o),
(76,675,o),
(90,675,cs)
);
}
);
width = 1528;
},
{
anchors = (
{
name = bottom;
pos = (780,0);
},
{
name = center;
pos = (780,700);
},
{
name = ogonek;
pos = (780,0);
},
{
name = top;
pos = (780,1400);
},
{
name = topleft;
pos = (40,1400);
},
{
name = topright;
pos = (1520,1400);
}
);
layerId = "19FA402B-9607-46D9-AAD6-815AECBA5B6B";
shapes = (
{
closed = 1;
nodes = (
(1101,1280,o),
(1360,1021,o),
(1360,700,cs),
(1360,379,o),
(1101,120,o),
(780,120,cs),
(459,120,o),
(200,379,o),
(200,700,cs),
(200,733,o),
(173,760,o),
(140,760,cs),
(107,760,o),
(80,733,o),
(80,700,cs),
(80,313,o),
(393,0,o),
(780,0,cs),
(1167,0,o),
(1480,313,o),
(1480,700,cs),
(1480,1087,o),
(1167,1400,o),
(780,1400,cs),
(747,1400,o),
(720,1373,o),
(720,1340,cs),
(720,1307,o),
(747,1280,o),
(780,1280,cs)
);
},
{
closed = 1;
nodes = (
(1080,640,ls),
(1113,640,o),
(1140,667,o),
(1140,700,cs),
(1140,733,o),
(1113,760,o),
(1080,760,cs),
(140,760,ls),
(107,760,o),
(80,733,o),
(80,700,cs),
(80,667,o),
(107,640,o),
(140,640,cs)
);
}
);
width = 1560;
},
{
anchors = (
{
name = bottom;
pos = (820,0);
},
{
name = center;
pos = (820,700);
},
{
name = ogonek;
pos = (1476,10);
},
{
name = top;
pos = (820,1400);
},
{
name = topleft;
pos = (20,1400);
},
{
name = topright;
pos = (1620,1400);
}
);
layerId = "FF87E3F2-B049-41CB-BF2F-09DB15105515";
shapes = (
{
closed = 1;
nodes = (
(1041,1100,o),
(1220,921,o),
(1220,700,cs),
(1220,479,o),
(1041,300,o),
(820,300,cs),
(599,300,o),
(420,479,o),
(420,700,cs),
(420,783,o),
(353,850,o),
(270,850,cs),
(187,850,o),
(120,783,o),
(120,700,cs),
(120,313,o),
(433,0,o),
(820,0,cs),
(1207,0,o),
(1520,313,o),
(1520,700,cs),
(1520,1087,o),
(1207,1400,o),
(820,1400,cs),
(737,1400,o),
(670,1333,o),
(670,1250,cs),
(670,1167,o),
(737,1100,o),
(820,1100,cs)
);
},
{
closed = 1;
nodes = (
(920,550,ls),
(1003,550,o),
(1070,617,o),
(1070,700,cs),
(1070,783,o),
(1003,850,o),
(920,850,cs),
(270,850,ls),
(187,850,o),
(120,783,o),
(120,700,cs),
(120,617,o),
(187,550,o),
(270,550,cs)
);
}
);
width = 1640;
}
);
unicode = (399,601);
},
{
color = 4;
glyphname = F;
kernLeft = I;
kernRight = F;
lastChange = "2022-06-03 00:46:04 +0000";
layers = (
{
anchors = (
{
name = bottom;
pos = (488,0);
},
{
name = top;
pos = (488,1400);
}
);
layerId = m01;
shapes = (
{
closed = 1;
nodes = (
(85,25,ls),
(85,11,o),
(96,0,o),
(110,0,cs),
(124,0,o),
(135,11,o),
(135,25,cs),
(135,700,l),
(85,700,l)
);
},
{
closed = 1;
nodes = (
(110,725,ls),
(96,725,o),
(85,714,o),
(85,700,cs),
(85,686,o),
(96,675,o),
(110,675,cs),
(814,675,ls),
(827,675,o),
(839,686,o),
(839,700,cs),
(839,714,o),
(827,725,o),
(814,725,cs)
);
},
{
closed = 1;
nodes = (
(906,1350,ls),
(919,1350,o),
(931,1361,o),
(931,1375,cs),
(931,1389,o),
(919,1400,o),
(906,1400,cs),
(110,1400,ls),
(96,1400,o),
(85,1389,o),
(85,1375,cs),
(85,1361,o),
(96,1350,o),
(110,1350,cs)
);
}
);
width = 1001;
},
{
anchors = (
{
name = bottom;
pos = (520,0);
},
{
name = top;
pos = (540,1400);
}
);
layerId = "19FA402B-9607-46D9-AAD6-815AECBA5B6B";
name = Regular;
shapes = (
{
closed = 1;
nodes = (
(100,60,ls),
(100,27,o),
(127,0,o),
(160,0,cs),
(193,0,o),
(220,27,o),
(220,60,cs),
(220,700,l),
(100,700,l)
);
},
{
closed = 1;
nodes = (
(160,760,ls),
(127,760,o),
(100,733,o),
(100,700,cs),
(100,667,o),
(127,640,o),
(160,640,cs),
(829,640,ls),
(862,640,o),
(889,667,o),
(889,700,cs),
(889,733,o),
(862,760,o),
(829,760,cs)
);
},
{
closed = 1;
nodes = (
(929,1280,ls),
(962,1280,o),
(989,1307,o),
(989,1340,cs),
(989,1373,o),
(962,1400,o),
(929,1400,cs),
(160,1400,ls),
(127,1400,o),
(100,1373,o),
(100,1340,cs),
(100,1307,o),
(127,1280,o),
(160,1280,cs)
);
}
);
width = 1069;
},
{
anchors = (
{
name = bottom;
pos = (629,0);
},
{
name = top;
pos = (629,1400);
}
);
layerId = "FF87E3F2-B049-41CB-BF2F-09DB15105515";
shapes = (
{
closed = 1;
nodes = (
(150,150,ls),
(150,67,o),
(217,0,o),
(300,0,cs),
(383,0,o),
(450,67,o),
(450,150,cs),
(450,710,l),
(150,710,l)
);
},
{
closed = 1;
nodes = (
(300,850,ls),
(217,850,o),
(150,783,o),
(150,700,cs),
(150,617,o),
(217,550,o),
(300,550,cs),
(888,550,ls),
(971,550,o),
(1038,617,o),
(1038,700,cs),
(1038,783,o),
(971,850,o),
(888,850,cs)
);
},
{
closed = 1;
nodes = (
(988,1100,ls),
(1071,1100,o),
(1138,1167,o),
(1138,1250,cs),
(1138,1333,o),
(1071,1400,o),
(988,1400,cs),
(300,1400,ls),
(217,1400,o),
(150,1333,o),
(150,1250,cs),
(150,1167,o),
(217,1100,o),
(300,1100,cs)
);
}
);
width = 1258;
}
);
metricLeft = H;
metricRight = E;
unicode = (70,102);
},
{
color = 4;
glyphname = G;
kernLeft = O;
kernRight = G;
lastChange = "2022-06-03 00:46:04 +0000";
layers = (
{
anchors = (
{
name = bottom;
pos = (686,0);
},
{
name = top;
pos = (776,1400);
}
);
layerId = m01;
shapes = (
{
closed = 1;
nodes = (
(405,50,o),
(114,341,o),
(114,700,cs),
(114,1059,o),
(405,1350,o),
(764,1350,cs),
(1236,1350,ls),
(1249,1350,o),
(1261,1361,o),
(1261,1375,cs),
(1261,1389,o),
(1249,1400,o),
(1236,1400,cs),
(764,1400,ls),
(377,1400,o),
(64,1087,o),
(64,700,cs),
(64,313,o),
(377,0,o),
(764,0,cs),
(778,0,o),
(789,11,o),
(789,25,cs),
(789,39,o),
(778,50,o),
(764,50,cs)
);
},
{
closed = 1;
nodes = (
(1258,608,ls),
(1258,622,o),
(1247,633,o),
(1233,633,cs),
(1219,633,o),
(1208,622,o),
(1208,608,cs),
(1208,25,ls),
(1208,11,o),
(1219,0,o),
(1233,0,cs),
(1247,0,o),
(1258,11,o),
(1258,25,cs)
);
}
);
width = 1346;
},
{
anchors = (
{
name = bottom;
pos = (700,0);
},
{
name = top;
pos = (790,1400);
}
);
layerId = "19FA402B-9607-46D9-AAD6-815AECBA5B6B";
name = Regular;
shapes = (
{
closed = 1;
nodes = (
(460,120,o),
(200,380,o),
(200,700,cs),
(200,1020,o),
(460,1280,o),
(780,1280,cs),
(1220,1280,ls),
(1253,1280,o),
(1280,1307,o),
(1280,1340,cs),
(1280,1373,o),
(1253,1400,o),
(1220,1400,cs),
(780,1400,ls),
(394,1400,o),
(80,1086,o),
(80,700,cs),
(80,314,o),
(394,0,o),
(780,0,cs),
(813,0,o),
(840,27,o),
(840,60,cs),
(840,93,o),
(813,120,o),
(780,120,cs)
);
},
{
closed = 1;
nodes = (
(1274,608,ls),
(1274,641,o),
(1247,668,o),
(1214,668,cs),
(1181,668,o),
(1154,641,o),
(1154,608,cs),
(1154,60,ls),
(1154,27,o),
(1181,0,o),
(1214,0,cs),
(1247,0,o),
(1274,27,o),
(1274,60,cs)
);
}
);
width = 1380;
},
{
anchors = (
{
name = bottom;
pos = (767,0);
},
{
name = top;
pos = (847,1400);
}
);
layerId = "FF87E3F2-B049-41CB-BF2F-09DB15105515";
shapes = (
{
closed = 1;
nodes = (
(598,301,o),
(420,480,o),
(420,700,cs),
(420,921,o),
(598,1100,o),
(818,1100,cs),
(1233,1100,ls),
(1316,1100,o),
(1383,1167,o),
(1383,1250,cs),
(1383,1333,o),
(1316,1400,o),
(1233,1400,cs),
(818,1400,ls),
(432,1400,o),
(120,1087,o),
(120,700,cs),
(120,314,o),
(432,1,o),
(818,1,cs),
(901,1,o),
(968,68,o),
(968,151,cs),
(968,234,o),
(901,301,o),
(818,301,cs)
);
},
{
closed = 1;
nodes = (
(1384,608,ls),
(1384,691,o),
(1317,758,o),
(1234,758,cs),
(1151,758,o),
(1084,691,o),
(1084,608,cs),
(1084,150,ls),
(1084,67,o),
(1151,0,o),
(1234,0,cs),
(1317,0,o),
(1384,67,o),
(1384,150,cs)
);
}
);
width = 1534;
}
);
metricLeft = O;
metricRight = H;
unicode = (71,103);
},
{
color = 4;
glyphname = H;
kernLeft = I;
kernRight = I;
lastChange = "2022-06-03 00:46:04 +0000";
layers = (
{
anchors = (
{
name = bottom;
pos = (613,0);
},
{
name = center;
pos = (613,700);
},
{
name = top;
pos = (613,1400);
},
{
name = topleft;
pos = (5,1400);
}
);
layerId = m01;
shapes = (
{
closed = 1;
nodes = (
(135,383,ls),
(135,396,o),
(124,408,o),
(110,408,cs),
(96,408,o),
(85,396,o),
(85,383,cs),
(85,26,ls),
(85,12,o),
(96,1,o),
(110,1,cs),
(124,1,o),
(135,12,o),
(135,26,cs)
);
},
{
closed = 1;
nodes = (
(85,700,ls),
(85,686,o),
(96,675,o),
(110,675,cs),
(124,675,o),
(135,686,o),
(135,700,cs),
(135,1375,ls),
(135,1388,o),
(124,1400,o),
(110,1400,cs),
(96,1400,o),
(85,1388,o),
(85,1375,cs)
);
},
{
closed = 1;
nodes = (
(110,725,l),
(110,675,l),
(1116,675,l),
(1116,725,l)
);
},
{
closed = 1;
nodes = (
(1091,26,ls),
(1091,12,o),
(1102,1,o),
(1116,1,cs),
(1130,1,o),
(1141,12,o),
(1141,26,cs),
(1141,700,ls),
(1141,714,o),
(1130,725,o),
(1116,725,cs),
(1102,725,o),
(1091,714,o),
(1091,700,cs)
);
},
{
closed = 1;
nodes = (
(1141,1375,ls),
(1141,1388,o),
(1130,1400,o),
(1116,1400,cs),
(1102,1400,o),
(1091,1388,o),
(1091,1375,cs),
(1091,1018,ls),
(1091,1004,o),
(1102,993,o),
(1116,993,cs),
(1130,993,o),
(1141,1004,o),
(1141,1018,cs)
);
}
);
width = 1226;
},
{
anchors = (
{
name = bottom;
pos = (663,0);
},
{
name = center;
pos = (663,700);
},
{
name = top;
pos = (663,1400);
},
{
name = topleft;
pos = (20,1400);
}
);
layerId = "19FA402B-9607-46D9-AAD6-815AECBA5B6B";
shapes = (
{
closed = 1;
nodes = (
(220,351,ls),
(220,384,o),
(193,411,o),
(160,411,cs),
(127,411,o),
(100,384,o),
(100,351,cs),
(100,60,ls),
(100,27,o),
(127,0,o),
(160,0,cs),
(193,0,o),
(220,27,o),
(220,60,cs)
);
},
{
closed = 1;
nodes = (
(100,700,ls),
(100,667,o),
(127,640,o),
(160,640,cs),
(193,640,o),
(220,667,o),
(220,700,cs),
(220,1340,ls),
(220,1373,o),
(193,1400,o),
(160,1400,cs),
(127,1400,o),
(100,1373,o),
(100,1340,cs)
);
},
{
closed = 1;
nodes = (
(160,760,l),
(160,640,l),
(1166,640,l),
(1166,760,l)
);
},
{
closed = 1;
nodes = (
(1106,60,ls),
(1106,27,o),
(1133,0,o),
(1166,0,cs),
(1199,0,o),
(1226,27,o),
(1226,60,cs),
(1226,700,ls),
(1226,733,o),
(1199,760,o),
(1166,760,cs),
(1133,760,o),
(1106,733,o),
(1106,700,cs)
);
},
{
closed = 1;
nodes = (
(1226,1340,ls),
(1226,1373,o),
(1199,1400,o),
(1166,1400,cs),
(1133,1400,o),
(1106,1373,o),
(1106,1340,cs),
(1106,1049,ls),
(1106,1016,o),
(1133,989,o),
(1166,989,cs),
(1199,989,o),
(1226,1016,o),
(1226,1049,cs)
);
}
);
width = 1326;
},
{
anchors = (
{
name = bottom;
pos = (803,0);
},
{
name = center;
pos = (803,700);
},
{
name = top;
pos = (803,1400);
},
{
name = topleft;
pos = (70,1400);
}
);
layerId = "FF87E3F2-B049-41CB-BF2F-09DB15105515";
shapes = (
{
closed = 1;
nodes = (
(450,270,ls),
(450,353,o),
(383,420,o),
(300,420,cs),
(217,420,o),
(150,353,o),
(150,270,cs),
(150,150,ls),
(150,67,o),
(217,0,o),
(300,0,cs),
(383,0,o),
(450,67,o),
(450,150,cs)
);
},
{
closed = 1;
nodes = (
(150,700,ls),
(150,617,o),
(217,550,o),
(300,550,cs),
(383,550,o),
(450,617,o),
(450,700,cs),
(450,1250,ls),
(450,1333,o),
(383,1400,o),
(300,1400,cs),
(217,1400,o),
(150,1333,o),
(150,1250,cs)
);
},
{
closed = 1;
nodes = (
(300,850,l),
(300,550,l),
(1306,550,l),
(1306,850,l)
);
},
{
closed = 1;
nodes = (
(1156,150,ls),
(1156,67,o),
(1223,0,o),
(1306,0,cs),
(1389,0,o),
(1456,67,o),
(1456,150,cs),
(1456,700,ls),
(1456,783,o),
(1389,850,o),
(1306,850,cs),
(1223,850,o),
(1156,783,o),
(1156,700,cs)
);
},
{
closed = 1;
nodes = (
(1456,1250,ls),
(1456,1333,o),
(1389,1400,o),
(1306,1400,cs),
(1223,1400,o),
(1156,1333,o),
(1156,1250,cs),
(1156,1130,ls),
(1156,1047,o),
(1223,980,o),
(1306,980,cs),
(1389,980,o),
(1456,1047,o),
(1456,1130,cs)
);
}
);
width = 1606;
}
);
unicode = (72,104);
},
{
color = 4;
glyphname = I;
kernLeft = I;
kernRight = I;
lastChange = "2022-06-03 00:46:04 +0000";
layers = (
{
anchors = (
{
name = bottom;
pos = (110,0);
},
{
name = ogonek;
pos = (109,0);
},
{
name = top;
pos = (110,1400);
},
{
name = topleft;
pos = (-5,1400);
}
);
layerId = m01;
shapes = (
{
closed = 1;
nodes = (
(135,500,ls),
(135,514,o),
(124,525,o),
(110,525,cs),
(96,525,o),
(85,514,o),
(85,500,cs),
(85,26,ls),
(85,12,o),
(96,1,o),
(110,1,cs),
(124,1,o),
(135,12,o),
(135,26,cs)
);
},
{
closed = 1;
nodes = (
(135,1375,ls),
(135,1388,o),
(124,1400,o),
(110,1400,cs),
(96,1400,o),
(85,1388,o),
(85,1375,cs),
(85,900,ls),
(85,886,o),
(96,875,o),
(110,875,cs),
(124,875,o),
(135,886,o),
(135,900,cs)
);
}
);
width = 220;
},
{
anchors = (
{
name = bottom;
pos = (160,0);
},
{
name = ogonek;
pos = (160,0);
},
{
name = top;
pos = (160,1400);
},
{
name = topleft;
pos = (20,1400);
}
);
layerId = "19FA402B-9607-46D9-AAD6-815AECBA5B6B";
shapes = (
{
closed = 1;
nodes = (
(220,500,ls),
(220,533,o),
(193,560,o),
(160,560,cs),
(127,560,o),
(100,533,o),
(100,500,cs),
(100,60,ls),
(100,27,o),
(127,0,o),
(160,0,cs),
(193,0,o),
(220,27,o),
(220,60,cs)
);
},
{
closed = 1;
nodes = (
(220,1340,ls),
(220,1373,o),
(193,1400,o),
(160,1400,cs),
(127,1400,o),
(100,1373,o),
(100,1340,cs),
(100,900,ls),
(100,867,o),
(127,840,o),
(160,840,cs),
(193,840,o),
(220,867,o),
(220,900,cs)
);
}
);
width = 320;
},
{
anchors = (
{
name = bottom;
pos = (300,0);
},
{
name = ogonek;
pos = (287,0);
},
{
name = top;
pos = (300,1400);
},
{
name = topleft;
pos = (20,1400);
}
);
layerId = "FF87E3F2-B049-41CB-BF2F-09DB15105515";
shapes = (
{
closed = 1;
nodes = (
(450,440,ls),
(450,523,o),
(383,590,o),
(300,590,cs),
(217,590,o),
(150,523,o),
(150,440,cs),
(150,150,ls),
(150,67,o),
(217,0,o),
(300,0,cs),
(383,0,o),
(450,67,o),
(450,150,cs)
);
},
{
closed = 1;
nodes = (
(450,1250,ls),
(450,1333,o),
(383,1400,o),
(300,1400,cs),
(217,1400,o),
(150,1333,o),
(150,1250,cs),
(150,960,ls),
(150,877,o),
(217,810,o),
(300,810,cs),
(383,810,o),
(450,877,o),
(450,960,cs)
);
}
);
width = 600;
}
);
metricLeft = H;
metricRight = H;
unicode = (73,305);
},
{
color = 5;
glyphname = Idotaccent;
kernLeft = I;
kernRight = I;
lastChange = "2022-06-02 21:28:25 +0000";
layers = (
{
anchors = (
{
name = _top;
pos = (110,1400);
},
{
name = top;
pos = (110,1669);
}
);
layerId = m01;
shapes = (
{
closed = 1;
nodes = (
(130,1594,o),
(148,1612,o),
(148,1632,cs),
(148,1652,o),
(130,1669,o),
(110,1669,cs),
(90,1669,o),
(73,1652,o),
(73,1632,cs),
(73,1612,o),
(90,1594,o),
(110,1594,cs)
);
},
{
ref = I;
}
);
width = 220;
},
{
anchors = (
{
name = _top;
pos = (160,1400);
},
{
name = top;
pos = (160,1744);
}
);
layerId = "19FA402B-9607-46D9-AAD6-815AECBA5B6B";
shapes = (
{
closed = 1;
nodes = (
(201,1594,o),
(235,1628,o),
(235,1669,cs),
(235,1710,o),
(201,1744,o),
(160,1744,cs),
(119,1744,o),
(85,1710,o),
(85,1669,cs),
(85,1628,o),
(119,1594,o),
(160,1594,cs)
);
},
{
ref = I;
}
);
width = 320;
},
{
anchors = (
{
name = _top;
pos = (300,1400);
},
{
name = top;
pos = (300,1833);
}
);
layerId = "FF87E3F2-B049-41CB-BF2F-09DB15105515";
shapes = (
{
closed = 1;
nodes = (
(382,1534,o),
(450,1602,o),
(450,1683,cs),
(450,1765,o),
(381,1833,o),
(300,1833,cs),
(219,1833,o),
(150,1765,o),
(150,1683,cs),
(150,1602,o),
(220,1534,o),
(301,1534,cs)
);
},
{
ref = I;
}
);
width = 600;
}
);
unicode = 304;
},
{
color = 4;
glyphname = J;
kernLeft = J;
kernRight = J;
lastChange = "2022-06-03 00:46:04 +0000";
layers = (
{
anchors = (
{
name = bottom;
pos = (559,0);
},
{
name = top;
pos = (1031,1399);
}
);
layerId = m01;
shapes = (
{
closed = 1;
nodes = (
(1005,250,o),
(805,50,o),
(558,50,cs),
(310,50,o),
(110,250,o),
(110,498,cs),
(110,512,o),
(99,523,o),
(85,523,cs),
(71,523,o),
(60,512,o),
(60,498,cs),
(60,222,o),
(282,0,o),
(558,0,cs),
(833,0,o),
(1055,222,o),
(1055,498,cs),
(1055,512,o),
(1044,523,o),
(1030,523,cs),
(1016,523,o),
(1005,512,o),
(1005,498,cs)
);
},
{
closed = 1;
nodes = (
(1056,1375,ls),
(1056,1388,o),
(1045,1400,o),
(1031,1400,cs),
(1017,1400,o),
(1006,1388,o),
(1006,1375,cs),
(1006,900,ls),
(1006,886,o),
(1017,875,o),
(1031,875,cs),
(1045,875,o),
(1056,886,o),
(1056,900,cs)
);
}
);
width = 1133;
},
{
anchors = (
{
name = bottom;
pos = (568,0);
},
{
name = top;
pos = (1006,1400);
}
);
layerId = "19FA402B-9607-46D9-AAD6-815AECBA5B6B";
shapes = (
{
closed = 1;
nodes = (
(945,289,o),
(776,120,o),
(568,120,cs),
(359,120,o),
(190,289,o),
(190,498,cs),
(190,531,o),
(163,558,o),
(130,558,cs),
(97,558,o),
(70,531,o),
(70,498,cs),
(70,223,o),
(293,0,o),
(568,0,cs),
(842,0,o),
(1065,223,o),
(1065,498,cs),
(1065,531,o),
(1038,558,o),
(1005,558,cs),
(972,558,o),
(945,531,o),
(945,498,cs)
);
},
{
closed = 1;
nodes = (
(1066,1340,ls),
(1066,1373,o),
(1039,1400,o),
(1006,1400,cs),
(973,1400,o),
(946,1373,o),
(946,1340,cs),
(946,900,ls),
(946,867,o),
(973,840,o),
(1006,840,cs),
(1039,840,o),
(1066,867,o),
(1066,900,cs)
);
}
);
width = 1154;
},
{
anchors = (
{
name = bottom;
pos = (656,0);
},
{
name = top;
pos = (1061,1400);
}
);
layerId = "FF87E3F2-B049-41CB-BF2F-09DB15105515";
shapes = (
{
closed = 1;
nodes = (
(911,417,o),
(796,303,o),
(656,303,cs),
(515,303,o),
(400,417,o),
(400,558,cs),
(400,641,o),
(333,708,o),
(250,708,cs),
(167,708,o),
(100,641,o),
(100,558,cs),
(100,249,o),
(352,3,o),
(656,3,cs),
(959,3,o),
(1211,249,o),
(1211,558,cs),
(1211,641,o),
(1144,708,o),
(1061,708,cs),
(978,708,o),
(911,641,o),
(911,558,cs)
);
},
{
closed = 1;
nodes = (
(1211,1250,ls),
(1211,1333,o),
(1144,1400,o),
(1061,1400,cs),
(978,1400,o),
(911,1333,o),
(911,1250,cs),
(911,1030,ls),
(911,947,o),
(978,880,o),
(1061,880,cs),
(1144,880,o),
(1211,947,o),
(1211,1030,cs)
);
}
);
width = 1343;
}
);
metricLeft = A;
unicode = (74,106,567);
},
{
color = 4;
glyphname = K;
kernLeft = I;
kernRight = K;
lastChange = "2022-06-03 00:46:04 +0000";
layers = (
{
anchors = (
{
name = bottom;
pos = (590,0);
},
{
name = top;
pos = (590,1400);
}
);
layerId = m01;
shapes = (
{
closed = 1;
nodes = (
(135,1375,ls),
(135,1388,o),
(124,1400,o),
(110,1400,cs),
(96,1400,o),
(85,1388,o),
(85,1375,cs),
(85,26,ls),
(85,12,o),
(96,1,o),
(110,1,cs),
(124,1,o),
(135,12,o),
(135,26,cs)
);
},
{
closed = 1;
nodes = (
(462,718,l),
(457,722,o),
(451,725,o),
(444,725,cs),
(430,725,o),
(419,714,o),
(419,700,cs),
(419,693,o),
(422,687,o),
(426,682,c),
(1101,7,l),
(1106,3,o),
(1112,0,o),
(1119,0,cs),
(1133,0,o),
(1144,11,o),
(1144,25,cs),
(1144,32,o),
(1141,38,o),
(1137,43,c)
);
},
{
closed = 1;
nodes = (
(724,1016,l),
(720,1011,o),
(717,1005,o),
(717,998,cs),
(717,984,o),
(728,973,o),
(742,973,cs),
(749,973,o),
(755,976,o),
(760,980,c),
(1137,1357,l),
(1141,1362,o),
(1144,1368,o),
(1144,1375,cs),
(1144,1389,o),
(1133,1400,o),
(1119,1400,cs),
(1112,1400,o),
(1106,1397,o),
(1101,1393,c)
);
}
);
width = 1204;
},
{
anchors = (
{
name = bottom;
pos = (610,0);
},
{
name = top;
pos = (610,1400);
}
);
layerId = "19FA402B-9607-46D9-AAD6-815AECBA5B6B";
shapes = (
{
closed = 1;
nodes = (
(220,1340,ls),
(220,1373,o),
(193,1400,o),
(160,1400,cs),
(127,1400,o),
(100,1373,o),
(100,1340,cs),
(100,60,ls),
(100,27,o),
(127,0,o),
(160,0,cs),
(193,0,o),
(220,27,o),
(220,60,cs)
);
},
{
closed = 1;
nodes = (
(501,742,ls),
(491,753,o),
(476,760,o),
(459,760,cs),
(426,760,o),
(399,733,o),
(399,700,cs),
(399,683,o),
(406,668,o),
(417,658,cs),
(1056,18,ls),
(1067,7,o),
(1082,0,o),
(1099,0,cs),
(1132,0,o),
(1159,27,o),
(1159,60,cs),
(1159,77,o),
(1152,92,o),
(1141,103,cs)
);
},
{
closed = 1;
nodes = (
(715,1040,ls),
(704,1030,o),
(697,1015,o),
(697,998,cs),
(697,965,o),
(724,938,o),
(757,938,cs),
(774,938,o),
(789,945,o),
(799,956,cs),
(1141,1297,ls),
(1152,1308,o),
(1159,1323,o),
(1159,1340,cs),
(1159,1373,o),
(1132,1400,o),
(1099,1400,cs),
(1082,1400,o),
(1067,1393,o),
(1056,1382,cs)
);
}
);
width = 1229;
},
{
anchors = (
{
name = bottom;
pos = (740,0);
},
{
name = top;
pos = (740,1400);
}
);
layerId = "FF87E3F2-B049-41CB-BF2F-09DB15105515";
shapes = (
{
closed = 1;
nodes = (
(450,1250,ls),
(450,1333,o),
(383,1400,o),
(300,1400,cs),
(217,1400,o),
(150,1333,o),
(150,1250,cs),
(150,150,ls),
(150,67,o),
(217,0,o),
(300,0,cs),
(383,0,o),
(450,67,o),
(450,150,cs)
);
},
{
closed = 1;
nodes = (
(785,806,ls),
(758,833,o),
(720,850,o),
(679,850,cs),
(596,850,o),
(529,783,o),
(529,700,cs),
(529,659,o),
(546,621,o),
(573,594,cs),
(1122,44,ls),
(1150,17,o),
(1187,0,o),
(1229,0,cs),
(1311,0,o),
(1379,68,o),
(1379,150,cs),
(1379,192,o),
(1362,229,o),
(1335,257,cs)
);
},
{
closed = 1;
nodes = (
(871,1104,ls),
(844,1077,o),
(827,1039,o),
(827,998,cs),
(827,915,o),
(894,848,o),
(977,848,cs),
(1018,848,o),
(1056,865,o),
(1083,892,cs),
(1334,1143,ls),
(1362,1170,o),
(1379,1208,o),
(1379,1250,cs),
(1379,1332,o),
(1311,1400,o),
(1229,1400,cs),
(1187,1400,o),
(1149,1383,o),
(1122,1355,cs)
);
}
);
width = 1479;
}
);
metricLeft = H;
metricRight = A;
unicode = (75,107);
},
{
color = 4;
glyphname = L;
kernLeft = I;
kernRight = L;
lastChange = "2022-06-03 00:46:04 +0000";
layers = (
{
anchors = (
{
name = bottom;
pos = (570,0);
},
{
name = center;
pos = (570,700);
},
{
name = top;
pos = (112,1400);
},
{
name = topright;
pos = (1145,1400);
}
);
layerId = m01;
shapes = (
{
closed = 1;
nodes = (
(110,50,ls),
(96,50,o),
(85,39,o),
(85,25,cs),
(85,11,o),
(96,0,o),
(110,0,cs),
(1080,0,ls),
(1093,0,o),
(1105,11,o),
(1105,25,cs),
(1105,39,o),
(1093,50,o),
(1080,50,cs)
);
},
{
closed = 1;
nodes = (
(137,1375,ls),
(137,1388,o),
(126,1400,o),
(112,1400,cs),
(98,1400,o),
(87,1388,o),
(87,1375,cs),
(87,402,ls),
(87,388,o),
(98,377,o),
(112,377,cs),
(126,377,o),
(137,388,o),
(137,402,cs)
);
}
);
width = 1165;
},
{
anchors = (
{
name = bottom;
pos = (594,0);
},
{
name = center;
pos = (594,700);
},
{
name = top;
pos = (166,1400);
},
{
name = topright;
pos = (1167,1400);
}
);
layerId = "19FA402B-9607-46D9-AAD6-815AECBA5B6B";
shapes = (
{
closed = 1;
nodes = (
(160,120,ls),
(127,120,o),
(100,93,o),
(100,60,cs),
(100,27,o),
(127,0,o),
(160,0,cs),
(1067,0,ls),
(1100,0,o),
(1127,27,o),
(1127,60,cs),
(1127,93,o),
(1100,120,o),
(1067,120,cs)
);
},
{
closed = 1;
nodes = (
(226,1340,ls),
(226,1373,o),
(199,1400,o),
(166,1400,cs),
(133,1400,o),
(106,1373,o),
(106,1340,cs),
(106,402,ls),
(106,369,o),
(133,342,o),
(166,342,cs),
(199,342,o),
(226,369,o),
(226,402,cs)
);
}
);
width = 1197;
},
{
anchors = (
{
name = bottom;
pos = (648,0);
},
{
name = center;
pos = (648,700);
},
{
name = top;
pos = (315,1400);
},
{
name = topright;
pos = (1275,1400);
}
);
layerId = "FF87E3F2-B049-41CB-BF2F-09DB15105515";
shapes = (
{
closed = 1;
nodes = (
(300,300,ls),
(217,300,o),
(150,233,o),
(150,150,cs),
(150,67,o),
(217,0,o),
(300,0,cs),
(1045,0,ls),
(1128,0,o),
(1195,67,o),
(1195,150,cs),
(1195,233,o),
(1128,300,o),
(1045,300,cs)
);
},
{
closed = 1;
nodes = (
(465,1250,ls),
(465,1333,o),
(398,1400,o),
(315,1400,cs),
(232,1400,o),
(165,1333,o),
(165,1250,cs),
(165,602,ls),
(165,519,o),
(232,452,o),
(315,452,cs),
(398,452,o),
(465,519,o),
(465,602,cs)
);
}
);
width = 1295;
}
);
metricLeft = H;
metricRight = A;
unicode = (76,108);
},
{
color = 5;
glyphname = Lslash;
kernLeft = I;
kernRight = L;
lastChange = "2022-06-03 00:46:04 +0000";
layers = (
{
layerId = m01;
shapes = (
{
closed = 1;
nodes = (
(258,452,ls),
(258,465,o),
(247,477,o),
(233,477,cs),
(219,477,o),
(208,465,o),
(208,452,cs),
(208,29,ls),
(208,15,o),
(219,4,o),
(233,4,cs),
(247,4,o),
(258,15,o),
(258,29,cs)
);
},
{
closed = 1;
nodes = (
(233,50,ls),
(219,50,o),
(208,39,o),
(208,25,cs),
(208,11,o),
(219,0,o),
(233,0,cs),
(1128,0,ls),
(1142,0,o),
(1153,11,o),
(1153,25,cs),
(1153,39,o),
(1142,50,o),
(1128,50,cs)
);
},
{
closed = 1;
nodes = (
(12,603,l),
(5,598,o),
(0,590,o),
(0,581,cs),
(0,567,o),
(11,556,o),
(25,556,cs),
(29,556,o),
(34,557,o),
(37,560,c),
(458,797,l),
(465,802,o),
(470,810,o),
(470,819,cs),
(470,833,o),
(459,844,o),
(445,844,cs),
(441,844,o),
(436,843,o),
(433,840,c)
);
},
{
closed = 1;
nodes = (
(258,1372,ls),
(258,1385,o),
(247,1397,o),
(233,1397,cs),
(219,1397,o),
(208,1385,o),
(208,1372,cs),
(208,949,ls),
(208,935,o),
(219,924,o),
(233,924,cs),
(247,924,o),
(258,935,o),
(258,949,cs)
);
}
);
width = 1213;
},
{
layerId = "19FA402B-9607-46D9-AAD6-815AECBA5B6B";
shapes = (
{
closed = 1;
nodes = (
(301,420,ls),
(301,453,o),
(274,480,o),
(241,480,cs),
(208,480,o),
(181,453,o),
(181,420,cs),
(181,60,ls),
(181,27,o),
(208,0,o),
(241,0,cs),
(274,0,o),
(301,27,o),
(301,60,cs)
);
},
{
closed = 1;
nodes = (
(241,120,ls),
(208,120,o),
(181,93,o),
(181,60,cs),
(181,27,o),
(208,0,o),
(241,0,cs),
(1136,0,ls),
(1169,0,o),
(1196,27,o),
(1196,60,cs),
(1196,93,o),
(1169,120,o),
(1136,120,cs)
);
},
{
closed = 1;
nodes = (
(30,648,ls),
(12,638,o),
(0,619,o),
(0,597,cs),
(0,563,o),
(27,537,o),
(60,537,cs),
(71,537,o),
(82,540,o),
(90,545,cs),
(456,752,ls),
(474,762,o),
(486,781,o),
(486,803,cs),
(486,837,o),
(459,863,o),
(426,863,cs),
(415,863,o),
(404,860,o),
(396,855,cs)
);
},
{
closed = 1;
nodes = (
(301,1340,ls),
(301,1373,o),
(274,1400,o),
(241,1400,cs),
(208,1400,o),
(181,1373,o),
(181,1340,cs),
(181,980,ls),
(181,947,o),
(208,920,o),
(241,920,cs),
(274,920,o),
(301,947,o),
(301,980,cs)
);
}
);
width = 1266;
},
{
layerId = "FF87E3F2-B049-41CB-BF2F-09DB15105515";
shapes = (
{
closed = 1;
nodes = (
(509,379,ls),
(509,462,o),
(442,529,o),
(359,529,cs),
(276,529,o),
(209,462,o),
(209,379,cs),
(209,150,ls),
(209,67,o),
(276,0,o),
(359,0,cs),
(442,0,o),
(509,67,o),
(509,150,cs)
);
},
{
closed = 1;
nodes = (
(359,300,ls),
(276,300,o),
(209,233,o),
(209,150,cs),
(209,67,o),
(276,0,o),
(359,0,cs),
(1089,0,ls),
(1172,0,o),
(1239,67,o),
(1239,150,cs),
(1239,233,o),
(1172,300,o),
(1089,300,cs)
);
},
{
closed = 1;
nodes = (
(107,816,ls),
(45,798,o),
(0,740,o),
(0,672,cs),
(0,589,o),
(67,522,o),
(150,522,cs),
(164,522,o),
(179,524,o),
(192,528,cs),
(615,664,ls),
(677,682,o),
(722,740,o),
(722,808,cs),
(722,891,o),
(655,958,o),
(572,958,cs),
(558,958,o),
(543,956,o),
(530,952,cs)
);
},
{
closed = 1;
nodes = (
(509,1259,ls),
(509,1342,o),
(442,1409,o),
(359,1409,cs),
(276,1409,o),
(209,1342,o),
(209,1259,cs),
(209,1101,ls),
(209,1018,o),
(276,951,o),
(359,951,cs),
(442,951,o),
(509,1018,o),
(509,1101,cs)
);
}
);
width = 1339;
}
);
metricRight = L;
unicode = (321,322);
},
{
color = 4;
glyphname = M;
kernLeft = I;
kernRight = I;
lastChange = "2022-06-03 00:46:04 +0000";
layers = (
{
anchors = (
{
name = bottom;
pos = (745,0);
},
{
name = top;
pos = (745,1400);
}
);
layerId = m01;
shapes = (
{
closed = 1;
nodes = (
(85,26,ls),
(85,12,o),
(96,1,o),
(110,1,cs),
(124,1,o),
(135,12,o),
(135,26,cs),
(135,1375,ls),
(135,1388,o),
(124,1400,o),
(110,1400,cs),
(96,1400,o),
(85,1388,o),
(85,1375,cs)
);
},
{
closed = 1;
nodes = (
(130,1390,ls),
(125,1395,o),
(119,1398,o),
(111,1398,cs),
(98,1398,o),
(86,1386,o),
(86,1373,cs),
(86,1366,o),
(89,1360,o),
(94,1355,cs),
(727,681,ls),
(731,676,o),
(738,673,o),
(745,673,cs),
(759,673,o),
(770,684,o),
(770,698,cs),
(770,705,o),
(767,711,o),
(763,715,cs)
);
},
{
closed = 1;
nodes = (
(1355,26,ls),
(1355,12,o),
(1366,1,o),
(1380,1,cs),
(1394,1,o),
(1405,12,o),
(1405,26,cs),
(1405,1375,ls),
(1405,1388,o),
(1394,1400,o),
(1380,1400,cs),
(1366,1400,o),
(1355,1388,o),
(1355,1375,cs)
);
}
);
width = 1490;
},
{
anchors = (
{
name = bottom;
pos = (690,0);
},
{
name = top;
pos = (760,1400);
}
);
layerId = "19FA402B-9607-46D9-AAD6-815AECBA5B6B";
shapes = (
{
closed = 1;
nodes = (
(100,60,ls),
(100,27,o),
(127,0,o),
(160,0,cs),
(193,0,o),
(220,27,o),
(220,60,cs),
(220,1340,ls),
(220,1373,o),
(193,1400,o),
(160,1400,cs),
(127,1400,o),
(100,1373,o),
(100,1340,cs)
);
},
{
closed = 1;
nodes = (
(208,1377,ls),
(197,1388,o),
(181,1396,o),
(164,1396,cs),
(131,1396,o),
(104,1369,o),
(104,1336,cs),
(104,1320,o),
(110,1305,o),
(120,1294,cs),
(716,657,ls),
(727,645,o),
(743,638,o),
(760,638,cs),
(793,638,o),
(820,665,o),
(820,698,cs),
(820,714,o),
(814,728,o),
(804,739,cs)
);
},
{
closed = 1;
nodes = (
(1300,60,ls),
(1300,27,o),
(1327,0,o),
(1360,0,cs),
(1393,0,o),
(1420,27,o),
(1420,60,cs),
(1420,1340,ls),
(1420,1373,o),
(1393,1400,o),
(1360,1400,cs),
(1327,1400,o),
(1300,1373,o),
(1300,1340,cs)
);
}
);
width = 1520;
},
{
anchors = (
{
name = bottom;
pos = (810,0);
},
{
name = top;
pos = (810,1400);
}
);
layerId = "FF87E3F2-B049-41CB-BF2F-09DB15105515";
shapes = (
{
closed = 1;
nodes = (
(150,150,ls),
(150,67,o),
(217,0,o),
(300,0,cs),
(383,0,o),
(450,67,o),
(450,150,cs),
(450,1250,ls),
(450,1333,o),
(383,1400,o),
(300,1400,cs),
(217,1400,o),
(150,1333,o),
(150,1250,cs)
);
},
{
closed = 1;
nodes = (
(423,1339,ls),
(396,1368,o),
(357,1387,o),
(313,1387,cs),
(231,1387,o),
(163,1320,o),
(163,1237,cs),
(163,1197,o),
(179,1161,o),
(204,1135,cs),
(700,596,ls),
(727,567,o),
(766,548,o),
(810,548,cs),
(893,548,o),
(960,615,o),
(960,698,cs),
(960,737,o),
(945,773,o),
(920,800,cs)
);
},
{
closed = 1;
nodes = (
(1170,150,ls),
(1170,67,o),
(1237,0,o),
(1320,0,cs),
(1403,0,o),
(1470,67,o),
(1470,150,cs),
(1470,1250,ls),
(1470,1333,o),
(1403,1400,o),
(1320,1400,cs),
(1237,1400,o),
(1170,1333,o),
(1170,1250,cs)
);
}
);
width = 1620;
}
);
metricLeft = H;
metricRight = H;
unicode = (77,109);
},
{
color = 4;
glyphname = N;
kernLeft = I;
kernRight = I;
lastChange = "2022-06-03 00:46:04 +0000";
layers = (
{
anchors = (
{
name = bottom;
pos = (692,0);
},
{
name = top;
pos = (692,1400);
}
);
layerId = m01;
shapes = (
{
closed = 1;
nodes = (
(135,1375,ls),
(135,1388,o),
(124,1400,o),
(110,1400,cs),
(96,1400,o),
(85,1388,o),
(85,1375,cs),
(85,26,ls),
(85,12,o),
(96,1,o),
(110,1,cs),
(124,1,o),
(135,12,o),
(135,26,cs)
);
},
{
closed = 1;
nodes = (
(1252,11,l),
(1292,41,l),
(563,1015,ls),
(558,1021,o),
(551,1025,o),
(543,1025,cs),
(529,1025,o),
(518,1014,o),
(518,1000,cs),
(518,994,o),
(520,989,o),
(523,985,cs)
);
},
{
closed = 1;
nodes = (
(1298,1375,ls),
(1298,1388,o),
(1287,1400,o),
(1273,1400,cs),
(1259,1400,o),
(1248,1388,o),
(1248,1375,cs),
(1248,26,ls),
(1248,12,o),
(1259,1,o),
(1273,1,cs),
(1287,1,o),
(1298,12,o),
(1298,26,cs)
);
}
);
width = 1383;
},
{
anchors = (
{
name = bottom;
pos = (707,0);
},
{
name = top;
pos = (707,1400);
}
);
layerId = "19FA402B-9607-46D9-AAD6-815AECBA5B6B";
shapes = (
{
closed = 1;
nodes = (
(220,1340,ls),
(220,1373,o),
(193,1400,o),
(160,1400,cs),
(127,1400,o),
(100,1373,o),
(100,1340,cs),
(100,60,ls),
(100,27,o),
(127,0,o),
(160,0,cs),
(193,0,o),
(220,27,o),
(220,60,cs)
);
},
{
closed = 1;
nodes = (
(1207,21,l),
(1303,93,l),
(606,1036,ls),
(595,1050,o),
(578,1060,o),
(558,1060,cs),
(525,1060,o),
(498,1033,o),
(498,1000,cs),
(498,987,o),
(502,974,o),
(510,964,cs)
);
},
{
closed = 1;
nodes = (
(1313,1340,ls),
(1313,1373,o),
(1286,1400,o),
(1253,1400,cs),
(1220,1400,o),
(1193,1373,o),
(1193,1340,cs),
(1193,60,ls),
(1193,27,o),
(1220,0,o),
(1253,0,cs),
(1286,0,o),
(1313,27,o),
(1313,60,cs)
);
}
);
width = 1413;
},
{
anchors = (
{
name = bottom;
pos = (797,0);
},
{
name = top;
pos = (797,1400);
}
);
layerId = "FF87E3F2-B049-41CB-BF2F-09DB15105515";
shapes = (
{
closed = 1;
nodes = (
(450,1250,ls),
(450,1333,o),
(383,1400,o),
(300,1400,cs),
(217,1400,o),
(150,1333,o),
(150,1250,cs),
(150,150,ls),
(150,67,o),
(217,0,o),
(300,0,cs),
(383,0,o),
(450,67,o),
(450,150,cs)
);
},
{
closed = 1;
nodes = (
(1193,38,l),
(1417,238,l),
(854,867,ls),
(826,898,o),
(786,917,o),
(742,917,cs),
(659,917,o),
(592,850,o),
(592,767,cs),
(592,729,o),
(606,694,o),
(630,667,cs)
);
},
{
closed = 1;
nodes = (
(1443,1250,ls),
(1443,1333,o),
(1376,1400,o),
(1293,1400,cs),
(1210,1400,o),
(1143,1333,o),
(1143,1250,cs),
(1143,150,ls),
(1143,67,o),
(1210,0,o),
(1293,0,cs),
(1376,0,o),
(1443,67,o),
(1443,150,cs)
);
}
);
width = 1593;
}
);
metricLeft = H;
metricRight = H;
unicode = (78,110);
},
{
color = 4;
glyphname = O;
kernLeft = O;
kernRight = O;
lastChange = "2022-06-03 00:46:04 +0000";
layers = (
{
anchors = (
{
name = bottom;
pos = (764,0);
},
{
name = center;
pos = (764,700);
},
{
name = ogonek;
pos = (1375,10);
},
{
name = top;
pos = (764,1400);
},
{
name = topleft;
pos = (20,1400);
},
{
name = topright;
pos = (1223,1196);
}
);
layerId = m01;
shapes = (
{
closed = 1;
nodes = (
(283,1171,o),
(294,1182,o),
(294,1196,cs),
(294,1210,o),
(283,1221,o),
(269,1221,cs),
(255,1221,o),
(244,1210,o),
(244,1196,cs),
(244,1182,o),
(255,1171,o),
(269,1171,cs)
);
},
{
closed = 1;
nodes = (
(1123,1350,o),
(1414,1059,o),
(1414,700,cs),
(1414,341,o),
(1123,50,o),
(764,50,cs),
(405,50,o),
(114,341,o),
(114,700,cs),
(114,714,o),
(103,725,o),
(89,725,cs),
(75,725,o),
(64,714,o),
(64,700,cs),
(64,313,o),
(377,0,o),
(764,0,cs),
(1151,0,o),
(1464,313,o),
(1464,700,cs),
(1464,1087,o),
(1151,1400,o),
(764,1400,cs),
(750,1400,o),
(739,1389,o),
(739,1375,cs),
(739,1361,o),
(750,1350,o),
(764,1350,cs)
);
}
);
width = 1528;
},
{
anchors = (
{
name = bottom;
pos = (780,0);
},
{
name = center;
pos = (780,700);
},
{
name = ogonek;
pos = (780,0);
},
{
name = top;
pos = (780,1400);
},
{
name = topleft;
pos = (40,1400);
},
{
name = topright;
pos = (1228,1196);
}
);
layerId = "19FA402B-9607-46D9-AAD6-815AECBA5B6B";
shapes = (
{
closed = 1;
nodes = (
(318,1136,o),
(345,1163,o),
(345,1196,cs),
(345,1229,o),
(318,1256,o),
(285,1256,cs),
(252,1256,o),
(225,1229,o),
(225,1196,cs),
(225,1163,o),
(252,1136,o),
(285,1136,cs)
);
},
{
closed = 1;
nodes = (
(1101,1280,o),
(1360,1021,o),
(1360,700,cs),
(1360,379,o),
(1101,120,o),
(780,120,cs),
(459,120,o),
(200,379,o),
(200,700,cs),
(200,733,o),
(173,760,o),
(140,760,cs),
(107,760,o),
(80,733,o),
(80,700,cs),
(80,313,o),
(393,0,o),
(780,0,cs),
(1167,0,o),
(1480,313,o),
(1480,700,cs),
(1480,1087,o),
(1167,1400,o),
(780,1400,cs),
(747,1400,o),
(720,1373,o),
(720,1340,cs),
(720,1307,o),
(747,1280,o),
(780,1280,cs)
);
}
);
width = 1560;
},
{
anchors = (
{
name = bottom;
pos = (820,0);
},
{
name = center;
pos = (820,700);
},
{
name = ogonek;
pos = (1476,10);
},
{
name = top;
pos = (820,1400);
},
{
name = topleft;
pos = (20,1400);
},
{
name = topright;
pos = (1218,1166);
}
);
layerId = "FF87E3F2-B049-41CB-BF2F-09DB15105515";
shapes = (
{
closed = 1;
nodes = (
(473,978,o),
(540,1045,o),
(540,1128,cs),
(540,1211,o),
(473,1278,o),
(390,1278,cs),
(307,1278,o),
(240,1211,o),
(240,1128,cs),
(240,1045,o),
(307,978,o),
(390,978,cs)
);
},
{
closed = 1;
nodes = (
(1041,1100,o),
(1220,921,o),
(1220,700,cs),
(1220,479,o),
(1041,300,o),
(820,300,cs),
(599,300,o),
(420,479,o),
(420,700,cs),
(420,783,o),
(353,850,o),
(270,850,cs),
(187,850,o),
(120,783,o),
(120,700,cs),
(120,313,o),
(433,0,o),
(820,0,cs),
(1207,0,o),
(1520,313,o),
(1520,700,cs),
(1520,1087,o),
(1207,1400,o),
(820,1400,cs),
(737,1400,o),
(670,1333,o),
(670,1250,cs),
(670,1167,o),
(737,1100,o),
(820,1100,cs)
);
}
);
width = 1640;
}
);
unicode = (79,111);
},
{
color = 5;
glyphname = Oslash;
kernLeft = O;
kernRight = O;
lastChange = "2022-06-02 05:39:42 +0000";
layers = (
{
layerId = m01;
shapes = (
{
closed = 1;
nodes = (
(127,0,o),
(133,3,o),
(138,7,c),
(1426,1357,ls),
(1430,1362,o),
(1432,1368,o),
(1432,1375,cs),
(1432,1389,o),
(1421,1400,o),
(1407,1400,cs),
(1401,1400,o),
(1395,1397,o),
(1390,1393,c),
(102,43,ls),
(98,38,o),
(96,32,o),
(96,25,cs),
(96,11,o),
(107,0,o),
(121,0,cs)
);
},
{
closed = 1;
nodes = (
(150,437,o),
(161,455,o),
(155,470,cs),
(128,543,o),
(113,621,o),
(113,700,cs),
(113,1049,o),
(397,1350,o),
(764,1350,cs),
(840,1350,o),
(917,1337,o),
(992,1308,cs),
(1007,1302,o),
(1026,1313,o),
(1026,1331,cs),
(1026,1342,o),
(1019,1351,o),
(1010,1355,cs),
(929,1385,o),
(845,1400,o),
(764,1400,cs),
(369,1400,o),
(63,1076,o),
(63,700,cs),
(63,616,o),
(79,531,o),
(108,453,cs),
(112,443,o),
(121,437,o),
(132,437,cs)
);
},
{
closed = 1;
nodes = (
(1159,0,o),
(1465,324,o),
(1465,700,cs),
(1465,784,o),
(1449,869,o),
(1420,947,cs),
(1416,957,o),
(1407,963,o),
(1396,963,cs),
(1378,963,o),
(1367,945,o),
(1373,930,cs),
(1400,857,o),
(1415,779,o),
(1415,700,cs),
(1415,351,o),
(1131,50,o),
(764,50,cs),
(688,50,o),
(611,63,o),
(536,92,cs),
(521,98,o),
(502,87,o),
(502,69,cs),
(502,58,o),
(509,49,o),
(518,45,cs),
(599,15,o),
(683,0,o),
(764,0,cs)
);
}
);
width = 1528;
},
{
layerId = "19FA402B-9607-46D9-AAD6-815AECBA5B6B";
shapes = (
{
closed = 1;
nodes = (
(138,0,o),
(153,7,o),
(163,18,cs),
(1443,1297,ls),
(1454,1308,o),
(1461,1323,o),
(1461,1340,cs),
(1461,1373,o),
(1434,1400,o),
(1401,1400,cs),
(1384,1400,o),
(1369,1393,o),
(1358,1382,cs),
(79,102,ls),
(68,92,o),
(61,77,o),
(61,60,cs),
(61,27,o),
(88,0,o),
(121,0,cs)
);
},
{
closed = 1;
nodes = (
(190,446,o),
(219,485,o),
(206,524,cs),
(188,581,o),
(178,641,o),
(178,701,cs),
(178,1008,o),
(428,1280,o),
(759,1280,cs),
(818,1280,o),
(878,1271,o),
(936,1253,cs),
(974,1241,o),
(1014,1270,o),
(1014,1310,cs),
(1014,1337,o),
(996,1359,o),
(972,1367,cs),
(902,1389,o),
(830,1400,o),
(759,1400,cs),
(359,1400,o),
(58,1071,o),
(58,701,cs),
(58,628,o),
(70,556,o),
(92,487,cs),
(100,463,o),
(122,446,o),
(149,446,cs)
);
},
{
closed = 1;
nodes = (
(1162,0,o),
(1463,329,o),
(1463,699,cs),
(1463,772,o),
(1451,844,o),
(1429,913,cs),
(1421,937,o),
(1399,954,o),
(1372,954,cs),
(1331,954,o),
(1302,915,o),
(1315,876,cs),
(1333,819,o),
(1343,759,o),
(1343,699,cs),
(1343,392,o),
(1093,120,o),
(762,120,cs),
(703,120,o),
(643,129,o),
(585,147,cs),
(547,159,o),
(507,130,o),
(507,90,cs),
(507,63,o),
(525,41,o),
(549,33,cs),
(619,11,o),
(691,0,o),
(762,0,cs)
);
}
);
width = 1521;
},
{
layerId = "FF87E3F2-B049-41CB-BF2F-09DB15105515";
shapes = (
{
closed = 1;
nodes = (
(300,0,o),
(335,16,o),
(360,41,cs),
(1479,1161,ls),
(1504,1186,o),
(1520,1221,o),
(1520,1260,cs),
(1520,1337,o),
(1457,1400,o),
(1380,1400,cs),
(1342,1400,o),
(1307,1384,o),
(1282,1360,cs),
(162,239,ls),
(137,214,o),
(121,179,o),
(121,140,cs),
(121,63,o),
(184,0,o),
(261,0,cs)
);
},
{
closed = 1;
nodes = (
(371,468,o),
(438,552,o),
(425,640,cs),
(422,659,o),
(421,679,o),
(421,699,cs),
(421,914,o),
(595,1099,o),
(821,1099,cs),
(841,1099,o),
(861,1098,o),
(881,1095,cs),
(969,1082,o),
(1052,1149,o),
(1052,1243,cs),
(1052,1319,o),
(997,1381,o),
(924,1392,cs),
(890,1397,o),
(855,1399,o),
(821,1399,cs),
(427,1399,o),
(121,1077,o),
(121,699,cs),
(121,665,o),
(124,630,o),
(128,596,cs),
(139,524,o),
(201,468,o),
(277,468,cs)
);
},
{
closed = 1;
nodes = (
(1215,1,o),
(1521,323,o),
(1521,701,cs),
(1521,735,o),
(1518,770,o),
(1514,804,cs),
(1503,876,o),
(1441,932,o),
(1365,932,cs),
(1271,932,o),
(1204,848,o),
(1217,760,cs),
(1220,741,o),
(1221,721,o),
(1221,701,cs),
(1221,486,o),
(1047,301,o),
(821,301,cs),
(801,301,o),
(781,302,o),
(761,305,cs),
(673,318,o),
(590,251,o),
(590,157,cs),
(590,81,o),
(645,19,o),
(718,8,cs),
(752,3,o),
(787,1,o),
(821,1,cs)
);
}
);
width = 1642;
}
);
unicode = (216,248);
},
{
color = 5;
glyphname = OE;
kernLeft = O;
kernRight = E;
lastChange = "2022-06-03 00:46:04 +0000";
layers = (
{
layerId = m01;
shapes = (
{
closed = 1;
nodes = (
(970,50,ls),
(956,50,o),
(945,39,o),
(945,25,cs),
(945,11,o),
(956,0,o),
(970,0,cs),
(1643,0,ls),
(1656,0,o),
(1668,11,o),
(1668,25,cs),
(1668,39,o),
(1656,50,o),
(1643,50,cs)
);
},
{
closed = 1;
nodes = (
(995,736,ls),
(995,749,o),
(984,761,o),
(970,761,cs),
(956,761,o),
(945,749,o),
(945,736,cs),
(945,28,l),
(995,28,l)
);
},
{
closed = 1;
nodes = (
(405,50,o),
(114,341,o),
(114,700,cs),
(114,1059,o),
(405,1350,o),
(764,1350,cs),
(1643,1350,ls),
(1656,1350,o),
(1668,1361,o),
(1668,1375,cs),
(1668,1389,o),
(1656,1400,o),
(1643,1400,cs),
(764,1400,ls),
(377,1400,o),
(64,1087,o),
(64,700,cs),
(64,313,o),
(377,0,o),
(764,0,cs),
(778,0,o),
(789,11,o),
(789,25,cs),
(789,39,o),
(778,50,o),
(764,50,cs)
);
},
{
closed = 1;
nodes = (
(1643,675,ls),
(1656,675,o),
(1668,686,o),
(1668,700,cs),
(1668,714,o),
(1656,725,o),
(1643,725,cs),
(1266,725,ls),
(1252,725,o),
(1241,714,o),
(1241,700,cs),
(1241,686,o),
(1252,675,o),
(1266,675,cs)
);
}
);
width = 1738;
},
{
layerId = "19FA402B-9607-46D9-AAD6-815AECBA5B6B";
shapes = (
{
closed = 1;
nodes = (
(1036,120,ls),
(1003,120,o),
(976,93,o),
(976,60,cs),
(976,27,o),
(1003,0,o),
(1036,0,cs),
(1679,0,ls),
(1712,0,o),
(1739,27,o),
(1739,60,cs),
(1739,93,o),
(1712,120,o),
(1679,120,cs)
);
},
{
closed = 1;
nodes = (
(1096,706,ls),
(1096,739,o),
(1069,766,o),
(1036,766,cs),
(1003,766,o),
(976,739,o),
(976,706,cs),
(976,60,l),
(1096,60,l)
);
},
{
closed = 1;
nodes = (
(459,120,o),
(200,379,o),
(200,700,cs),
(200,1021,o),
(459,1280,o),
(780,1280,cs),
(1679,1280,ls),
(1712,1280,o),
(1739,1307,o),
(1739,1340,cs),
(1739,1373,o),
(1712,1400,o),
(1679,1400,cs),
(780,1400,ls),
(393,1400,o),
(80,1087,o),
(80,700,cs),
(80,313,o),
(393,0,o),
(780,0,cs),
(813,0,o),
(840,27,o),
(840,60,cs),
(840,93,o),
(813,120,o),
(780,120,cs)
);
},
{
closed = 1;
nodes = (
(1678,640,ls),
(1711,640,o),
(1738,667,o),
(1738,700,cs),
(1738,733,o),
(1711,760,o),
(1678,760,cs),
(1363,760,ls),
(1330,760,o),
(1303,733,o),
(1303,700,cs),
(1303,667,o),
(1330,640,o),
(1363,640,cs)
);
}
);
width = 1819;
},
{
layerId = "FF87E3F2-B049-41CB-BF2F-09DB15105515";
shapes = (
{
closed = 1;
nodes = (
(1229,300,ls),
(1146,300,o),
(1079,233,o),
(1079,150,cs),
(1079,67,o),
(1146,0,o),
(1229,0,cs),
(1912,0,ls),
(1995,0,o),
(2062,67,o),
(2062,150,cs),
(2062,233,o),
(1995,300,o),
(1912,300,cs)
);
},
{
closed = 1;
nodes = (
(1379,705,ls),
(1379,788,o),
(1312,855,o),
(1229,855,cs),
(1146,855,o),
(1079,788,o),
(1079,705,cs),
(1079,140,l),
(1379,140,l)
);
},
{
closed = 1;
nodes = (
(598,301,o),
(420,479,o),
(420,700,cs),
(420,921,o),
(598,1099,o),
(819,1099,cs),
(1912,1099,ls),
(1995,1099,o),
(2062,1166,o),
(2062,1249,cs),
(2062,1332,o),
(1995,1399,o),
(1912,1399,cs),
(819,1399,ls),
(432,1399,o),
(120,1087,o),
(120,700,cs),
(120,313,o),
(432,1,o),
(819,1,cs),
(902,1,o),
(969,68,o),
(969,151,cs),
(969,234,o),
(902,301,o),
(819,301,cs)
);
},
{
closed = 1;
nodes = (
(1912,550,ls),
(1995,550,o),
(2062,617,o),
(2062,700,cs),
(2062,783,o),
(1995,850,o),
(1912,850,cs),
(1647,850,ls),
(1564,850,o),
(1497,783,o),
(1497,700,cs),
(1497,617,o),
(1564,550,o),
(1647,550,cs)
);
}
);
width = 2182;
}
);
metricLeft = O;
metricRight = E;
unicode = (338,339);
},
{
color = 4;
glyphname = P;
kernLeft = P;
kernRight = P;
lastChange = "2022-06-03 00:46:04 +0000";
layers = (
{
anchors = (
{
name = bottom;
pos = (575,0);
},
{
name = top;
pos = (575,1400);
}
);
layerId = m01;
shapes = (
{
closed = 1;
nodes = (
(136,661,ls),
(136,675,o),
(125,686,o),
(111,686,cs),
(97,686,o),
(86,675,o),
(86,661,cs),
(86,26,ls),
(86,12,o),
(97,1,o),
(111,1,cs),
(125,1,o),
(136,12,o),
(136,26,cs)
);
},
{
closed = 1;
nodes = (
(727,636,ls),
(938,636,o),
(1109,807,o),
(1109,1019,cs),
(1109,1230,o),
(937,1400,o),
(727,1400,cs),
(110,1400,ls),
(96,1400,o),
(85,1389,o),
(85,1375,cs),
(85,1361,o),
(96,1350,o),
(110,1350,cs),
(727,1350,ls),
(910,1350,o),
(1059,1202,o),
(1059,1019,cs),
(1059,835,o),
(910,686,o),
(727,686,cs),
(552,686,ls),
(538,686,o),
(527,675,o),
(527,661,cs),
(527,647,o),
(538,636,o),
(552,636,cs)
);
}
);
width = 1175;
},
{
anchors = (
{
name = bottom;
pos = (576,0);
},
{
name = top;
pos = (576,1400);
}
);
layerId = "19FA402B-9607-46D9-AAD6-815AECBA5B6B";
shapes = (
{
closed = 1;
nodes = (
(220,661,ls),
(220,694,o),
(193,721,o),
(160,721,cs),
(127,721,o),
(100,694,o),
(100,661,cs),
(100,60,ls),
(100,27,o),
(127,0,o),
(160,0,cs),
(193,0,o),
(220,27,o),
(220,60,cs)
);
},
{
closed = 1;
nodes = (
(704,605,ls),
(923,605,o),
(1101,783,o),
(1101,1003,cs),
(1101,1222,o),
(923,1400,o),
(704,1400,cs),
(160,1400,ls),
(127,1400,o),
(100,1373,o),
(100,1340,cs),
(100,1307,o),
(127,1280,o),
(160,1280,cs),
(704,1280,ls),
(857,1280,o),
(981,1156,o),
(981,1003,cs),
(981,849,o),
(857,725,o),
(704,725,cs),
(558,725,ls),
(525,725,o),
(498,698,o),
(498,665,cs),
(498,632,o),
(525,605,o),
(558,605,cs)
);
}
);
width = 1176;
},
{
anchors = (
{
name = bottom;
pos = (712,0);
},
{
name = top;
pos = (712,1400);
}
);
layerId = "FF87E3F2-B049-41CB-BF2F-09DB15105515";
shapes = (
{
closed = 1;
nodes = (
(450,661,ls),
(450,744,o),
(383,811,o),
(300,811,cs),
(217,811,o),
(150,744,o),
(150,661,cs),
(150,150,ls),
(150,67,o),
(217,0,o),
(300,0,cs),
(383,0,o),
(450,67,o),
(450,150,cs)
);
},
{
closed = 1;
nodes = (
(811,422,ls),
(1082,422,o),
(1300,640,o),
(1300,911,cs),
(1300,1181,o),
(1082,1400,o),
(811,1400,cs),
(300,1400,ls),
(217,1400,o),
(150,1333,o),
(150,1250,cs),
(150,1167,o),
(217,1100,o),
(300,1100,cs),
(811,1100,ls),
(916,1100,o),
(1000,1015,o),
(1000,911,cs),
(1000,806,o),
(916,722,o),
(811,722,cs),
(712,722,ls),
(629,722,o),
(562,655,o),
(562,572,cs),
(562,489,o),
(629,422,o),
(712,422,cs)
);
}
);
width = 1423;
}
);
metricLeft = H;
unicode = (80,112);
},
{
color = 5;
glyphname = Thorn;
kernLeft = I;
kernRight = THORN;
lastChange = "2022-06-03 00:46:04 +0000";
layers = (
{
layerId = m01;
shapes = (
{
closed = 1;
nodes = (
(135,345,ls),
(135,359,o),
(124,370,o),
(110,370,cs),
(96,370,o),
(85,359,o),
(85,345,cs),
(85,29,ls),
(85,15,o),
(96,4,o),
(110,4,cs),
(124,4,o),
(135,15,o),
(135,29,cs)
);
},
{
closed = 1;
nodes = (
(85,687,ls),
(85,673,o),
(96,662,o),
(110,662,cs),
(124,662,o),
(135,673,o),
(135,687,cs),
(135,1372,ls),
(135,1385,o),
(124,1397,o),
(110,1397,cs),
(96,1397,o),
(85,1385,o),
(85,1372,cs)
);
},
{
closed = 1;
nodes = (
(593,320,ls),
(803,320,o),
(975,490,o),
(975,701,cs),
(975,913,o),
(804,1084,o),
(593,1084,cs),
(378,1084,ls),
(364,1084,o),
(353,1073,o),
(353,1059,cs),
(353,1045,o),
(364,1034,o),
(378,1034,cs),
(593,1034,ls),
(776,1034,o),
(925,885,o),
(925,701,cs),
(925,518,o),
(776,370,o),
(593,370,cs),
(110,370,ls),
(96,370,o),
(85,359,o),
(85,345,cs),
(85,331,o),
(96,320,o),
(110,320,cs)
);
}
);
width = 1041;
},
{
layerId = "19FA402B-9607-46D9-AAD6-815AECBA5B6B";
shapes = (
{
closed = 1;
nodes = (
(220,363,ls),
(220,396,o),
(193,423,o),
(160,423,cs),
(127,423,o),
(100,396,o),
(100,363,cs),
(100,60,ls),
(100,27,o),
(127,0,o),
(160,0,cs),
(193,0,o),
(220,27,o),
(220,60,cs)
);
},
{
closed = 1;
nodes = (
(100,717,ls),
(100,684,o),
(127,657,o),
(160,657,cs),
(193,657,o),
(220,684,o),
(220,717,cs),
(220,1340,ls),
(220,1373,o),
(193,1400,o),
(160,1400,cs),
(127,1400,o),
(100,1373,o),
(100,1340,cs)
);
},
{
closed = 1;
nodes = (
(658,303,ls),
(877,303,o),
(1055,481,o),
(1055,701,cs),
(1055,920,o),
(877,1098,o),
(658,1098,cs),
(500,1098,ls),
(467,1098,o),
(440,1071,o),
(440,1038,cs),
(440,1005,o),
(467,978,o),
(500,978,cs),
(658,978,ls),
(811,978,o),
(935,854,o),
(935,701,cs),
(935,547,o),
(811,423,o),
(658,423,cs),
(160,423,ls),
(127,423,o),
(100,396,o),
(100,363,cs),
(100,330,o),
(127,303,o),
(160,303,cs)
);
}
);
width = 1130;
},
{
layerId = "FF87E3F2-B049-41CB-BF2F-09DB15105515";
shapes = (
{
closed = 1;
nodes = (
(450,362,ls),
(450,445,o),
(383,512,o),
(300,512,cs),
(217,512,o),
(150,445,o),
(150,362,cs),
(150,141,ls),
(150,58,o),
(217,-9,o),
(300,-9,cs),
(383,-9,o),
(450,58,o),
(450,141,cs)
);
},
{
closed = 1;
nodes = (
(150,797,ls),
(150,714,o),
(217,647,o),
(300,647,cs),
(383,647,o),
(450,714,o),
(450,797,cs),
(450,1259,ls),
(450,1342,o),
(383,1409,o),
(300,1409,cs),
(217,1409,o),
(150,1342,o),
(150,1259,cs)
);
},
{
closed = 1;
nodes = (
(786,212,ls),
(1057,212,o),
(1275,431,o),
(1275,701,cs),
(1275,972,o),
(1057,1190,o),
(786,1190,cs),
(717,1190,ls),
(634,1190,o),
(567,1123,o),
(567,1040,cs),
(567,957,o),
(634,890,o),
(717,890,cs),
(786,890,ls),
(891,890,o),
(975,806,o),
(975,701,cs),
(975,597,o),
(891,512,o),
(786,512,cs),
(300,512,ls),
(217,512,o),
(150,445,o),
(150,362,cs),
(150,279,o),
(217,212,o),
(300,212,cs)
);
}
);
width = 1398;
}
);
metricLeft = H;
metricRight = P;
unicode = (222,254);
},
{
color = 4;
glyphname = Q;
kernLeft = O;
kernRight = O;
lastChange = "2022-06-03 00:46:04 +0000";
layers = (
{
anchors = (
{
name = bottom;
pos = (764,0);
},
{
name = top;
pos = (764,1400);
}
);
layerId = m01;
shapes = (
{
closed = 1;
nodes = (
(983,516,l),
(978,520,o),
(972,523,o),
(965,523,cs),
(951,523,o),
(940,512,o),
(940,498,cs),
(940,491,o),
(943,485,o),
(947,480,c),
(1420,7,l),
(1425,3,o),
(1431,0,o),
(1438,0,cs),
(1452,0,o),
(1463,11,o),
(1463,25,cs),
(1463,32,o),
(1460,38,o),
(1456,43,c)
);
},
{
closed = 1;
nodes = (
(405,50,o),
(114,341,o),
(114,700,cs),
(114,1059,o),
(405,1350,o),
(764,1350,cs),
(1123,1350,o),
(1414,1059,o),
(1414,700,cs),
(1414,686,o),
(1425,675,o),
(1439,675,cs),
(1453,675,o),
(1464,686,o),
(1464,700,cs),
(1464,1087,o),
(1151,1400,o),
(764,1400,cs),
(377,1400,o),
(64,1087,o),
(64,700,cs),
(64,313,o),
(377,0,o),
(764,0,cs),
(778,0,o),
(789,11,o),
(789,25,cs),
(789,39,o),
(778,50,o),
(764,50,cs)
);
}
);
width = 1528;
},
{
anchors = (
{
name = bottom;
pos = (780,0);
},
{
name = top;
pos = (780,1400);
}
);
layerId = "19FA402B-9607-46D9-AAD6-815AECBA5B6B";
shapes = (
{
closed = 1;
nodes = (
(1046,518,ls),
(1035,529,o),
(1020,536,o),
(1003,536,cs),
(970,536,o),
(943,509,o),
(943,476,cs),
(943,459,o),
(950,444,o),
(961,433,cs),
(1377,18,ls),
(1387,7,o),
(1402,0,o),
(1419,0,cs),
(1452,0,o),
(1479,27,o),
(1479,60,cs),
(1479,77,o),
(1472,92,o),
(1461,102,cs)
);
},
{
closed = 1;
nodes = (
(459,120,o),
(200,379,o),
(200,700,cs),
(200,1021,o),
(459,1280,o),
(780,1280,cs),
(1101,1280,o),
(1360,1021,o),
(1360,700,cs),
(1360,667,o),
(1387,640,o),
(1420,640,cs),
(1453,640,o),
(1480,667,o),
(1480,700,cs),
(1480,1087,o),
(1167,1400,o),
(780,1400,cs),
(393,1400,o),
(80,1087,o),
(80,700,cs),
(80,313,o),
(393,0,o),
(780,0,cs),
(813,0,o),
(840,27,o),
(840,60,cs),
(840,93,o),
(813,120,o),
(780,120,cs)
);
}
);
width = 1560;
},
{
anchors = (
{
name = bottom;
pos = (820,0);
},
{
name = top;
pos = (820,1400);
}
);
layerId = "FF87E3F2-B049-41CB-BF2F-09DB15105515";
shapes = (
{
closed = 1;
nodes = (
(1176,554,ls),
(1149,582,o),
(1111,599,o),
(1069,599,cs),
(987,599,o),
(919,531,o),
(919,449,cs),
(919,407,o),
(936,370,o),
(963,343,cs),
(1261,45,ls),
(1288,18,o),
(1326,1,o),
(1367,1,cs),
(1450,1,o),
(1517,68,o),
(1517,151,cs),
(1517,192,o),
(1500,230,o),
(1473,257,cs)
);
},
{
closed = 1;
nodes = (
(599,300,o),
(420,479,o),
(420,700,cs),
(420,921,o),
(599,1100,o),
(820,1100,cs),
(1041,1100,o),
(1220,921,o),
(1220,700,cs),
(1220,617,o),
(1287,550,o),
(1370,550,cs),
(1453,550,o),
(1520,617,o),
(1520,700,cs),
(1520,1087,o),
(1207,1400,o),
(820,1400,cs),
(433,1400,o),
(120,1087,o),
(120,700,cs),
(120,313,o),
(433,0,o),
(820,0,cs),
(903,0,o),
(970,67,o),
(970,150,cs),
(970,233,o),
(903,300,o),
(820,300,cs)
);
}
);
width = 1640;
}
);
metricLeft = O;
metricRight = O;
unicode = (81,113);
},
{
color = 4;
glyphname = R;
kernLeft = P;
kernRight = R;
lastChange = "2022-06-03 00:46:04 +0000";
layers = (
{
anchors = (
{
name = bottom;
pos = (543,0);
},
{
name = top;
pos = (543,1400);
}
);
layerId = m01;
shapes = (
{
closed = 1;
nodes = (
(137,700,ls),
(137,714,o),
(126,725,o),
(112,725,cs),
(98,725,o),
(87,714,o),
(87,700,cs),
(87,26,ls),
(87,12,o),
(98,1,o),
(112,1,cs),
(126,1,o),
(137,12,o),
(137,26,cs)
);
},
{
closed = 1;
nodes = (
(562,676,ls),
(557,682,o),
(550,686,o),
(542,686,cs),
(528,686,o),
(517,675,o),
(517,661,cs),
(517,655,o),
(519,650,o),
(522,646,cs),
(1006,10,ls),
(1010,4,o),
(1017,0,o),
(1025,0,cs),
(1039,0,o),
(1050,11,o),
(1050,25,cs),
(1050,31,o),
(1048,36,o),
(1045,40,cs)
);
},
{
closed = 1;
nodes = (
(628,636,ls),
(839,636,o),
(1010,807,o),
(1010,1019,cs),
(1010,1230,o),
(838,1400,o),
(628,1400,cs),
(110,1400,ls),
(96,1400,o),
(85,1389,o),
(85,1375,cs),
(85,1361,o),
(96,1350,o),
(110,1350,cs),
(628,1350,ls),
(811,1350,o),
(960,1202,o),
(960,1019,cs),
(960,835,o),
(811,686,o),
(628,686,cs),
(542,686,ls),
(528,686,o),
(517,675,o),
(517,661,cs),
(517,647,o),
(528,636,o),
(542,636,cs)
);
}
);
width = 1110;
},
{
anchors = (
{
name = bottom;
pos = (579,0);
},
{
name = top;
pos = (579,1400);
}
);
layerId = "19FA402B-9607-46D9-AAD6-815AECBA5B6B";
shapes = (
{
closed = 1;
nodes = (
(236,661,ls),
(236,694,o),
(209,721,o),
(176,721,cs),
(143,721,o),
(116,694,o),
(116,661,cs),
(116,60,ls),
(116,27,o),
(143,0,o),
(176,0,cs),
(209,0,o),
(236,27,o),
(236,60,cs)
);
},
{
closed = 1;
nodes = (
(619,700,ls),
(608,715,o),
(591,724,o),
(571,724,cs),
(538,724,o),
(511,697,o),
(511,664,cs),
(511,650,o),
(516,638,o),
(523,628,cs),
(981,23,ls),
(992,9,o),
(1009,0,o),
(1028,0,cs),
(1062,0,o),
(1088,27,o),
(1088,60,cs),
(1088,74,o),
(1084,87,o),
(1076,97,cs)
);
},
{
closed = 1;
nodes = (
(654,605,ls),
(873,605,o),
(1051,783,o),
(1051,1003,cs),
(1051,1222,o),
(873,1400,o),
(654,1400,cs),
(160,1400,ls),
(127,1400,o),
(100,1373,o),
(100,1340,cs),
(100,1307,o),
(127,1280,o),
(160,1280,cs),
(654,1280,ls),
(807,1280,o),
(931,1156,o),
(931,1003,cs),
(931,849,o),
(807,725,o),
(654,725,cs),
(571,725,ls),
(538,725,o),
(511,698,o),
(511,665,cs),
(511,632,o),
(538,605,o),
(571,605,cs)
);
}
);
width = 1158;
},
{
anchors = (
{
name = bottom;
pos = (705,0);
},
{
name = top;
pos = (705,1400);
}
);
layerId = "FF87E3F2-B049-41CB-BF2F-09DB15105515";
shapes = (
{
closed = 1;
nodes = (
(450,661,ls),
(450,744,o),
(383,811,o),
(300,811,cs),
(217,811,o),
(150,744,o),
(150,661,cs),
(150,150,ls),
(150,67,o),
(217,0,o),
(300,0,cs),
(383,0,o),
(450,67,o),
(450,150,cs)
);
},
{
closed = 1;
nodes = (
(815,681,ls),
(789,706,o),
(752,722,o),
(712,722,cs),
(629,722,o),
(562,655,o),
(562,572,cs),
(562,529,o),
(580,491,o),
(609,463,cs),
(1056,37,ls),
(1083,11,o),
(1120,-5,o),
(1160,-5,cs),
(1243,-5,o),
(1310,62,o),
(1310,145,cs),
(1310,188,o),
(1292,226,o),
(1264,253,cs)
);
},
{
closed = 1;
nodes = (
(811,422,ls),
(1082,422,o),
(1300,640,o),
(1300,911,cs),
(1300,1181,o),
(1082,1400,o),
(811,1400,cs),
(300,1400,ls),
(217,1400,o),
(150,1333,o),
(150,1250,cs),
(150,1167,o),
(217,1100,o),
(300,1100,cs),
(811,1100,ls),
(916,1100,o),
(1000,1015,o),
(1000,911,cs),
(1000,806,o),
(916,722,o),
(811,722,cs),
(712,722,ls),
(629,722,o),
(562,655,o),
(562,572,cs),
(562,489,o),
(629,422,o),
(712,422,cs)
);
}
);
width = 1410;
}
);
metricLeft = H;
metricRight = K;
unicode = (82,114);
},
{
color = 4;
glyphname = S;
kernLeft = S;
kernRight = S;
lastChange = "2022-06-03 00:46:04 +0000";
layers = (
{
anchors = (
{
name = bottom;
pos = (544,0);
},
{
name = top;
pos = (544,1400);
}
);
layerId = m01;
shapes = (
{
closed = 1;
nodes = (
(966,164,o),
(852,50,o),
(711,50,cs),
(95,50,ls),
(81,50,o),
(70,39,o),
(70,25,cs),
(70,11,o),
(81,0,o),
(95,0,cs),
(711,0,ls),
(880,0,o),
(1016,136,o),
(1016,305,cs),
(1016,319,o),
(1005,330,o),
(991,330,cs),
(977,330,o),
(966,319,o),
(966,305,cs)
);
},
{
closed = 1;
nodes = (
(435,725,ls),
(421,725,o),
(410,714,o),
(410,700,cs),
(410,686,o),
(421,675,o),
(435,675,cs),
(652,675,ls),
(666,675,o),
(677,686,o),
(677,700,cs),
(677,714,o),
(666,725,o),
(652,725,cs)
);
},
{
closed = 1;
nodes = (
(121,1236,o),
(235,1350,o),
(376,1350,cs),
(993,1350,ls),
(1006,1350,o),
(1018,1361,o),
(1018,1375,cs),
(1018,1389,o),
(1006,1400,o),
(993,1400,cs),
(376,1400,ls),
(207,1400,o),
(71,1264,o),
(71,1095,cs),
(71,1081,o),
(82,1070,o),
(96,1070,cs),
(110,1070,o),
(121,1081,o),
(121,1095,cs)
);
}
);
width = 1088;
},
{
anchors = (
{
name = bottom;
pos = (523,0);
},
{
name = top;
pos = (583,1400);
}
);
layerId = "19FA402B-9607-46D9-AAD6-815AECBA5B6B";
shapes = (
{
closed = 1;
nodes = (
(960,222,o),
(858,120,o),
(732,120,cs),
(140,120,ls),
(107,120,o),
(80,93,o),
(80,60,cs),
(80,27,o),
(107,0,o),
(140,0,cs),
(732,0,ls),
(924,0,o),
(1080,156,o),
(1080,348,cs),
(1080,381,o),
(1053,408,o),
(1020,408,cs),
(987,408,o),
(960,381,o),
(960,348,cs)
);
},
{
closed = 1;
nodes = (
(475,760,ls),
(442,760,o),
(415,733,o),
(415,700,cs),
(415,667,o),
(442,640,o),
(475,640,cs),
(692,640,ls),
(725,640,o),
(752,667,o),
(752,700,cs),
(752,733,o),
(725,760,o),
(692,760,cs)
);
},
{
closed = 1;
nodes = (
(206,1178,o),
(308,1280,o),
(434,1280,cs),
(1026,1280,ls),
(1059,1280,o),
(1086,1307,o),
(1086,1340,cs),
(1086,1373,o),
(1059,1400,o),
(1026,1400,cs),
(434,1400,ls),
(242,1400,o),
(86,1244,o),
(86,1052,cs),
(86,1019,o),
(113,992,o),
(146,992,cs),
(179,992,o),
(206,1019,o),
(206,1052,cs)
);
}
);
width = 1166;
},
{
anchors = (
{
name = bottom;
pos = (617,0);
},
{
name = top;
pos = (617,1400);
}
);
layerId = "FF87E3F2-B049-41CB-BF2F-09DB15105515";
shapes = (
{
closed = 1;
nodes = (
(873,379,o),
(794,300,o),
(696,300,cs),
(255,300,ls),
(172,300,o),
(105,233,o),
(105,150,cs),
(105,67,o),
(172,0,o),
(255,0,cs),
(696,0,ls),
(960,0,o),
(1173,213,o),
(1173,476,cs),
(1173,559,o),
(1106,626,o),
(1023,626,cs),
(940,626,o),
(873,559,o),
(873,476,cs)
);
},
{
closed = 1;
nodes = (
(562,850,ls),
(479,850,o),
(412,783,o),
(412,700,cs),
(412,617,o),
(479,550,o),
(562,550,cs),
(671,550,ls),
(754,550,o),
(821,617,o),
(821,700,cs),
(821,783,o),
(754,850,o),
(671,850,cs)
);
},
{
closed = 1;
nodes = (
(360,1021,o),
(439,1100,o),
(537,1100,cs),
(978,1100,ls),
(1061,1100,o),
(1128,1167,o),
(1128,1250,cs),
(1128,1333,o),
(1061,1400,o),
(978,1400,cs),
(537,1400,ls),
(273,1400,o),
(60,1187,o),
(60,924,cs),
(60,841,o),
(127,774,o),
(210,774,cs),
(293,774,o),
(360,841,o),
(360,924,cs)
);
}
);
width = 1233;
}
);
unicode = (83,115);
},
{
color = 5;
glyphname = Saltillo;
kernLeft = I;
kernRight = I;
lastChange = "2022-06-03 00:46:04 +0000";
layers = (
{
layerId = m01;
shapes = (
{
closed = 1;
nodes = (
(85,994,ls),
(85,980,o),
(96,969,o),
(110,969,cs),
(124,969,o),
(135,980,o),
(135,994,cs),
(135,1572,ls),
(135,1585,o),
(124,1597,o),
(110,1597,cs),
(96,1597,o),
(85,1585,o),
(85,1572,cs)
);
}
);
width = 220;
},
{
layerId = "19FA402B-9607-46D9-AAD6-815AECBA5B6B";
shapes = (
{
closed = 1;
nodes = (
(100,1025,ls),
(100,992,o),
(127,965,o),
(160,965,cs),
(193,965,o),
(220,992,o),
(220,1025,cs),
(220,1540,ls),
(220,1573,o),
(193,1600,o),
(160,1600,cs),
(127,1600,o),
(100,1573,o),
(100,1540,cs)
);
}
);
width = 320;
},
{
layerId = "FF87E3F2-B049-41CB-BF2F-09DB15105515";
shapes = (
{
closed = 1;
nodes = (
(150,1045,ls),
(150,962,o),
(217,895,o),
(300,895,cs),
(383,895,o),
(450,962,o),
(450,1045,cs),
(450,1520,ls),
(450,1603,o),
(383,1670,o),
(300,1670,cs),
(217,1670,o),
(150,1603,o),
(150,1520,cs)
);
}
);
width = 600;
}
);
unicode = (42891,42892);
},
{
color = 5;
glyphname = Germandbls;
kernLeft = I;
kernRight = SZ;
lastChange = "2022-06-03 00:46:04 +0000";
layers = (
{
layerId = m01;
shapes = (
{
closed = 1;
nodes = (
(135,1374,l),
(85,1374,l),
(85,26,ls),
(85,12,o),
(96,1,o),
(110,1,cs),
(124,1,o),
(135,12,o),
(135,26,cs)
);
},
{
closed = 1;
nodes = (
(691,675,ls),
(868,675,o),
(1004,539,o),
(1004,362,cs),
(1004,186,o),
(868,50,o),
(691,50,cs),
(334,50,ls),
(320,50,o),
(309,39,o),
(309,25,cs),
(309,11,o),
(320,0,o),
(334,0,cs),
(691,0,ls),
(892,0,o),
(1054,162,o),
(1054,362,cs),
(1054,563,o),
(892,725,o),
(691,725,cs),
(471,725,ls),
(457,725,o),
(446,714,o),
(446,700,cs),
(446,686,o),
(457,675,o),
(471,675,cs)
);
},
{
closed = 1;
nodes = (
(110,1400,ls),
(96,1400,o),
(85,1389,o),
(85,1375,cs),
(85,1361,o),
(96,1350,o),
(110,1350,cs),
(948,1350,ls),
(961,1350,o),
(973,1361,o),
(973,1375,cs),
(973,1389,o),
(961,1400,o),
(948,1400,cs)
);
},
{
closed = 1;
nodes = (
(625,977,ls),
(622,973,o),
(620,968,o),
(620,962,cs),
(620,948,o),
(631,937,o),
(645,937,cs),
(653,937,o),
(661,941,o),
(665,947,cs),
(967,1360,ls),
(970,1364,o),
(972,1369,o),
(972,1375,cs),
(972,1389,o),
(961,1400,o),
(947,1400,cs),
(939,1400,o),
(931,1396,o),
(927,1390,cs)
);
}
);
width = 1097;
},
{
layerId = "19FA402B-9607-46D9-AAD6-815AECBA5B6B";
shapes = (
{
closed = 1;
nodes = (
(220,1336,l),
(100,1336,l),
(100,54,ls),
(100,21,o),
(127,-6,o),
(160,-6,cs),
(193,-6,o),
(220,21,o),
(220,54,cs)
);
},
{
closed = 1;
nodes = (
(740,640,ls),
(892,640,o),
(1000,532,o),
(1000,380,cs),
(1000,228,o),
(892,120,o),
(740,120,cs),
(434,120,ls),
(401,120,o),
(374,93,o),
(374,60,cs),
(374,27,o),
(401,0,o),
(434,0,cs),
(740,0,ls),
(950,0,o),
(1120,170,o),
(1120,380,cs),
(1120,590,o),
(950,760,o),
(740,760,cs),
(564,760,ls),
(531,760,o),
(504,733,o),
(504,700,cs),
(504,667,o),
(531,640,o),
(564,640,cs)
);
},
{
closed = 1;
nodes = (
(160,1400,ls),
(127,1400,o),
(100,1373,o),
(100,1340,cs),
(100,1307,o),
(127,1280,o),
(160,1280,cs),
(946,1280,ls),
(979,1280,o),
(1006,1307,o),
(1006,1340,cs),
(1006,1373,o),
(979,1400,o),
(946,1400,cs)
);
},
{
closed = 1;
nodes = (
(693,1078,ls),
(686,1068,o),
(682,1057,o),
(682,1044,cs),
(682,1011,o),
(709,984,o),
(742,984,cs),
(762,984,o),
(780,994,o),
(791,1010,cs),
(990,1297,ls),
(997,1307,o),
(1001,1319,o),
(1001,1332,cs),
(1001,1365,o),
(974,1392,o),
(941,1392,cs),
(921,1392,o),
(903,1382,o),
(892,1366,cs)
);
}
);
width = 1170;
},
{
layerId = "FF87E3F2-B049-41CB-BF2F-09DB15105515";
shapes = (
{
closed = 1;
nodes = (
(450,1246,l),
(150,1246,l),
(150,150,ls),
(150,67,o),
(217,0,o),
(300,0,cs),
(383,0,o),
(450,67,o),
(450,150,cs)
);
},
{
closed = 1;
nodes = (
(950,488,ls),
(1002,488,o),
(1044,446,o),
(1044,394,cs),
(1044,342,o),
(1002,300,o),
(950,300,cs),
(661,300,ls),
(578,300,o),
(511,233,o),
(511,150,cs),
(511,67,o),
(578,0,o),
(661,0,cs),
(950,0,ls),
(1168,0,o),
(1344,176,o),
(1344,394,cs),
(1344,612,o),
(1168,788,o),
(950,788,cs),
(826,788,ls),
(743,788,o),
(676,721,o),
(676,638,cs),
(676,555,o),
(743,488,o),
(826,488,cs)
);
},
{
closed = 1;
nodes = (
(300,1400,ls),
(217,1400,o),
(150,1333,o),
(150,1250,cs),
(150,1167,o),
(217,1100,o),
(300,1100,cs),
(1115,1100,ls),
(1198,1100,o),
(1265,1167,o),
(1265,1250,cs),
(1265,1333,o),
(1198,1400,o),
(1115,1400,cs)
);
},
{
closed = 1;
nodes = (
(807,1080,ls),
(789,1055,o),
(778,1025,o),
(778,992,cs),
(778,909,o),
(845,842,o),
(928,842,cs),
(978,842,o),
(1022,866,o),
(1049,904,cs),
(1235,1160,ls),
(1254,1185,o),
(1265,1216,o),
(1265,1250,cs),
(1265,1333,o),
(1198,1400,o),
(1115,1400,cs),
(1065,1400,o),
(1022,1376,o),
(994,1339,cs)
);
}
);
width = 1419;
}
);
metricLeft = H;
metricRight = B;
unicode = (7838,223);
},
{
color = 4;
glyphname = T;
kernLeft = T;
kernRight = T;
lastChange = "2022-06-03 00:46:04 +0000";
layers = (
{
anchors = (
{
name = bottom;
pos = (542,0);
},
{
name = center;
pos = (612,700);
},
{
name = top;
pos = (612,1400);
}
);
layerId = m01;
shapes = (
{
closed = 1;
nodes = (
(586,26,ls),
(586,12,o),
(597,1,o),
(611,1,cs),
(625,1,o),
(636,12,o),
(636,26,cs),
(636,1375,l),
(586,1375,l)
);
},
{
closed = 1;
nodes = (
(611,1350,ls),
(624,1350,o),
(636,1361,o),
(636,1375,cs),
(636,1389,o),
(624,1400,o),
(611,1400,cs),
(85,1400,ls),
(71,1400,o),
(60,1389,o),
(60,1375,cs),
(60,1361,o),
(71,1350,o),
(85,1350,cs)
);
},
{
closed = 1;
nodes = (
(1138,1350,ls),
(1151,1350,o),
(1163,1361,o),
(1163,1375,cs),
(1163,1389,o),
(1151,1400,o),
(1138,1400,cs),
(870,1400,ls),
(856,1400,o),
(845,1389,o),
(845,1375,cs),
(845,1361,o),
(856,1350,o),
(870,1350,cs)
);
}
);
width = 1223;
},
{
anchors = (
{
name = bottom;
pos = (565,0);
},
{
name = center;
pos = (625,700);
},
{
name = top;
pos = (625,1400);
}
);
layerId = "19FA402B-9607-46D9-AAD6-815AECBA5B6B";
shapes = (
{
closed = 1;
nodes = (
(565,60,ls),
(565,27,o),
(592,0,o),
(625,0,cs),
(658,0,o),
(685,27,o),
(685,60,cs),
(685,1346,l),
(565,1346,l)
);
},
{
closed = 1;
nodes = (
(625,1280,ls),
(658,1280,o),
(685,1307,o),
(685,1340,cs),
(685,1373,o),
(658,1400,o),
(625,1400,cs),
(130,1400,ls),
(97,1400,o),
(70,1373,o),
(70,1340,cs),
(70,1307,o),
(97,1280,o),
(130,1280,cs)
);
},
{
closed = 1;
nodes = (
(1120,1280,ls),
(1153,1280,o),
(1180,1307,o),
(1180,1340,cs),
(1180,1373,o),
(1153,1400,o),
(1120,1400,cs),
(915,1400,ls),
(882,1400,o),
(855,1373,o),
(855,1340,cs),
(855,1307,o),
(882,1280,o),
(915,1280,cs)
);
}
);
width = 1250;
},
{
anchors = (
{
name = bottom;
pos = (634,0);
},
{
name = center;
pos = (684,700);
},
{
name = top;
pos = (684,1400);
}
);
layerId = "FF87E3F2-B049-41CB-BF2F-09DB15105515";
shapes = (
{
closed = 1;
nodes = (
(534,150,ls),
(534,67,o),
(601,0,o),
(684,0,cs),
(767,0,o),
(834,67,o),
(834,150,cs),
(834,1246,l),
(534,1246,l)
);
},
{
closed = 1;
nodes = (
(684,1100,ls),
(767,1100,o),
(834,1167,o),
(834,1250,cs),
(834,1333,o),
(767,1400,o),
(684,1400,cs),
(250,1400,ls),
(167,1400,o),
(100,1333,o),
(100,1250,cs),
(100,1167,o),
(167,1100,o),
(250,1100,cs)
);
},
{
closed = 1;
nodes = (
(1118,1100,ls),
(1201,1100,o),
(1268,1167,o),
(1268,1250,cs),
(1268,1333,o),
(1201,1400,o),
(1118,1400,cs),
(1055,1400,ls),
(972,1400,o),
(905,1333,o),
(905,1250,cs),
(905,1167,o),
(972,1100,o),
(1055,1100,cs)
);
}
);
width = 1368;
}
);
metricLeft = A;
metricRight = A;
unicode = (84,116);
},
{
color = 4;
glyphname = U;
kernLeft = U;
kernRight = U;
lastChange = "2022-06-03 00:46:04 +0000";
layers = (
{
anchors = (
{
name = bottom;
pos = (583,0);
},
{
name = ogonek;
pos = (583,0);
},
{
name = top;
pos = (583,1400);
},
{
name = topright;
pos = (1030,1396);
}
);
layerId = m01;
shapes = (
{
closed = 1;
nodes = (
(135,1375,ls),
(135,1388,o),
(124,1400,o),
(110,1400,cs),
(96,1400,o),
(85,1388,o),
(85,1375,cs),
(85,899,ls),
(85,885,o),
(96,874,o),
(110,874,cs),
(124,874,o),
(135,885,o),
(135,899,cs)
);
},
{
closed = 1;
nodes = (
(1030,498,ls),
(1030,250,o),
(830,50,o),
(583,50,cs),
(342,50,o),
(147,239,o),
(135,477,cs),
(135,490,o),
(124,501,o),
(111,501,cs),
(96,501,o),
(85,487,o),
(86,474,cs),
(98,210,o),
(315,0,o),
(583,0,cs),
(858,0,o),
(1080,222,o),
(1080,498,cs),
(1080,1397,ls),
(1080,1411,o),
(1069,1422,o),
(1055,1422,cs),
(1041,1422,o),
(1030,1411,o),
(1030,1397,cs)
);
}
);
width = 1165;
},
{
anchors = (
{
name = bottom;
pos = (598,0);
},
{
name = ogonek;
pos = (628,2);
},
{
name = top;
pos = (598,1400);
},
{
name = topright;
pos = (977,1341);
}
);
layerId = "19FA402B-9607-46D9-AAD6-815AECBA5B6B";
shapes = (
{
closed = 1;
nodes = (
(220,1340,ls),
(220,1373,o),
(193,1400,o),
(160,1400,cs),
(127,1400,o),
(100,1373,o),
(100,1340,cs),
(100,899,ls),
(100,866,o),
(127,839,o),
(160,839,cs),
(193,839,o),
(220,866,o),
(220,899,cs)
);
},
{
closed = 1;
nodes = (
(976,498,ls),
(976,289,o),
(807,120,o),
(599,120,cs),
(390,120,o),
(221,289,o),
(221,498,cs),
(221,531,o),
(194,558,o),
(161,558,cs),
(128,558,o),
(101,531,o),
(101,498,cs),
(101,223,o),
(324,0,o),
(599,0,cs),
(873,0,o),
(1096,223,o),
(1096,498,cs),
(1096,1340,ls),
(1096,1373,o),
(1069,1400,o),
(1036,1400,cs),
(1003,1400,o),
(976,1373,o),
(976,1340,cs)
);
}
);
width = 1196;
},
{
anchors = (
{
name = bottom;
pos = (706,0);
},
{
name = ogonek;
pos = (706,0);
},
{
name = top;
pos = (706,1400);
},
{
name = topright;
pos = (961,1250);
}
);
layerId = "FF87E3F2-B049-41CB-BF2F-09DB15105515";
shapes = (
{
closed = 1;
nodes = (
(450,1250,ls),
(450,1333,o),
(383,1400,o),
(300,1400,cs),
(217,1400,o),
(150,1333,o),
(150,1250,cs),
(150,999,ls),
(150,916,o),
(217,849,o),
(300,849,cs),
(383,849,o),
(450,916,o),
(450,999,cs)
);
},
{
closed = 1;
nodes = (
(961,555,ls),
(961,414,o),
(846,300,o),
(706,300,cs),
(565,300,o),
(450,414,o),
(450,555,cs),
(450,638,o),
(383,705,o),
(300,705,cs),
(217,705,o),
(150,638,o),
(150,555,cs),
(150,246,o),
(402,0,o),
(706,0,cs),
(1009,0,o),
(1261,246,o),
(1261,555,cs),
(1261,1250,ls),
(1261,1333,o),
(1194,1400,o),
(1111,1400,cs),
(1028,1400,o),
(961,1333,o),
(961,1250,cs)
);
}
);
width = 1411;
}
);
metricLeft = H;
metricRight = H;
unicode = (85,117);
},
{
color = 4;
glyphname = V;
kernLeft = V;
kernRight = V;
lastChange = "2022-06-03 00:46:04 +0000";
layers = (
{
anchors = (
{
name = bottom;
pos = (676,0);
},
{
name = top;
pos = (676,1400);
}
);
layerId = m01;
shapes = (
{
closed = 1;
nodes = (
(108,1386,ls),
(104,1394,o),
(95,1400,o),
(85,1400,cs),
(71,1400,o),
(60,1389,o),
(60,1375,cs),
(60,1372,o),
(60,1369,o),
(67,1352,cs),
(343,699,ls),
(347,691,o),
(356,685,o),
(366,685,cs),
(380,685,o),
(391,696,o),
(391,710,cs),
(391,713,o),
(391,716,o),
(384,733,cs)
);
},
{
closed = 1;
nodes = (
(1290,1365,ls),
(1291,1368,o),
(1292,1372,o),
(1292,1375,cs),
(1292,1389,o),
(1281,1400,o),
(1267,1400,cs),
(1257,1400,o),
(1248,1394,o),
(1244,1386,cs),
(665,35,ls),
(664,32,o),
(663,28,o),
(663,25,cs),
(663,11,o),
(674,0,o),
(688,0,cs),
(698,0,o),
(707,6,o),
(711,14,cs)
);
}
);
width = 1352;
},
{
anchors = (
{
name = bottom;
pos = (706,0);
},
{
name = top;
pos = (706,1400);
}
);
layerId = "19FA402B-9607-46D9-AAD6-815AECBA5B6B";
shapes = (
{
closed = 1;
nodes = (
(185,1365,ls),
(175,1386,o),
(154,1400,o),
(130,1400,cs),
(97,1400,o),
(70,1373,o),
(70,1340,cs),
(70,1331,o),
(72,1323,o),
(75,1316,cs),
(329,714,ls),
(339,693,o),
(360,679,o),
(384,679,cs),
(417,679,o),
(444,706,o),
(444,739,cs),
(444,748,o),
(442,756,o),
(439,763,cs)
);
},
{
closed = 1;
nodes = (
(1336,1316,l),
(1340,1323,o),
(1342,1331,o),
(1342,1340,cs),
(1342,1373,o),
(1315,1400,o),
(1282,1400,cs),
(1257,1400,o),
(1237,1386,o),
(1227,1365,cs),
(679,84,l),
(675,77,o),
(673,69,o),
(673,60,cs),
(673,27,o),
(700,0,o),
(733,0,cs),
(758,0,o),
(778,14,o),
(788,35,cs)
);
}
);
width = 1412;
},
{
anchors = (
{
name = bottom;
pos = (783,0);
},
{
name = top;
pos = (783,1400);
}
);
layerId = "FF87E3F2-B049-41CB-BF2F-09DB15105515";
shapes = (
{
closed = 1;
nodes = (
(385,1316,ls),
(360,1366,o),
(309,1400,o),
(250,1400,cs),
(167,1400,o),
(100,1333,o),
(100,1250,cs),
(100,1226,o),
(106,1203,o),
(116,1183,cs),
(320,745,ls),
(345,695,o),
(396,661,o),
(455,661,cs),
(538,661,o),
(605,728,o),
(605,811,cs),
(605,835,o),
(599,858,o),
(589,878,cs)
);
},
{
closed = 1;
nodes = (
(1451,1184,ls),
(1461,1204,o),
(1466,1227,o),
(1466,1251,cs),
(1466,1333,o),
(1399,1401,o),
(1316,1401,cs),
(1257,1401,o),
(1206,1366,o),
(1181,1317,c),
(669,217,ls),
(659,197,o),
(654,174,o),
(654,150,cs),
(654,68,o),
(721,0,o),
(804,0,cs),
(863,0,o),
(914,35,o),
(939,84,c)
);
}
);
width = 1566;
}
);
metricLeft = A;
metricRight = A;
unicode = (86,118);
},
{
color = 4;
glyphname = W;
kernLeft = W;
kernRight = W;
lastChange = "2022-06-02 05:51:21 +0000";
layers = (
{
anchors = (
{
name = bottom;
pos = (954,0);
},
{
name = top;
pos = (954,1400);
}
);
layerId = m01;
shapes = (
{
closed = 1;
nodes = (
(1404,0,o),
(1414,8,o),
(1417,18,cs),
(1847,1368,ls),
(1852,1383,o),
(1840,1400,o),
(1823,1400,cs),
(1812,1400,o),
(1802,1392,o),
(1799,1382,cs),
(1369,32,ls),
(1364,17,o),
(1376,0,o),
(1393,0,cs)
);
},
{
closed = 1;
nodes = (
(311,685,o),
(323,702,o),
(318,717,cs),
(109,1382,ls),
(106,1392,o),
(96,1400,o),
(85,1400,cs),
(68,1400,o),
(56,1383,o),
(61,1368,cs),
(270,703,ls),
(273,693,o),
(283,685,o),
(294,685,cs)
);
},
{
closed = 1;
nodes = (
(545,0,o),
(555,8,o),
(558,19,cs),
(978,1368,ls),
(983,1383,o),
(971,1400,o),
(954,1400,cs),
(943,1400,o),
(933,1392,o),
(930,1381,cs),
(510,32,ls),
(505,17,o),
(517,0,o),
(534,0,cs)
);
},
{
closed = 1;
nodes = (
(1169,686,o),
(1181,702,o),
(1177,717,cs),
(979,1382,ls),
(976,1393,o),
(966,1400,o),
(954,1400,cs),
(938,1400,o),
(926,1384,o),
(930,1369,cs),
(1128,704,ls),
(1131,693,o),
(1141,686,o),
(1153,686,cs)
);
}
);
width = 1908;
},
{
anchors = (
{
name = bottom;
pos = (987,0);
},
{
name = top;
pos = (987,1400);
}
);
layerId = "19FA402B-9607-46D9-AAD6-815AECBA5B6B";
shapes = (
{
closed = 1;
nodes = (
(1465,1,o),
(1488,20,o),
(1495,45,cs),
(1902,1320,ls),
(1913,1355,o),
(1891,1399,o),
(1845,1399,cs),
(1817,1399,o),
(1794,1380,o),
(1787,1355,cs),
(1380,80,ls),
(1369,45,o),
(1391,1,o),
(1437,1,cs)
);
},
{
closed = 1;
nodes = (
(362,681,o),
(385,722,o),
(375,757,cs),
(187,1355,ls),
(180,1380,o),
(157,1398,o),
(129,1398,cs),
(85,1398,o),
(62,1357,o),
(72,1322,cs),
(260,724,ls),
(267,699,o),
(290,681,o),
(318,681,cs)
);
},
{
closed = 1;
nodes = (
(606,1,o),
(629,20,o),
(636,44,cs),
(1044,1321,ls),
(1055,1356,o),
(1032,1400,o),
(987,1400,cs),
(959,1400,o),
(936,1381,o),
(929,1357,cs),
(521,80,ls),
(510,45,o),
(533,1,o),
(578,1,cs)
);
},
{
closed = 1;
nodes = (
(1220,681,o),
(1243,722,o),
(1233,757,cs),
(1045,1355,ls),
(1038,1380,o),
(1015,1398,o),
(987,1398,cs),
(943,1398,o),
(920,1357,o),
(930,1322,cs),
(1118,724,ls),
(1125,699,o),
(1148,681,o),
(1176,681,cs)
);
}
);
width = 1975;
},
{
anchors = (
{
name = bottom;
pos = (1048,0);
},
{
name = top;
pos = (1048,1400);
}
);
layerId = "FF87E3F2-B049-41CB-BF2F-09DB15105515";
shapes = (
{
closed = 1;
nodes = (
(1565,0,o),
(1623,45,o),
(1641,108,cs),
(1990,1208,ls),
(2018,1303,o),
(1946,1400,o),
(1846,1400,cs),
(1778,1400,o),
(1720,1355,o),
(1702,1292,cs),
(1353,192,ls),
(1325,97,o),
(1397,0,o),
(1497,0,cs)
);
},
{
closed = 1;
nodes = (
(485,668,o),
(557,763,o),
(529,859,cs),
(394,1291,ls),
(376,1354,o),
(319,1400,o),
(250,1400,cs),
(150,1400,o),
(78,1305,o),
(106,1209,cs),
(241,777,ls),
(259,714,o),
(316,668,o),
(385,668,cs)
);
},
{
closed = 1;
nodes = (
(766,0,o),
(824,45,o),
(842,108,cs),
(1191,1208,ls),
(1219,1303,o),
(1147,1400,o),
(1047,1400,cs),
(979,1400,o),
(921,1355,o),
(903,1292,cs),
(554,192,ls),
(526,97,o),
(598,0,o),
(698,0,cs)
);
},
{
closed = 1;
nodes = (
(1314,572,o),
(1386,667,o),
(1358,763,cs),
(1193,1291,ls),
(1175,1354,o),
(1118,1400,o),
(1049,1400,cs),
(949,1400,o),
(877,1305,o),
(905,1209,cs),
(1070,681,ls),
(1088,618,o),
(1145,572,o),
(1214,572,cs)
);
}
);
width = 2096;
}
);
metricLeft = A;
metricRight = A;
unicode = (87,119);
},
{
color = 4;
glyphname = X;
kernLeft = X;
kernRight = X;
lastChange = "2022-06-03 00:46:04 +0000";
layers = (
{
anchors = (
{
name = bottom;
pos = (616,0);
},
{
name = top;
pos = (616,1400);
}
);
layerId = m01;
shapes = (
{
closed = 1;
nodes = (
(65,40,ls),
(62,36,o),
(60,31,o),
(60,25,cs),
(60,11,o),
(71,0,o),
(85,0,cs),
(93,0,o),
(100,3,o),
(104,9,cs),
(401,387,ls),
(404,391,o),
(406,396,o),
(406,402,cs),
(406,416,o),
(395,427,o),
(381,427,cs),
(373,427,o),
(366,423,o),
(361,417,cs)
);
},
{
closed = 1;
nodes = (
(1127,9,ls),
(1131,3,o),
(1138,0,o),
(1146,0,cs),
(1160,0,o),
(1171,11,o),
(1171,25,cs),
(1171,31,o),
(1169,36,o),
(1165,41,cs),
(104,1391,ls),
(100,1397,o),
(93,1400,o),
(85,1400,cs),
(71,1400,o),
(60,1389,o),
(60,1375,cs),
(60,1369,o),
(62,1364,o),
(66,1359,cs)
);
},
{
closed = 1;
nodes = (
(830,1013,ls),
(827,1009,o),
(825,1004,o),
(825,998,cs),
(825,984,o),
(836,973,o),
(850,973,cs),
(857.996,973,o),
(865,977,o),
(870,983,cs),
(1165,1360,ls),
(1168,1364,o),
(1170,1369,o),
(1170,1375,cs),
(1170,1389,o),
(1159,1400,o),
(1145,1400,cs),
(1137,1400,o),
(1130,1397,o),
(1126,1391,cs)
);
}
);
width = 1231;
},
{
anchors = (
{
name = bottom;
pos = (635,0);
},
{
name = top;
pos = (635,1400);
}
);
layerId = "19FA402B-9607-46D9-AAD6-815AECBA5B6B";
shapes = (
{
closed = 1;
nodes = (
(83,96,ls),
(75,86,o),
(70,73,o),
(70,58,cs),
(70,25,o),
(97,-2,o),
(130,-2,cs),
(149,-2,o),
(166,7,o),
(177,21,cs),
(447,365,ls),
(455,375,o),
(460,388,o),
(460,402,cs),
(460,435,o),
(433,462,o),
(400,462,cs),
(381,462,o),
(364,453,o),
(353,439,cs)
);
},
{
closed = 1;
nodes = (
(1090,23,ls),
(1101,9,o),
(1118,0,o),
(1137,0,cs),
(1170,0,o),
(1197,27,o),
(1197,60,cs),
(1197,75,o),
(1192,88,o),
(1184,98,cs),
(179,1377,ls),
(168,1391,o),
(151,1400,o),
(132,1400,cs),
(99,1400,o),
(72,1373,o),
(72,1340,cs),
(72,1325,o),
(77,1312,o),
(85,1302,cs)
);
},
{
closed = 1;
nodes = (
(822,1035,ls),
(814,1025,o),
(809,1012,o),
(809,998,cs),
(809,965,o),
(836,938,o),
(869,938,cs),
(888,938,o),
(905,947,o),
(916,961,cs),
(1184,1302,ls),
(1192,1312,o),
(1197,1325,o),
(1197,1340,cs),
(1197,1373,o),
(1170,1400,o),
(1137,1400,cs),
(1118,1400,o),
(1101,1391,o),
(1090,1377,cs)
);
}
);
width = 1267;
},
{
anchors = (
{
name = bottom;
pos = (682,0);
},
{
name = top;
pos = (682,1400);
}
);
layerId = "FF87E3F2-B049-41CB-BF2F-09DB15105515";
shapes = (
{
closed = 1;
nodes = (
(133,244,ls),
(113,218,o),
(100,186,o),
(100,150,cs),
(100,67,o),
(167,0,o),
(250,0,cs),
(298,0,o),
(340,22,o),
(368,57,cs),
(536,271,ls),
(556,297,o),
(568,329,o),
(568,364,cs),
(568,447,o),
(501,514,o),
(418,514,cs),
(370,514,o),
(327,492,o),
(300,457,cs)
);
},
{
closed = 1;
nodes = (
(994,57,ls),
(1021,23,o),
(1063,0,o),
(1111,0,cs),
(1194,0,o),
(1261,68,o),
(1261,150,cs),
(1261,186,o),
(1249,218,o),
(1228,244,cs),
(371,1343,ls),
(344,1377,o),
(302,1400,o),
(254,1400,cs),
(171,1400,o),
(104,1332,o),
(104,1250,cs),
(104,1214,o),
(116,1182,o),
(137,1156,cs)
);
},
{
closed = 1;
nodes = (
(827,1129,ls),
(807,1103,o),
(795,1071,o),
(795,1036,cs),
(795,953,o),
(862,886,o),
(945,886,cs),
(993,886,o),
(1036,908,o),
(1063,943,cs),
(1230,1156,ls),
(1250,1182,o),
(1263,1214,o),
(1263,1250,cs),
(1263,1333,o),
(1196,1400,o),
(1113,1400,cs),
(1065,1400,o),
(1023,1378,o),
(995,1343,cs)
);
}
);
width = 1363;
}
);
metricLeft = A;
metricRight = A;
unicode = (88,120);
},
{
color = 4;
glyphname = Y;
kernLeft = Y;
kernRight = Y;
lastChange = "2022-06-03 00:46:04 +0000";
layers = (
{
anchors = (
{
name = bottom;
pos = (616,0);
},
{
name = top;
pos = (616,1400);
},
{
name = topleft;
pos = (20,1400);
}
);
layerId = m01;
shapes = (
{
closed = 1;
nodes = (
(591,26,ls),
(591,12,o),
(602,1,o),
(616,1,cs),
(630,1,o),
(641,12,o),
(641,26,cs),
(641,697,ls),
(641,710,o),
(630,722,o),
(616,722,cs),
(602,722,o),
(591,710,o),
(591,697,cs)
);
},
{
closed = 1;
nodes = (
(104,1391,ls),
(100,1397,o),
(93,1400,o),
(85,1400,cs),
(71,1400,o),
(60,1389,o),
(60,1375,cs),
(60,1369,o),
(62,1364,o),
(65,1360,cs),
(361,983,ls),
(366,977,o),
(373,973,o),
(381,973,cs),
(395,973,o),
(406,984,o),
(406,998,cs),
(406,1004,o),
(404,1009,o),
(401,1013,cs)
);
},
{
closed = 1;
nodes = (
(596,714,ls),
(593,710,o),
(591,705,o),
(591,699,cs),
(591,685,o),
(602,674,o),
(616,674,cs),
(624,674,o),
(631,678,o),
(636,684,cs),
(1166,1360,ls),
(1169,1364,o),
(1171,1369,o),
(1171,1375,cs),
(1171,1389,o),
(1160,1400,o),
(1146,1400,cs),
(1138,1400,o),
(1131,1397,o),
(1127,1391,cs)
);
}
);
width = 1231;
},
{
anchors = (
{
name = bottom;
pos = (633,0);
},
{
name = top;
pos = (633,1400);
},
{
name = topleft;
pos = (19,1400);
}
);
layerId = "19FA402B-9607-46D9-AAD6-815AECBA5B6B";
shapes = (
{
closed = 1;
nodes = (
(573,60,ls),
(573,27,o),
(600,0,o),
(633,0,cs),
(666,0,o),
(693,27,o),
(693,60,cs),
(693,685,ls),
(693,718,o),
(666,745,o),
(633,745,cs),
(600,745,o),
(573,718,o),
(573,685,cs)
);
},
{
closed = 1;
nodes = (
(177,1377,ls),
(166,1391,o),
(149,1400,o),
(130,1400,cs),
(97,1400,o),
(70,1373,o),
(70,1340,cs),
(70,1325,o),
(75,1312,o),
(83,1302,cs),
(351,961,ls),
(362,947,o),
(379,938,o),
(398,938,cs),
(431,938,o),
(458,965,o),
(458,998,cs),
(458,1012,o),
(453,1025,o),
(445,1035,cs)
);
},
{
closed = 1;
nodes = (
(586,736,ls),
(578,726,o),
(573,713,o),
(573,699,cs),
(573,666,o),
(600,639,o),
(633,639,cs),
(652,639,o),
(669,648,o),
(680,662,cs),
(1183,1303,ls),
(1191,1313,o),
(1196,1326,o),
(1196,1340,cs),
(1196,1374,o),
(1169,1400,o),
(1136,1400,cs),
(1117,1400,o),
(1100,1392,o),
(1089,1378,cs)
);
}
);
width = 1266;
},
{
anchors = (
{
name = bottom;
pos = (681,0);
},
{
name = top;
pos = (681,1400);
},
{
name = topleft;
pos = (20,1400);
}
);
layerId = "FF87E3F2-B049-41CB-BF2F-09DB15105515";
shapes = (
{
closed = 1;
nodes = (
(532,150,ls),
(532,67,o),
(599,0,o),
(682,0,cs),
(765,0,o),
(832,67,o),
(832,150,cs),
(832,694,ls),
(832,777,o),
(765,844,o),
(682,844,cs),
(599,844,o),
(532,777,o),
(532,694,cs)
);
},
{
closed = 1;
nodes = (
(368,1343,ls),
(340,1378,o),
(298,1400,o),
(250,1400,cs),
(167,1400,o),
(100,1333,o),
(100,1250,cs),
(100,1214,o),
(113,1182,o),
(133,1156,cs),
(300,943,ls),
(327,908,o),
(370,886,o),
(418,886,cs),
(501,886,o),
(568,953,o),
(568,1036,cs),
(568,1071,o),
(556,1103,o),
(536,1129,cs)
);
},
{
closed = 1;
nodes = (
(564,791,ls),
(544,766,o),
(532,734,o),
(532,699,cs),
(532,616,o),
(599,549,o),
(682,549,cs),
(730,549,o),
(773,572,o),
(800,607,cs),
(1229,1156,ls),
(1249,1182,o),
(1261,1214,o),
(1261,1250,cs),
(1261,1332,o),
(1194,1400,o),
(1111,1400,cs),
(1063,1400,o),
(1021,1377,o),
(994,1343,cs)
);
}
);
width = 1361;
}
);
metricLeft = A;
metricRight = A;
unicode = (89,121);
},
{
color = 4;
glyphname = Z;
kernLeft = Z;
kernRight = Z;
lastChange = "2022-06-03 00:46:04 +0000";
layers = (
{
anchors = (
{
name = bottom;
pos = (610,0);
},
{
name = center;
pos = (610,700);
},
{
name = top;
pos = (610,1400);
}
);
layerId = m01;
shapes = (
{
closed = 1;
nodes = (
(85,50,ls),
(71,50,o),
(60,39,o),
(60,25,cs),
(60,11,o),
(71,0,o),
(85,0,cs),
(1134,0,ls),
(1147,0,o),
(1159,11,o),
(1159,25,cs),
(1159,39,o),
(1147,50,o),
(1134,50,cs)
);
},
{
closed = 1;
nodes = (
(692,762,ls),
(695,766,o),
(697,771,o),
(697,777,cs),
(697,791,o),
(686,802,o),
(672,802,cs),
(664,802,o),
(657,799,o),
(653,793,cs),
(70,47,ls),
(67,43,o),
(65,38,o),
(65,32,cs),
(65,18,o),
(76,7,o),
(90,7,cs),
(98,7,o),
(105,10,o),
(109,16,cs)
);
},
{
closed = 1;
nodes = (
(85,1396,ls),
(71,1396,o),
(60,1385,o),
(60,1371,cs),
(60,1357,o),
(71,1346,o),
(85,1346,cs),
(1134,1346,ls),
(1147,1346,o),
(1159,1357,o),
(1159,1371,cs),
(1159,1385,o),
(1147,1396,o),
(1134,1396,cs)
);
}
);
width = 1219;
},
{
anchors = (
{
name = bottom;
pos = (623,0);
},
{
name = center;
pos = (623,700);
},
{
name = top;
pos = (623,1400);
}
);
layerId = "19FA402B-9607-46D9-AAD6-815AECBA5B6B";
shapes = (
{
closed = 1;
nodes = (
(130,120,ls),
(97,120,o),
(70,93,o),
(70,60,cs),
(70,27,o),
(97,0,o),
(130,0,cs),
(1116,0,ls),
(1149,0,o),
(1176,27,o),
(1176,60,cs),
(1176,93,o),
(1149,120,o),
(1116,120,cs)
);
},
{
closed = 1;
nodes = (
(714,715,ls),
(722,725,o),
(727,738,o),
(727,752,cs),
(727,785,o),
(700,812,o),
(667,812,cs),
(648,812,o),
(631,803,o),
(620,790,cs),
(85,101,ls),
(77,91,o),
(72,78,o),
(72,64,cs),
(72,31,o),
(99,4,o),
(132,4,cs),
(151,4,o),
(168,13,o),
(179,26,cs)
);
},
{
closed = 1;
nodes = (
(130,1396,ls),
(97,1396,o),
(70,1369,o),
(70,1336,cs),
(70,1303,o),
(97,1276,o),
(130,1276,cs),
(1116,1276,ls),
(1149,1276,o),
(1176,1303,o),
(1176,1336,cs),
(1176,1369,o),
(1149,1396,o),
(1116,1396,cs)
);
}
);
width = 1246;
},
{
anchors = (
{
name = bottom;
pos = (663,0);
},
{
name = center;
pos = (663,700);
},
{
name = top;
pos = (663,1400);
}
);
layerId = "FF87E3F2-B049-41CB-BF2F-09DB15105515";
shapes = (
{
closed = 1;
nodes = (
(252,300,ls),
(169,300,o),
(102,233,o),
(102,150,cs),
(102,67,o),
(169,0,o),
(252,0,cs),
(1076,0,ls),
(1159,0,o),
(1226,67,o),
(1226,150,cs),
(1226,233,o),
(1159,300,o),
(1076,300,cs)
);
},
{
closed = 1;
nodes = (
(776,595,ls),
(796,621,o),
(808,653,o),
(808,688,cs),
(808,771,o),
(741,838,o),
(658,838,cs),
(611,838,o),
(568,816,o),
(541,781,cs),
(132,256,ls),
(112,230,o),
(100,198,o),
(100,163,cs),
(100,80,o),
(167,13,o),
(250,13,cs),
(297,13,o),
(340,35,o),
(367,70,cs)
);
},
{
closed = 1;
nodes = (
(252,1396,ls),
(169,1396,o),
(102,1329,o),
(102,1246,cs),
(102,1163,o),
(169,1096,o),
(252,1096,cs),
(1076,1096,ls),
(1159,1096,o),
(1226,1163,o),
(1226,1246,cs),
(1226,1329,o),
(1159,1396,o),
(1076,1396,cs)
);
}
);
width = 1326;
}
);
metricLeft = A;
metricRight = A;
unicode = (90,122);
},
{
color = 5;
glyphname = fi;
kernLeft = F;
kernRight = I;
lastChange = "2022-06-03 00:46:04 +0000";
layers = (
{
anchors = (
{
name = caret_1;
pos = (623,0);
}
);
layerId = m01;
shapes = (
{
closed = 1;
nodes = (
(85,25,ls),
(85,11,o),
(96,0,o),
(110,0,cs),
(124,0,o),
(135,11,o),
(135,25,cs),
(135,700,l),
(85,700,l)
);
},
{
closed = 1;
nodes = (
(110,725,ls),
(96,725,o),
(85,714,o),
(85,700,cs),
(85,686,o),
(96,675,o),
(110,675,cs),
(814,675,ls),
(827,675,o),
(839,686,o),
(839,700,cs),
(839,714,o),
(827,725,o),
(814,725,cs)
);
},
{
closed = 1;
nodes = (
(1161,500,ls),
(1161,514,o),
(1150,525,o),
(1136,525,cs),
(1122,525,o),
(1111,514,o),
(1111,500,cs),
(1111,26,ls),
(1111,12,o),
(1122,1,o),
(1136,1,cs),
(1150,1,o),
(1161,12,o),
(1161,26,cs)
);
},
{
closed = 1;
nodes = (
(1137,1350,l),
(1137,1400,l),
(110,1400,ls),
(96,1400,o),
(85,1389,o),
(85,1375,cs),
(85,1361,o),
(96,1350,o),
(110,1350,cs)
);
},
{
closed = 1;
nodes = (
(1161,1375,ls),
(1161,1388,o),
(1150,1400,o),
(1136,1400,cs),
(1122,1400,o),
(1111,1388,o),
(1111,1375,cs),
(1111,900,ls),
(1111,886,o),
(1122,875,o),
(1136,875,cs),
(1150,875,o),
(1161,886,o),
(1161,900,cs)
);
}
);
width = 1246;
},
{
anchors = (
{
name = caret_1;
pos = (679.5,0);
}
);
layerId = "19FA402B-9607-46D9-AAD6-815AECBA5B6B";
shapes = (
{
closed = 1;
nodes = (
(100,60,ls),
(100,27,o),
(127,0,o),
(160,0,cs),
(193,0,o),
(220,27,o),
(220,60,cs),
(220,700,l),
(100,700,l)
);
},
{
closed = 1;
nodes = (
(160,760,ls),
(127,760,o),
(100,733,o),
(100,700,cs),
(100,667,o),
(127,640,o),
(160,640,cs),
(829,640,ls),
(862,640,o),
(889,667,o),
(889,700,cs),
(889,733,o),
(862,760,o),
(829,760,cs)
);
},
{
closed = 1;
nodes = (
(1259,500,ls),
(1259,533,o),
(1232,560,o),
(1199,560,cs),
(1166,560,o),
(1139,533,o),
(1139,500,cs),
(1139,60,ls),
(1139,27,o),
(1166,0,o),
(1199,0,cs),
(1232,0,o),
(1259,27,o),
(1259,60,cs)
);
},
{
closed = 1;
nodes = (
(1199,1280,l),
(1199,1400,l),
(160,1400,ls),
(127,1400,o),
(100,1373,o),
(100,1340,cs),
(100,1307,o),
(127,1280,o),
(160,1280,cs)
);
},
{
closed = 1;
nodes = (
(1259,1340,ls),
(1259,1373,o),
(1232,1400,o),
(1199,1400,cs),
(1166,1400,o),
(1139,1373,o),
(1139,1340,cs),
(1139,900,ls),
(1139,867,o),
(1166,840,o),
(1199,840,cs),
(1232,840,o),
(1259,867,o),
(1259,900,cs)
);
}
);
width = 1359;
},
{
anchors = (
{
name = caret_1;
pos = (929,0);
}
);
layerId = "FF87E3F2-B049-41CB-BF2F-09DB15105515";
shapes = (
{
closed = 1;
nodes = (
(150,150,ls),
(150,67,o),
(217,0,o),
(300,0,cs),
(383,0,o),
(450,67,o),
(450,150,cs),
(450,710,l),
(150,710,l)
);
},
{
closed = 1;
nodes = (
(300,850,ls),
(217,850,o),
(150,783,o),
(150,700,cs),
(150,617,o),
(217,550,o),
(300,550,cs),
(888,550,ls),
(971,550,o),
(1038,617,o),
(1038,700,cs),
(1038,783,o),
(971,850,o),
(888,850,cs)
);
},
{
closed = 1;
nodes = (
(1708,440,ls),
(1708,523,o),
(1641,590,o),
(1558,590,cs),
(1475,590,o),
(1408,523,o),
(1408,440,cs),
(1408,141,ls),
(1408,58,o),
(1475,-9,o),
(1558,-9,cs),
(1641,-9,o),
(1708,58,o),
(1708,141,cs)
);
},
{
closed = 1;
nodes = (
(1553,1100,l),
(1553,1400,l),
(300,1400,ls),
(217,1400,o),
(150,1333,o),
(150,1250,cs),
(150,1167,o),
(217,1100,o),
(300,1100,cs)
);
},
{
closed = 1;
nodes = (
(1708,1250,ls),
(1708,1333,o),
(1641,1400,o),
(1558,1400,cs),
(1475,1400,o),
(1408,1333,o),
(1408,1250,cs),
(1408,960,ls),
(1408,877,o),
(1475,810,o),
(1558,810,cs),
(1641,810,o),
(1708,877,o),
(1708,960,cs)
);
}
);
width = 1858;
}
);
metricLeft = F;
metricRight = I;
unicode = 64257;
},
{
color = 5;
glyphname = fl;
kernLeft = F;
kernRight = L;
lastChange = "2022-06-03 00:46:04 +0000";
layers = (
{
anchors = (
{
name = caret_1;
pos = (1083,0);
}
);
layerId = m01;
shapes = (
{
closed = 1;
nodes = (
(85,25,ls),
(85,11,o),
(96,0,o),
(110,0,cs),
(124,0,o),
(135,11,o),
(135,25,cs),
(135,700,l),
(85,700,l)
);
},
{
closed = 1;
nodes = (
(110,725,ls),
(96,725,o),
(85,714,o),
(85,700,cs),
(85,686,o),
(96,675,o),
(110,675,cs),
(814,675,ls),
(827,675,o),
(839,686,o),
(839,700,cs),
(839,714,o),
(827,725,o),
(814,725,cs)
);
},
{
closed = 1;
nodes = (
(1136,54,ls),
(1122,54,o),
(1111,43,o),
(1111,29,cs),
(1111,15,o),
(1122,4,o),
(1136,4,cs),
(2106,4,ls),
(2119,4,o),
(2131,15,o),
(2131,29,cs),
(2131,43,o),
(2119,54,o),
(2106,54,cs)
);
},
{
closed = 1;
nodes = (
(1139,1350,l),
(1139,1400,l),
(110,1400,ls),
(96,1400,o),
(85,1389,o),
(85,1375,cs),
(85,1361,o),
(96,1350,o),
(110,1350,cs)
);
},
{
closed = 1;
nodes = (
(1163,1375,ls),
(1163,1388,o),
(1152,1400,o),
(1138,1400,cs),
(1124,1400,o),
(1113,1388,o),
(1113,1375,cs),
(1113,402,ls),
(1113,388,o),
(1124,377,o),
(1138,377,cs),
(1152,377,o),
(1163,388,o),
(1163,402,cs)
);
}
);
width = 2191;
},
{
anchors = (
{
name = caret_1;
pos = (1118,0);
}
);
layerId = "19FA402B-9607-46D9-AAD6-815AECBA5B6B";
shapes = (
{
closed = 1;
nodes = (
(100,60,ls),
(100,27,o),
(127,0,o),
(160,0,cs),
(193,0,o),
(220,27,o),
(220,60,cs),
(220,700,l),
(100,700,l)
);
},
{
closed = 1;
nodes = (
(160,760,ls),
(127,760,o),
(100,733,o),
(100,700,cs),
(100,667,o),
(127,640,o),
(160,640,cs),
(829,640,ls),
(862,640,o),
(889,667,o),
(889,700,cs),
(889,733,o),
(862,760,o),
(829,760,cs)
);
},
{
closed = 1;
nodes = (
(1199,124,ls),
(1166,124,o),
(1139,97,o),
(1139,64,cs),
(1139,31,o),
(1166,4,o),
(1199,4,cs),
(2106,4,ls),
(2139,4,o),
(2166,31,o),
(2166,64,cs),
(2166,97,o),
(2139,124,o),
(2106,124,cs)
);
},
{
closed = 1;
nodes = (
(1204,1280,l),
(1204,1400,l),
(160,1400,ls),
(127,1400,o),
(100,1373,o),
(100,1340,cs),
(100,1307,o),
(127,1280,o),
(160,1280,cs)
);
},
{
closed = 1;
nodes = (
(1265,1340,ls),
(1265,1373,o),
(1238,1400,o),
(1205,1400,cs),
(1172,1400,o),
(1145,1373,o),
(1145,1340,cs),
(1145,402,ls),
(1145,369,o),
(1172,342,o),
(1205,342,cs),
(1238,342,o),
(1265,369,o),
(1265,402,cs)
);
}
);
width = 2236;
},
{
anchors = (
{
name = caret_1;
pos = (1276.5,0);
}
);
layerId = "FF87E3F2-B049-41CB-BF2F-09DB15105515";
shapes = (
{
closed = 1;
nodes = (
(150,150,ls),
(150,67,o),
(217,0,o),
(300,0,cs),
(383,0,o),
(450,67,o),
(450,150,cs),
(450,710,l),
(150,710,l)
);
},
{
closed = 1;
nodes = (
(300,850,ls),
(217,850,o),
(150,783,o),
(150,700,cs),
(150,617,o),
(217,550,o),
(300,550,cs),
(888,550,ls),
(971,550,o),
(1038,617,o),
(1038,700,cs),
(1038,783,o),
(971,850,o),
(888,850,cs)
);
},
{
closed = 1;
nodes = (
(1558,304,ls),
(1475,304,o),
(1408,237,o),
(1408,154,cs),
(1408,71,o),
(1475,4,o),
(1558,4,cs),
(2303,4,ls),
(2386,4,o),
(2453,71,o),
(2453,154,cs),
(2453,237,o),
(2386,304,o),
(2303,304,cs)
);
},
{
closed = 1;
nodes = (
(1573,1100,l),
(1573,1400,l),
(300,1400,ls),
(217,1400,o),
(150,1333,o),
(150,1250,cs),
(150,1167,o),
(217,1100,o),
(300,1100,cs)
);
},
{
closed = 1;
nodes = (
(1723,1250,ls),
(1723,1333,o),
(1656,1400,o),
(1573,1400,cs),
(1490,1400,o),
(1423,1333,o),
(1423,1250,cs),
(1423,602,ls),
(1423,519,o),
(1490,452,o),
(1573,452,cs),
(1656,452,o),
(1723,519,o),
(1723,602,cs)
);
}
);
width = 2553;
}
);
metricLeft = F;
metricRight = L;
unicode = 64258;
},
{
color = 8;
glyphname = ordfeminine;
lastChange = "2022-06-03 00:46:04 +0000";
layers = (
{
layerId = m01;
shapes = (
{
closed = 1;
nodes = (
(210,1091,ls),
(211,1094,o),
(212,1098,o),
(212,1101,cs),
(212,1115,o),
(201,1126,o),
(187,1126,cs),
(177,1126,o),
(168,1120,o),
(164,1112,cs),
(62,871,ls),
(61,868,o),
(60,864,o),
(60,861,cs),
(60,847,o),
(71,836,o),
(85,836,cs),
(95,836,o),
(104,842,o),
(108,850,cs)
);
},
{
closed = 1;
nodes = (
(349,1386,ls),
(345,1394,o),
(336,1400,o),
(326,1400,cs),
(312,1400,o),
(301,1389,o),
(301,1375,cs),
(301,1372,o),
(302,1368,o),
(303,1365,cs),
(524,850,ls),
(528,842,o),
(537,836,o),
(547,836,cs),
(561,836,o),
(572,847,o),
(572,861,cs),
(572,864,o),
(571,868,o),
(570,871,cs)
);
}
);
width = 632;
},
{
layerId = "19FA402B-9607-46D9-AAD6-815AECBA5B6B";
shapes = (
{
closed = 1;
nodes = (
(262,1044,ls),
(265,1051,o),
(267,1059,o),
(267,1068,cs),
(267,1101,o),
(240,1128,o),
(207,1128,cs),
(183,1128,o),
(162,1114,o),
(152,1093,cs),
(75,911,ls),
(72,904,o),
(70,896,o),
(70,887,cs),
(70,854,o),
(97,827,o),
(130,827,cs),
(154,827,o),
(175,841,o),
(185,862,cs)
);
},
{
closed = 1;
nodes = (
(427,1365,ls),
(417,1386,o),
(397,1400,o),
(372,1400,cs),
(339,1400,o),
(312,1374,o),
(312,1340,cs),
(312,1331,o),
(314,1323,o),
(318,1316,c),
(512,862,ls),
(522,841,o),
(542,827,o),
(567,827,cs),
(600,827,o),
(627,853,o),
(627,887,cs),
(627,896,o),
(625,904,o),
(621,911,c)
);
}
);
width = 697;
},
{
layerId = "FF87E3F2-B049-41CB-BF2F-09DB15105515";
shapes = (
{
closed = 1;
nodes = (
(433,835,ls),
(443,854,o),
(448,877,o),
(448,900,cs),
(448,983,o),
(381,1050,o),
(298,1050,cs),
(239,1050,o),
(188,1016,o),
(164,966,cs),
(115,861,ls),
(105,842,o),
(100,819,o),
(100,796,cs),
(100,713,o),
(167,646,o),
(250,646,cs),
(309,646,o),
(360,680,o),
(384,730,cs)
);
},
{
closed = 1;
nodes = (
(636,1331,ls),
(610,1375,o),
(562,1404,o),
(507,1404,cs),
(425,1404,o),
(357,1337,o),
(357,1254,cs),
(357,1226,o),
(365,1199,o),
(379,1177,cs),
(638,727,ls),
(664,683,o),
(712,654,o),
(767,654,cs),
(849,654,o),
(917,721,o),
(917,804,cs),
(917,832,o),
(909,859,o),
(895,881,cs)
);
}
);
width = 1017;
}
);
metricLeft = A;
metricRight = A;
unicode = 170;
},
{
color = 8;
glyphname = ordmasculine;
lastChange = "2022-06-03 00:46:04 +0000";
layers = (
{
layerId = m01;
shapes = (
{
closed = 1;
nodes = (
(186,1263,o),
(197,1274,o),
(197,1288,cs),
(197,1302,o),
(186,1313,o),
(172,1313,cs),
(158,1313,o),
(147,1302,o),
(147,1288,cs),
(147,1274,o),
(158,1263,o),
(172,1263,cs)
);
},
{
closed = 1;
nodes = (
(514,1350,o),
(630,1234,o),
(630,1090,cs),
(630,946,o),
(514,830,o),
(370,830,cs),
(226,830,o),
(110,946,o),
(110,1090,cs),
(110,1104,o),
(99,1115,o),
(85,1115,cs),
(71,1115,o),
(60,1104,o),
(60,1090,cs),
(60,918,o),
(198,780,o),
(370,780,cs),
(542,780,o),
(680,918,o),
(680,1090,cs),
(680,1262,o),
(542,1400,o),
(370,1400,cs),
(356,1400,o),
(345,1389,o),
(345,1375,cs),
(345,1361,o),
(356,1350,o),
(370,1350,cs)
);
}
);
width = 740;
},
{
layerId = "19FA402B-9607-46D9-AAD6-815AECBA5B6B";
shapes = (
{
closed = 1;
nodes = (
(185,1259,o),
(212,1286,o),
(212,1318,cs),
(212,1351,o),
(185,1378,o),
(153,1378,cs),
(120,1378,o),
(93,1351,o),
(93,1318,cs),
(93,1286,o),
(120,1259,o),
(153,1259,cs)
);
},
{
closed = 1;
nodes = (
(440,1280,o),
(511,1208,o),
(511,1119,cs),
(511,1030,o),
(440,959,o),
(351,959,cs),
(262,959,o),
(190,1030,o),
(190,1119,cs),
(190,1152,o),
(163,1179,o),
(130,1179,cs),
(97,1179,o),
(70,1152,o),
(70,1119,cs),
(70,964,o),
(196,839,o),
(351,839,cs),
(506,839,o),
(631,964,o),
(631,1119,cs),
(631,1274,o),
(506,1400,o),
(351,1400,cs),
(318,1400,o),
(291,1373,o),
(291,1340,cs),
(291,1307,o),
(318,1280,o),
(351,1280,cs)
);
}
);
width = 701;
},
{
layerId = "FF87E3F2-B049-41CB-BF2F-09DB15105515";
shapes = (
{
closed = 1;
nodes = (
(265,1195,o),
(302,1230,o),
(302,1276,cs),
(302,1321,o),
(265,1358,o),
(221,1358,cs),
(176,1358,o),
(139,1321,o),
(139,1276,cs),
(139,1230,o),
(176,1195,o),
(221,1195,cs)
);
},
{
closed = 1;
nodes = (
(514,1097,o),
(548,1064,o),
(548,1023,cs),
(548,983,o),
(514,949,o),
(474,949,cs),
(434,949,o),
(400,983,o),
(400,1023,cs),
(400,1106,o),
(333,1173,o),
(250,1173,cs),
(167,1173,o),
(100,1106,o),
(100,1023,cs),
(100,817,o),
(268,649,o),
(474,649,cs),
(680,649,o),
(848,817,o),
(848,1023,cs),
(848,1230,o),
(680,1397,o),
(474,1397,cs),
(391,1397,o),
(324,1330,o),
(324,1247,cs),
(324,1164,o),
(391,1097,o),
(474,1097,cs)
);
}
);
width = 948;
}
);
metricLeft = A;
metricRight = A;
unicode = 186;
},
{
color = 5;
glyphname = Delta;
lastChange = "2022-06-03 00:46:04 +0000";
layers = (
{
layerId = m01;
shapes = (
{
closed = 1;
nodes = (
(85,50,ls),
(71,50,o),
(60,39,o),
(60,25,cs),
(60,11,o),
(71,0,o),
(85,0,cs),
(1260,0,ls),
(1273,0,o),
(1285,11,o),
(1285,25,cs),
(1285,39,o),
(1273,50,o),
(1260,50,cs)
);
},
{
closed = 1;
nodes = (
(61,34,l),
(106,13,l),
(537,921,l),
(538,925,o),
(539,928,o),
(539,932,cs),
(539,946,o),
(528,957,o),
(514,957,cs),
(504,957,o),
(496,951,o),
(492,943,cs)
);
},
{
closed = 1;
nodes = (
(1102,349,ls),
(1106,340,o),
(1115,335,o),
(1125,335,cs),
(1139,335,o),
(1150,346,o),
(1150,360,cs),
(1150,363,o),
(1149,367,o),
(1143,380,cs),
(696,1386,ls),
(692,1395,o),
(683,1400,o),
(673,1400,cs),
(659,1400,o),
(648,1389,o),
(648,1375,cs),
(648,1372,o),
(649,1368,o),
(655,1355,cs)
);
}
);
width = 1345;
},
{
layerId = "19FA402B-9607-46D9-AAD6-815AECBA5B6B";
shapes = (
{
closed = 1;
nodes = (
(130,120,ls),
(97,120,o),
(70,93,o),
(70,60,cs),
(70,27,o),
(97,0,o),
(130,0,cs),
(1242,0,ls),
(1275,0,o),
(1302,27,o),
(1302,60,cs),
(1302,93,o),
(1275,120,o),
(1242,120,cs)
);
},
{
closed = 1;
nodes = (
(74,82,l),
(183,31,l),
(575,862,ls),
(579,870,o),
(581,879,o),
(581,889,cs),
(581,922,o),
(554,949,o),
(521,949,cs),
(498,949,o),
(477,935,o),
(467,915,cs)
);
},
{
closed = 1;
nodes = (
(1072,363,ls),
(1081,342,o),
(1102,328,o),
(1126,328,cs),
(1159,328,o),
(1186,355,o),
(1186,388,cs),
(1186,397,o),
(1184,406,o),
(1180,414,cs),
(758,1364,ls),
(749,1385,o),
(728,1399,o),
(704,1399,cs),
(671,1399,o),
(644,1372,o),
(644,1339,cs),
(644,1330,o),
(646,1321,o),
(650,1313,cs)
);
}
);
width = 1372;
},
{
layerId = "FF87E3F2-B049-41CB-BF2F-09DB15105515";
shapes = (
{
closed = 1;
nodes = (
(250,300,ls),
(167,300,o),
(100,233,o),
(100,150,cs),
(100,67,o),
(167,0,o),
(250,0,cs),
(1200,0,ls),
(1283,0,o),
(1350,67,o),
(1350,150,cs),
(1350,233,o),
(1283,300,o),
(1200,300,cs)
);
},
{
closed = 1;
nodes = (
(111,207,l),
(382,79,l),
(680,710,ls),
(690,730,o),
(696,753,o),
(696,777,cs),
(696,860,o),
(629,927,o),
(546,927,cs),
(487,927,o),
(436,893,o),
(412,844,cs)
);
},
{
closed = 1;
nodes = (
(938,529,ls),
(962,478,o),
(1014,442,o),
(1074,442,cs),
(1157,442,o),
(1224,510,o),
(1224,592,cs),
(1224,615,o),
(1219,637,o),
(1210,656,cs),
(919,1313,ls),
(895,1364,o),
(843,1400,o),
(783,1400,cs),
(700,1400,o),
(633,1332,o),
(633,1250,cs),
(633,1227,o),
(638,1205,o),
(647,1186,cs)
);
}
);
width = 1450;
}
);
metricLeft = A;
metricRight = A;
unicode = (916,8710);
},
{
color = 5;
glyphname = Omega;
lastChange = "2022-06-03 00:46:04 +0000";
layers = (
{
layerId = m01;
shapes = (
{
closed = 1;
nodes = (
(365,463,o),
(166,662,o),
(166,907,cs),
(166,1151,o),
(365,1350,o),
(610,1350,cs),
(854,1350,o),
(1053,1151,o),
(1053,907,cs),
(1053,662,o),
(854,463,o),
(610,463,cs)
);
},
{
closed = 1;
nodes = (
(882,413,o),
(1103,634,o),
(1103,907,cs),
(1103,1179,o),
(882,1400,o),
(610,1400,cs),
(337,1400,o),
(116,1179,o),
(116,907,cs),
(116,634,o),
(337,413,o),
(610,413,cs)
);
},
{
closed = 1;
nodes = (
(85,50,ls),
(71,50,o),
(60,39,o),
(60,25,cs),
(60,11,o),
(71,0,o),
(85,0,cs),
(1134,0,ls),
(1147,0,o),
(1159,11,o),
(1159,25,cs),
(1159,39,o),
(1147,50,o),
(1134,50,cs)
);
}
);
width = 1219;
},
{
layerId = "19FA402B-9607-46D9-AAD6-815AECBA5B6B";
shapes = (
{
closed = 1;
nodes = (
(403,481,o),
(224,660,o),
(224,881,cs),
(224,1101,o),
(403,1280,o),
(624,1280,cs),
(844,1280,o),
(1023,1101,o),
(1023,881,cs),
(1023,660,o),
(844,481,o),
(624,481,cs)
);
},
{
closed = 1;
nodes = (
(910,361,o),
(1143,594,o),
(1143,881,cs),
(1143,1167,o),
(910,1400,o),
(624,1400,cs),
(337,1400,o),
(104,1167,o),
(104,881,cs),
(104,594,o),
(337,361,o),
(624,361,cs)
);
},
{
closed = 1;
nodes = (
(130,124,ls),
(97,124,o),
(70,97,o),
(70,64,cs),
(70,31,o),
(97,4,o),
(130,4,cs),
(1116,4,ls),
(1149,4,o),
(1176,31,o),
(1176,64,cs),
(1176,97,o),
(1149,124,o),
(1116,124,cs)
);
}
);
width = 1246;
},
{
layerId = "FF87E3F2-B049-41CB-BF2F-09DB15105515";
shapes = (
{
closed = 1;
nodes = (
(541,661,o),
(443,759,o),
(443,881,cs),
(443,1002,o),
(541,1100,o),
(663,1100,cs),
(784,1100,o),
(882,1002,o),
(882,881,cs),
(882,759,o),
(784,661,o),
(663,661,cs)
);
},
{
closed = 1;
nodes = (
(952,361,o),
(1182,596,o),
(1182,881,cs),
(1182,1168,o),
(950,1400,o),
(663,1400,cs),
(378,1400,o),
(143,1170,o),
(143,881,cs),
(143,593,o),
(375,361,o),
(663,361,cs)
);
},
{
closed = 1;
nodes = (
(250,304,ls),
(167,304,o),
(100,237,o),
(100,154,cs),
(100,71,o),
(167,4,o),
(250,4,cs),
(1074,4,ls),
(1157,4,o),
(1224,71,o),
(1224,154,cs),
(1224,237,o),
(1157,304,o),
(1074,304,cs)
);
}
);
width = 1324;
}
);
metricLeft = A;
metricRight = A;
unicode = 937;
},
{
color = 5;
glyphname = pi;
lastChange = "2022-06-03 00:46:04 +0000";
layers = (
{
layerId = m01;
shapes = (
{
closed = 1;
nodes = (
(327,623,ls),
(327,636,o),
(316,648,o),
(302,648,cs),
(288,648,o),
(277,636,o),
(277,623,cs),
(277,26,ls),
(277,12,o),
(288,1,o),
(302,1,cs),
(316,1,o),
(327,12,o),
(327,26,cs)
);
},
{
closed = 1;
nodes = (
(85,1000,ls),
(71,1000,o),
(60,989,o),
(60,975,cs),
(60,961,o),
(71,950,o),
(85,950,cs),
(875,950,l),
(875,1000,l)
);
},
{
closed = 1;
nodes = (
(970,50,o),
(895,126,o),
(895,220,cs),
(895,975,ls),
(895,989,o),
(884,1000,o),
(870,1000,cs),
(856,1000,o),
(845,989,o),
(845,975,cs),
(845,220,ls),
(845,99,o),
(942,0,o),
(1064,0,cs),
(1078,0,o),
(1089,11,o),
(1089,25,cs),
(1089,39,o),
(1078,50,o),
(1064,50,cs)
);
}
);
width = 1149;
},
{
layerId = "19FA402B-9607-46D9-AAD6-815AECBA5B6B";
shapes = (
{
closed = 1;
nodes = (
(407,591,ls),
(407,624,o),
(380,651,o),
(347,651,cs),
(314,651,o),
(287,624,o),
(287,591,cs),
(287,60,ls),
(287,27,o),
(314,0,o),
(347,0,cs),
(380,0,o),
(407,27,o),
(407,60,cs)
);
},
{
closed = 1;
nodes = (
(130,1000,ls),
(97,1000,o),
(70,973,o),
(70,940,cs),
(70,907,o),
(97,880,o),
(130,880,cs),
(886,880,l),
(886,1000,l)
);
},
{
closed = 1;
nodes = (
(1016,120,o),
(946,190,o),
(946,277,cs),
(946,940,ls),
(946,973,o),
(919,1000,o),
(886,1000,cs),
(853,1000,o),
(826,973,o),
(826,940,cs),
(826,277,ls),
(826,124,o),
(950,0,o),
(1103,0,cs),
(1136,0,o),
(1163,27,o),
(1163,60,cs),
(1163,93,o),
(1136,120,o),
(1103,120,cs)
);
}
);
width = 1233;
},
{
layerId = "FF87E3F2-B049-41CB-BF2F-09DB15105515";
shapes = (
{
closed = 1;
nodes = (
(617,410,ls),
(617,493,o),
(550,560,o),
(467,560,cs),
(384,560,o),
(317,493,o),
(317,410,cs),
(317,150,ls),
(317,67,o),
(384,0,o),
(467,0,cs),
(550,0,o),
(617,67,o),
(617,150,cs)
);
},
{
closed = 1;
nodes = (
(250,1000,ls),
(167,1000,o),
(100,933,o),
(100,850,cs),
(100,767,o),
(167,700,o),
(250,700,cs),
(929,700,l),
(929,1000,l)
);
},
{
closed = 1;
nodes = (
(1138,300,o),
(1085,353,o),
(1085,418,cs),
(1085,850,ls),
(1085,933,o),
(1018,1000,o),
(935,1000,cs),
(852,1000,o),
(785,933,o),
(785,850,cs),
(785,418,ls),
(785,187,o),
(972,0,o),
(1204,0,cs),
(1287,0,o),
(1354,67,o),
(1354,150,cs),
(1354,233,o),
(1287,300,o),
(1204,300,cs)
);
}
);
width = 1454;
}
);
metricLeft = A;
metricRight = A;
unicode = 960;
},
{
color = 1;
glyphname = zero;
lastChange = "2022-06-03 00:46:04 +0000";
layers = (
{
layerId = m01;
shapes = (
{
closed = 1;
nodes = (
(644,307,ls),
(644,165,o),
(529,50,o),
(387,50,cs),
(245,50,o),
(130,165,o),
(130,307,cs),
(130,321,o),
(119,332,o),
(105,332,cs),
(91,332,o),
(80,321,o),
(80,307,cs),
(80,137,o),
(217,0,o),
(387,0,cs),
(557,0,o),
(694,137,o),
(694,307,cs),
(694,588,ls),
(694,602,o),
(683,613,o),
(669,613,cs),
(655,613,o),
(644,602,o),
(644,588,cs)
);
},
{
closed = 1;
nodes = (
(205,609,ls),
(198,604,o),
(194,597,o),
(194,588,cs),
(194,574,o),
(205,563,o),
(219,563,cs),
(224,563,o),
(229,565,o),
(233,567,c),
(569,791,ls),
(576,796,o),
(580,803,o),
(580,812,cs),
(580,826,o),
(569,837,o),
(555,837,cs),
(550,837,o),
(545,835,o),
(541,833,c)
);
},
{
closed = 1;
nodes = (
(130,1093,ls),
(130,1235,o),
(245,1350,o),
(387,1350,cs),
(529,1350,o),
(644,1235,o),
(644,1093,cs),
(644,1079,o),
(655,1068,o),
(669,1068,cs),
(683,1068,o),
(694,1079,o),
(694,1093,cs),
(694,1263,o),
(557,1400,o),
(387,1400,cs),
(217,1400,o),
(80,1263,o),
(80,1093,cs),
(80,812,ls),
(80,798,o),
(91,787,o),
(105,787,cs),
(119,787,o),
(130,798,o),
(130,812,cs)
);
}
);
width = 774;
},
{
layerId = "19FA402B-9607-46D9-AAD6-815AECBA5B6B";
shapes = (
{
closed = 1;
nodes = (
(676,352,ls),
(676,226,o),
(574,124,o),
(448,124,cs),
(322,124,o),
(220,226,o),
(220,352,cs),
(220,385,o),
(193,412,o),
(160,412,cs),
(127,412,o),
(100,385,o),
(100,352,cs),
(100,160,o),
(256,4,o),
(448,4,cs),
(640,4,o),
(796,160,o),
(796,352,cs),
(796,601,ls),
(796,634,o),
(769,661,o),
(736,661,cs),
(703,661,o),
(676,634,o),
(676,601,cs)
);
},
{
closed = 1;
nodes = (
(266,651,ls),
(250,640,o),
(239,622,o),
(239,601,cs),
(239,568,o),
(266,541,o),
(299,541,cs),
(311,541,o),
(323,545,o),
(332,551,cs),
(630,749,ls),
(646,760,o),
(657,778,o),
(657,799,cs),
(657,832,o),
(630,859,o),
(597,859,cs),
(585,859,o),
(573,855,o),
(564,849,cs)
);
},
{
closed = 1;
nodes = (
(220,1048,ls),
(220,1174,o),
(322,1276,o),
(448,1276,cs),
(574,1276,o),
(676,1174,o),
(676,1048,cs),
(676,1015,o),
(703,988,o),
(736,988,cs),
(769,988,o),
(796,1015,o),
(796,1048,cs),
(796,1240,o),
(640,1396,o),
(448,1396,cs),
(256,1396,o),
(100,1240,o),
(100,1048,cs),
(100,799,ls),
(100,766,o),
(127,739,o),
(160,739,cs),
(193,739,o),
(220,766,o),
(220,799,cs)
);
}
);
width = 896;
},
{
layerId = "FF87E3F2-B049-41CB-BF2F-09DB15105515";
shapes = (
{
closed = 1;
nodes = (
(707,459,ls),
(707,371,o),
(636,300,o),
(549,300,cs),
(462,300,o),
(391,371,o),
(391,459,cs),
(391,542,o),
(324,609,o),
(241,609,cs),
(158,609,o),
(91,542,o),
(91,459,cs),
(91,205,o),
(296,0,o),
(549,0,cs),
(802,0,o),
(1007,205,o),
(1007,459,cs),
(1007,471,ls),
(1007,554,o),
(940,621,o),
(857,621,cs),
(774,621,o),
(707,554,o),
(707,471,cs)
);
},
{
closed = 1;
nodes = (
(435,821,ls),
(375,801,o),
(332,744,o),
(332,678,cs),
(332,595,o),
(399,528,o),
(482,528,cs),
(498,528,o),
(514,531,o),
(529,535,cs),
(663,579,ls),
(723,599,o),
(766,656,o),
(766,722,cs),
(766,805,o),
(699,872,o),
(616,872,cs),
(600,872,o),
(584,869,o),
(569,865,cs)
);
},
{
closed = 1;
nodes = (
(391,941,ls),
(391,1029,o),
(462,1100,o),
(549,1100,cs),
(636,1100,o),
(707,1029,o),
(707,941,cs),
(707,858,o),
(774,791,o),
(857,791,cs),
(940,791,o),
(1007,858,o),
(1007,941,cs),
(1007,1195,o),
(802,1400,o),
(549,1400,cs),
(296,1400,o),
(91,1195,o),
(91,941,cs),
(91,929,ls),
(91,846,o),
(158,779,o),
(241,779,cs),
(324,779,o),
(391,846,o),
(391,929,cs)
);
}
);
width = 1098;
}
);
unicode = 48;
},
{
color = 1;
glyphname = one;
lastChange = "2022-06-03 00:46:04 +0000";
layers = (
{
layerId = m01;
shapes = (
{
closed = 1;
nodes = (
(497,440,ls),
(497,454,o),
(486,465,o),
(472,465,cs),
(458,465,o),
(447,454,o),
(447,440,cs),
(447,26,ls),
(447,12,o),
(458,1,o),
(472,1,cs),
(486,1,o),
(497,12,o),
(497,26,cs)
);
},
{
closed = 1;
nodes = (
(159,1158,l),
(154,1153,o),
(150,1146,o),
(150,1138,cs),
(150,1124,o),
(161,1113,o),
(175,1113,cs),
(181,1113,o),
(186,1115,o),
(191,1118,c),
(488,1354,l),
(493,1359,o),
(497,1366,o),
(497,1374,cs),
(497,1388,o),
(486,1399,o),
(472,1399,cs),
(466,1399,o),
(461,1397,o),
(456,1394,c)
);
},
{
closed = 1;
nodes = (
(497,1375,ls),
(497,1388,o),
(486,1400,o),
(472,1400,cs),
(458,1400,o),
(447,1388,o),
(447,1375,cs),
(447,840,ls),
(447,826,o),
(458,815,o),
(472,815,cs),
(486,815,o),
(497,826,o),
(497,840,cs)
);
}
);
width = 774;
},
{
layerId = "19FA402B-9607-46D9-AAD6-815AECBA5B6B";
shapes = (
{
closed = 1;
nodes = (
(588,440,ls),
(588,473,o),
(561,500,o),
(528,500,cs),
(495,500,o),
(468,473,o),
(468,440,cs),
(468,60,ls),
(468,27,o),
(495,0,o),
(528,0,cs),
(561,0,o),
(588,27,o),
(588,60,cs)
);
},
{
closed = 1;
nodes = (
(197,1187,ls),
(181,1177,o),
(171,1159,o),
(171,1138,cs),
(171,1105,o),
(198,1078,o),
(231,1078,cs),
(244,1078,o),
(255,1082,o),
(265,1089,cs),
(562,1293,ls),
(578,1303,o),
(588,1321,o),
(588,1342,cs),
(588,1375,o),
(561,1402,o),
(528,1402,cs),
(515,1402,o),
(504,1398,o),
(494,1391,cs)
);
},
{
closed = 1;
nodes = (
(588,1340,ls),
(588,1373,o),
(561,1400,o),
(528,1400,cs),
(495,1400,o),
(468,1373,o),
(468,1340,cs),
(468,840,ls),
(468,807,o),
(495,780,o),
(528,780,cs),
(561,780,o),
(588,807,o),
(588,840,cs)
);
}
);
width = 896;
},
{
layerId = "FF87E3F2-B049-41CB-BF2F-09DB15105515";
shapes = (
{
closed = 1;
nodes = (
(764,410,ls),
(764,493,o),
(697,560,o),
(614,560,cs),
(531,560,o),
(464,493,o),
(464,410,cs),
(464,150,ls),
(464,67,o),
(531,0,o),
(614,0,cs),
(697,0,o),
(764,67,o),
(764,150,cs)
);
},
{
closed = 1;
nodes = (
(234,1178,ls),
(194,1151,o),
(167,1105,o),
(167,1053,cs),
(167,970,o),
(234,903,o),
(317,903,cs),
(348,903,o),
(376,912,o),
(400,928,cs),
(697,1125,ls),
(737,1152,o),
(764,1198,o),
(764,1250,cs),
(764,1333,o),
(697,1400,o),
(614,1400,cs),
(583,1400,o),
(555,1391,o),
(531,1375,cs)
);
},
{
closed = 1;
nodes = (
(764,1250,ls),
(764,1333,o),
(697,1400,o),
(614,1400,cs),
(531,1400,o),
(464,1333,o),
(464,1250,cs),
(464,850,ls),
(464,767,o),
(531,700,o),
(614,700,cs),
(697,700,o),
(764,767,o),
(764,850,cs)
);
}
);
width = 1098;
}
);
unicode = 49;
},
{
color = 1;
glyphname = two;
lastChange = "2022-06-03 00:46:04 +0000";
layers = (
{
layerId = m01;
shapes = (
{
closed = 1;
nodes = (
(670,0,ls),
(683,0,o),
(695,11,o),
(695,25,cs),
(695,39,o),
(683,50,o),
(670,50,cs),
(104,50,ls),
(90,50,o),
(79,39,o),
(79,25,cs),
(79,11,o),
(90,0,o),
(104,0,cs)
);
},
{
closed = 1;
nodes = (
(418,488,ls),
(421,492,o),
(422,496,o),
(422,501,cs),
(422,515,o),
(411,526,o),
(397,526,cs),
(388,526,o),
(380,521,o),
(376,514,cs),
(87,53,ls),
(84,49,o),
(83,44,o),
(83,39,cs),
(83,25,o),
(94,14,o),
(108,14,cs),
(117,14,o),
(124,19,o),
(129,25,c)
);
},
{
closed = 1;
nodes = (
(130,1235,o),
(245,1350,o),
(387,1350,cs),
(529,1350,o),
(644,1235,o),
(644,1093,cs),
(644,1079,o),
(655,1068,o),
(669,1068,cs),
(683,1068,o),
(694,1079,o),
(694,1093,cs),
(694,1263,o),
(557,1400,o),
(387,1400,cs),
(217,1400,o),
(80,1263,o),
(80,1093,cs),
(80,1079,o),
(91,1068,o),
(105,1068,cs),
(119,1068,o),
(130,1079,o),
(130,1093,cs)
);
}
);
width = 774;
},
{
layerId = "19FA402B-9607-46D9-AAD6-815AECBA5B6B";
shapes = (
{
closed = 1;
nodes = (
(736,0,ls),
(769,0,o),
(796,27,o),
(796,60,cs),
(796,93,o),
(769,120,o),
(736,120,cs),
(160,120,ls),
(127,120,o),
(100,93,o),
(100,60,cs),
(100,27,o),
(127,0,o),
(160,0,cs)
);
},
{
closed = 1;
nodes = (
(544,464,ls),
(552,474,o),
(557,487,o),
(557,501,cs),
(557,534,o),
(530,561,o),
(497,561,cs),
(478,561,o),
(461,552,o),
(450,538,cs),
(107,100,ls),
(99,90,o),
(94,77,o),
(94,63,cs),
(94,29,o),
(121,3,o),
(154,3,cs),
(173,3,o),
(190,11,o),
(201,25,cs)
);
},
{
closed = 1;
nodes = (
(218,1177,o),
(321,1280,o),
(448,1280,cs),
(575,1280,o),
(678,1177,o),
(678,1050,cs),
(678,1017,o),
(705,990,o),
(738,990,cs),
(771,990,o),
(798,1017,o),
(798,1050,cs),
(798,1243,o),
(641,1400,o),
(448,1400,cs),
(255,1400,o),
(98,1243,o),
(98,1050,cs),
(98,1017,o),
(125,990,o),
(158,990,cs),
(191,990,o),
(218,1017,o),
(218,1050,cs)
);
}
);
width = 896;
},
{
layerId = "FF87E3F2-B049-41CB-BF2F-09DB15105515";
shapes = (
{
closed = 1;
nodes = (
(877,0,ls),
(960,0,o),
(1027,67,o),
(1027,150,cs),
(1027,233,o),
(960,300,o),
(877,300,cs),
(243,300,ls),
(160,300,o),
(93,233,o),
(93,150,cs),
(93,67,o),
(160,0,o),
(243,0,cs)
);
},
{
closed = 1;
nodes = (
(670,400,ls),
(694,427,o),
(709,462,o),
(709,501,cs),
(709,584,o),
(642,651,o),
(559,651,cs),
(514.993,651,o),
(475,632,o),
(448,602,cs),
(142,265,ls),
(118,239,o),
(103,203,o),
(103,164,cs),
(103,81,o),
(170,14,o),
(253,14,cs),
(297,14,o),
(336,33,o),
(363,63,cs)
);
},
{
closed = 1;
nodes = (
(392,1029,o),
(463,1100,o),
(550,1100,cs),
(637,1100,o),
(708,1029,o),
(708,941,cs),
(708,858,o),
(775,791,o),
(858,791,cs),
(941,791,o),
(1008,858,o),
(1008,941,cs),
(1008,1195,o),
(803,1400,o),
(550,1400,cs),
(297,1400,o),
(92,1195,o),
(92,941,cs),
(92,858,o),
(159,791,o),
(242,791,cs),
(325,791,o),
(392,858,o),
(392,941,cs)
);
}
);
width = 1098;
}
);
unicode = 50;
},
{
color = 1;
glyphname = three;
lastChange = "2022-06-03 00:46:04 +0000";
layers = (
{
layerId = m01;
shapes = (
{
closed = 1;
nodes = (
(644,165,o),
(529,50,o),
(387,50,cs),
(245,50,o),
(130,165,o),
(130,307,cs),
(130,321,o),
(119,332,o),
(105,332,cs),
(91,332,o),
(80,321,o),
(80,307,cs),
(80,137,o),
(217,0,o),
(387,0,cs),
(557,0,o),
(694,137,o),
(694,307,cs),
(694,321,o),
(683,332,o),
(669,332,cs),
(655,332,o),
(644,321,o),
(644,307,cs)
);
},
{
closed = 1;
nodes = (
(130,1235,o),
(245,1350,o),
(387,1350,cs),
(529,1350,o),
(644,1235,o),
(644,1093,cs),
(644,951,o),
(529,836,o),
(387,836,cs),
(373,836,o),
(362,825,o),
(362,811,cs),
(362,797,o),
(373,786,o),
(387,786,cs),
(557,786,o),
(694,923,o),
(694,1093,cs),
(694,1263,o),
(557,1400,o),
(387,1400,cs),
(217,1400,o),
(80,1263,o),
(80,1093,cs),
(80,1079,o),
(91,1068,o),
(105,1068,cs),
(119,1068,o),
(130,1079,o),
(130,1093,cs)
);
}
);
width = 774;
},
{
layerId = "19FA402B-9607-46D9-AAD6-815AECBA5B6B";
shapes = (
{
closed = 1;
nodes = (
(678,223,o),
(575,120,o),
(448,120,cs),
(321,120,o),
(218,223,o),
(218,350,cs),
(218,383,o),
(191,410,o),
(158,410,cs),
(125,410,o),
(98,383,o),
(98,350,cs),
(98,157,o),
(255,0,o),
(448,0,cs),
(641,0,o),
(798,157,o),
(798,350,cs),
(798,383,o),
(771,410,o),
(738,410,cs),
(705,410,o),
(678,383,o),
(678,350,cs)
);
},
{
closed = 1;
nodes = (
(220,1177,o),
(323,1280,o),
(450,1280,cs),
(577,1280,o),
(680,1177,o),
(680,1050,cs),
(680,923,o),
(577,820,o),
(450,820,cs),
(417,820,o),
(390,793,o),
(390,760,cs),
(390,727,o),
(417,700,o),
(450,700,cs),
(643,700,o),
(800,857,o),
(800,1050,cs),
(800,1243,o),
(643,1400,o),
(450,1400,cs),
(257,1400,o),
(100,1243,o),
(100,1050,cs),
(100,1017,o),
(127,990,o),
(160,990,cs),
(193,990,o),
(220,1017,o),
(220,1050,cs)
);
}
);
width = 896;
},
{
layerId = "FF87E3F2-B049-41CB-BF2F-09DB15105515";
shapes = (
{
closed = 1;
nodes = (
(670,354,o),
(616,300,o),
(548,300,cs),
(481,300,o),
(427,354,o),
(427,421,cs),
(427,504,o),
(360,571,o),
(277,571,cs),
(194,571,o),
(127,504,o),
(127,421,cs),
(127,188,o),
(315,0,o),
(548,0,cs),
(782,0,o),
(970,188,o),
(970,421,cs),
(970,504,o),
(903,571,o),
(820,571,cs),
(737,571,o),
(670,504,o),
(670,421,cs)
);
},
{
closed = 1;
nodes = (
(428,1046,o),
(482,1100,o),
(550,1100,cs),
(617,1100,o),
(671,1046,o),
(671,979,cs),
(671,912,o),
(617,857,o),
(550,857,cs),
(467,857,o),
(400,790,o),
(400,707,cs),
(400,624,o),
(467,557,o),
(550,557,cs),
(783,557,o),
(971,746,o),
(971,979,cs),
(971,1212,o),
(783,1400,o),
(550,1400,cs),
(316,1400,o),
(128,1212,o),
(128,979,cs),
(128,896,o),
(195,829,o),
(278,829,cs),
(361,829,o),
(428,896,o),
(428,979,cs)
);
}
);
width = 1098;
}
);
unicode = 51;
},
{
color = 1;
glyphname = four;
lastChange = "2022-06-03 00:46:04 +0000";
layers = (
{
layerId = m01;
shapes = (
{
closed = 1;
nodes = (
(69,425,ls),
(55,425,o),
(44,414,o),
(44,400,cs),
(44,386,o),
(55,375,o),
(69,375,cs),
(435,375,ls),
(449,375,o),
(460,386,o),
(460,400,cs),
(460,414,o),
(449,425,o),
(435,425,cs)
);
},
{
closed = 1;
nodes = (
(670,26,ls),
(670,12,o),
(681,1,o),
(695,1,cs),
(709,1,o),
(720,12,o),
(720,26,cs),
(720,1000,ls),
(720,1014,o),
(709,1025,o),
(695,1025,cs),
(681,1025,o),
(670,1014,o),
(670,1000,cs)
);
},
{
closed = 1;
nodes = (
(546,1364,l),
(548,1367,o),
(548,1371,o),
(548,1375,cs),
(548,1388,o),
(537,1400,o),
(523,1400,cs),
(514,1400,o),
(505,1394,o),
(501,1386,cs),
(45,411,l),
(44,407,o),
(43,404,o),
(43,400,cs),
(43,386,o),
(54,375,o),
(68,375,cs),
(78,375,o),
(87,381,o),
(91,389,cs)
);
}
);
width = 774;
},
{
layerId = "19FA402B-9607-46D9-AAD6-815AECBA5B6B";
shapes = (
{
closed = 1;
nodes = (
(140,460,ls),
(107,460,o),
(80,433,o),
(80,400,cs),
(80,367,o),
(107,340,o),
(140,340,cs),
(475,340,ls),
(508,340,o),
(535,367,o),
(535,400,cs),
(535,433,o),
(508,460,o),
(475,460,cs)
);
},
{
closed = 1;
nodes = (
(675,60,ls),
(675,27,o),
(702,0,o),
(735,0,cs),
(768,0,o),
(795,27,o),
(795,60,cs),
(795,1000,ls),
(795,1033,o),
(768,1060,o),
(735,1060,cs),
(702,1060,o),
(675,1033,o),
(675,1000,cs)
);
},
{
closed = 1;
nodes = (
(602,1314,ls),
(606,1322,o),
(608,1331,o),
(608,1340,cs),
(608,1373,o),
(581,1400,o),
(548,1400,cs),
(524,1400,o),
(503,1386,o),
(494,1366,cs),
(70,425,ls),
(67,417,o),
(65,409,o),
(65,400,cs),
(65,367,o),
(92,340,o),
(125,340,cs),
(149,340,o),
(170,355,o),
(180,375,cs)
);
}
);
width = 896;
},
{
layerId = "FF87E3F2-B049-41CB-BF2F-09DB15105515";
shapes = (
{
closed = 1;
nodes = (
(223,550,ls),
(140,550,o),
(73,483,o),
(73,400,cs),
(73,317,o),
(140,250,o),
(223,250,cs),
(517,250,ls),
(600,250,o),
(667,317,o),
(667,400,cs),
(667,483,o),
(600,550,o),
(517,550,cs)
);
},
{
closed = 1;
nodes = (
(727,150,ls),
(727,67,o),
(794,0,o),
(877,0,cs),
(960,0,o),
(1027,67,o),
(1027,150,cs),
(1027,1000,ls),
(1027,1083,o),
(960,1150,o),
(877,1150,cs),
(794,1150,o),
(727,1083,o),
(727,1000,cs)
);
},
{
closed = 1;
nodes = (
(692,1190,ls),
(700,1208,o),
(705,1229,o),
(705,1250,cs),
(705,1333,o),
(638,1400,o),
(555,1400,cs),
(493,1400,o),
(440,1363,o),
(417,1310,cs),
(68,457,ls),
(61,439,o),
(57,420,o),
(57,400,cs),
(57,317,o),
(124,250,o),
(207,250,cs),
(270,250,o),
(323,289,o),
(346,343,cs)
);
}
);
width = 1098;
}
);
unicode = 52;
},
{
color = 1;
glyphname = five;
lastChange = "2022-06-03 00:46:04 +0000";
layers = (
{
layerId = m01;
shapes = (
{
closed = 1;
nodes = (
(559,758,o),
(689,628,o),
(689,467,cs),
(689,341,ls),
(689,180,o),
(559,50,o),
(398,50,cs),
(237,50,o),
(107,180,o),
(107,341,cs),
(107,355,o),
(96,366,o),
(82,366,cs),
(68,366,o),
(57,355,o),
(57,341,cs),
(57,152,o),
(209,0,o),
(398,0,cs),
(587,0,o),
(739,152,o),
(739,341,cs),
(739,467,ls),
(739,656,o),
(587,808,o),
(398,808,cs),
(384,808,o),
(373,797,o),
(373,783,cs),
(373,769,o),
(384,758,o),
(398,758,cs)
);
},
{
closed = 1;
nodes = (
(106,1378,l),
(56,1378,l),
(56,880,ls),
(56,866,o),
(67,855,o),
(81,855,cs),
(95,855,o),
(106,866,o),
(106,880,cs)
);
},
{
closed = 1;
nodes = (
(714,1350,ls),
(727,1350,o),
(739,1361,o),
(739,1375,cs),
(739,1389,o),
(727,1400,o),
(714,1400,cs),
(81,1400,ls),
(67,1400,o),
(56,1389,o),
(56,1375,cs),
(56,1361,o),
(67,1350,o),
(81,1350,cs)
);
}
);
width = 774;
},
{
layerId = "19FA402B-9607-46D9-AAD6-815AECBA5B6B";
shapes = (
{
closed = 1;
nodes = (
(575,680,o),
(678,577,o),
(678,450,cs),
(678,350,ls),
(678,223,o),
(575,120,o),
(448,120,cs),
(321,120,o),
(218,223,o),
(218,350,cs),
(218,383,o),
(191,410,o),
(158,410,cs),
(125,410,o),
(98,383,o),
(98,350,cs),
(98,157,o),
(255,0,o),
(448,0,cs),
(641,0,o),
(798,157,o),
(798,350,cs),
(798,450,ls),
(798,643,o),
(641,800,o),
(448,800,cs),
(415,800,o),
(388,773,o),
(388,740,cs),
(388,707,o),
(415,680,o),
(448,680,cs)
);
},
{
closed = 1;
nodes = (
(221,1338,l),
(101,1338,l),
(101,930,ls),
(101,897,o),
(128,870,o),
(161,870,cs),
(194,870,o),
(221,897,o),
(221,930,cs)
);
},
{
closed = 1;
nodes = (
(753,1280,ls),
(786,1280,o),
(813,1307,o),
(813,1340,cs),
(813,1373,o),
(786,1400,o),
(753,1400,cs),
(161,1400,ls),
(128,1400,o),
(101,1373,o),
(101,1340,cs),
(101,1307,o),
(128,1280,o),
(161,1280,cs)
);
}
);
width = 896;
},
{
layerId = "FF87E3F2-B049-41CB-BF2F-09DB15105515";
shapes = (
{
closed = 1;
nodes = (
(637,648,o),
(708,577,o),
(708,489,cs),
(708,459,ls),
(708,371,o),
(637,300,o),
(550,300,cs),
(463,300,o),
(392,371,o),
(392,459,cs),
(392,542,o),
(325,609,o),
(242,609,cs),
(159,609,o),
(92,542,o),
(92,459,cs),
(92,205,o),
(297,0,o),
(550,0,cs),
(803,0,o),
(1008,205,o),
(1008,459,cs),
(1008,489,ls),
(1008,743,o),
(803,948,o),
(550,948,cs),
(467,948,o),
(400,881,o),
(400,798,cs),
(400,715,o),
(467,648,o),
(550,648,cs)
);
},
{
closed = 1;
nodes = (
(392,1238,l),
(92,1238,l),
(92,930,ls),
(92,847,o),
(159,780,o),
(242,780,cs),
(325,780,o),
(392,847,o),
(392,930,cs)
);
},
{
closed = 1;
nodes = (
(859,1100,ls),
(942,1100,o),
(1009,1167,o),
(1009,1250,cs),
(1009,1333,o),
(942,1400,o),
(859,1400,cs),
(242,1400,ls),
(159,1400,o),
(92,1333,o),
(92,1250,cs),
(92,1167,o),
(159,1100,o),
(242,1100,cs)
);
}
);
width = 1098;
}
);
unicode = 53;
},
{
color = 1;
glyphname = six;
lastChange = "2022-06-03 00:46:04 +0000";
layers = (
{
layerId = m01;
shapes = (
{
closed = 1;
nodes = (
(231,50,o),
(103,176,o),
(103,334,cs),
(103,490,o),
(231,618,o),
(387,618,cs),
(543,618,o),
(671,490,o),
(671,334,cs),
(671,176,o),
(543,50,o),
(387,50,cs)
);
},
{
closed = 1;
nodes = (
(570,0,o),
(721,148,o),
(721,334,cs),
(721,518,o),
(571,668,o),
(387,668,cs),
(203,668,o),
(53,518,o),
(53,334,cs),
(53,148,o),
(204,0,o),
(387,0,cs)
);
},
{
closed = 1;
nodes = (
(275,922,ls),
(273,918,o),
(272,914,o),
(272,910,cs),
(272,896,o),
(283,885,o),
(297,885,cs),
(307,885,o),
(315,890,o),
(319,898,cs),
(563,1363,ls),
(565,1367,o),
(567,1371,o),
(567,1375,cs),
(567,1389,o),
(555,1400,o),
(542,1400,cs),
(532,1400,o),
(524,1395,o),
(520,1387,cs)
);
}
);
width = 774;
},
{
layerId = "19FA402B-9607-46D9-AAD6-815AECBA5B6B";
shapes = (
{
closed = 1;
nodes = (
(319,120,o),
(216,223,o),
(216,350,cs),
(216,477,o),
(319,580,o),
(446,580,cs),
(573,580,o),
(676,477,o),
(676,350,cs),
(676,223,o),
(573,120,o),
(446,120,cs)
);
},
{
closed = 1;
nodes = (
(639,0,o),
(796,157,o),
(796,350,cs),
(796,543,o),
(639,700,o),
(446,700,cs),
(253,700,o),
(96,543,o),
(96,350,cs),
(96,157,o),
(253,0,o),
(446,0,cs)
);
},
{
closed = 1;
nodes = (
(303,938,ls),
(298,930,o),
(296,920,o),
(296,910,cs),
(296,877,o),
(323,850,o),
(356,850,cs),
(379,850,o),
(399,863,o),
(409,882,cs),
(634,1311,ls),
(639,1320,o),
(642,1330,o),
(642,1340,cs),
(642,1373,o),
(615,1400,o),
(582,1400,cs),
(559,1400,o),
(540,1388,o),
(529,1369,cs)
);
}
);
width = 896;
},
{
layerId = "FF87E3F2-B049-41CB-BF2F-09DB15105515";
shapes = (
{
closed = 1;
nodes = (
(455,300,o),
(383,372,o),
(383,460,cs),
(383,548,o),
(455,620,o),
(543,620,cs),
(631,620,o),
(703,548,o),
(703,460,cs),
(703,372,o),
(631,300,o),
(543,300,cs)
);
},
{
closed = 1;
nodes = (
(797,0,o),
(1003,206,o),
(1003,460,cs),
(1003,714,o),
(797,920,o),
(543,920,cs),
(289,920,o),
(83,714,o),
(83,460,cs),
(83,206,o),
(289,0,o),
(543,0,cs)
);
},
{
closed = 1;
nodes = (
(450,1197,ls),
(429,1171,o),
(417,1139,o),
(417,1103,cs),
(417,1020,o),
(484,953,o),
(567,953,cs),
(614,953,o),
(657,975,o),
(684,1009,cs),
(801,1155,ls),
(822,1181,o),
(835,1214,o),
(835,1250,cs),
(835,1333,o),
(767,1400,o),
(685,1400,cs),
(638,1400,o),
(596,1378,o),
(568,1344,cs)
);
}
);
width = 1098;
}
);
unicode = 54;
},
{
color = 1;
glyphname = seven;
lastChange = "2022-06-03 00:46:04 +0000";
layers = (
{
layerId = m01;
shapes = (
{
closed = 1;
nodes = (
(230,0,o),
(240,7,o),
(243,16,cs),
(729,1366,ls),
(734,1380,o),
(725,1400,o),
(705,1400,cs),
(695,1400,o),
(685,1393,o),
(682,1384,cs),
(196,34,ls),
(191,20,o),
(200,0,o),
(220,0,cs)
);
},
{
closed = 1;
nodes = (
(84,1400,ls),
(70,1400,o),
(59,1389,o),
(59,1375,cs),
(59,1361,o),
(70,1350,o),
(84,1350,cs),
(419,1350,ls),
(432,1350,o),
(444,1361,o),
(444,1375,cs),
(444,1389,o),
(432,1400,o),
(419,1400,cs)
);
}
);
width = 774;
},
{
layerId = "19FA402B-9607-46D9-AAD6-815AECBA5B6B";
shapes = (
{
closed = 1;
nodes = (
(308,0,o),
(330,16,o),
(338,38,cs),
(799,1319,ls),
(814,1358,o),
(785,1400,o),
(743,1400,cs),
(717,1400,o),
(695,1384,o),
(687,1362,cs),
(226,81,ls),
(211,42,o),
(240,0,o),
(282,0,cs)
);
},
{
closed = 1;
nodes = (
(165,1400,ls),
(132,1400,o),
(105,1373,o),
(105,1340,cs),
(105,1307,o),
(132,1280,o),
(165,1280,cs),
(437,1280,ls),
(470,1280,o),
(497,1307,o),
(497,1340,cs),
(497,1373,o),
(470,1400,o),
(437,1400,cs)
);
}
);
width = 896;
},
{
layerId = "FF87E3F2-B049-41CB-BF2F-09DB15105515";
shapes = (
{
closed = 1;
nodes = (
(468,0,o),
(520,36,o),
(544,87,cs),
(1020,1188,ls),
(1060,1276,o),
(1003,1400,o),
(883,1400,cs),
(823,1400,o),
(771,1364,o),
(747,1313,cs),
(271,212,ls),
(231,124,o),
(288,0,o),
(408,0,cs)
);
},
{
closed = 1;
nodes = (
(229,1400,ls),
(146,1400,o),
(79,1333,o),
(79,1250,cs),
(79,1167,o),
(146,1100,o),
(229,1100,cs),
(439,1100,ls),
(522,1100,o),
(589,1167,o),
(589,1250,cs),
(589,1333,o),
(522,1400,o),
(439,1400,cs)
);
}
);
width = 1098;
}
);
unicode = 55;
},
{
color = 1;
glyphname = eight;
lastChange = "2022-06-03 00:46:04 +0000";
layers = (
{
layerId = m01;
shapes = (
{
closed = 1;
nodes = (
(694,165,o),
(579,50,o),
(437,50,cs),
(423,50,o),
(412,39,o),
(412,25,cs),
(412,11,o),
(423,0,o),
(437,0,cs),
(607,0,o),
(744,137,o),
(744,307,cs),
(744,321,o),
(733,332,o),
(719,332,cs),
(705,332,o),
(694,321,o),
(694,307,cs)
);
},
{
closed = 1;
nodes = (
(644,836,o),
(533,725,o),
(387,725,cs),
(217,725,o),
(80,588,o),
(80,418,cs),
(80,404,o),
(91,393,o),
(105,393,cs),
(119,393,o),
(130,404,o),
(130,418,cs),
(130,564,o),
(241,675,o),
(387,675,cs),
(557,675,o),
(694,812,o),
(694,982,cs),
(694,996,o),
(683,1007,o),
(669,1007,cs),
(655,1007,o),
(644,996,o),
(644,982,cs)
);
},
{
closed = 1;
nodes = (
(130,1235,o),
(245,1350,o),
(387,1350,cs),
(401,1350,o),
(412,1361,o),
(412,1375,cs),
(412,1389,o),
(401,1400,o),
(387,1400,cs),
(217,1400,o),
(80,1263,o),
(80,1093,cs),
(80,1079,o),
(91,1068,o),
(105,1068,cs),
(119,1068,o),
(130,1079,o),
(130,1093,cs)
);
}
);
width = 774;
},
{
layerId = "19FA402B-9607-46D9-AAD6-815AECBA5B6B";
shapes = (
{
closed = 1;
nodes = (
(678,223,o),
(575,120,o),
(448,120,cs),
(415,120,o),
(388,93,o),
(388,60,cs),
(388,27,o),
(415,0,o),
(448,0,cs),
(641,0,o),
(798,157,o),
(798,350,cs),
(798,383,o),
(771,410,o),
(738,410,cs),
(705,410,o),
(678,383,o),
(678,350,cs)
);
},
{
closed = 1;
nodes = (
(676,854,o),
(581,759,o),
(446,759,cs),
(253,759,o),
(96,602,o),
(96,409,cs),
(96,376,o),
(123,349,o),
(156,349,cs),
(189,349,o),
(216,376,o),
(216,409,cs),
(216,544,o),
(311,639,o),
(446,639,cs),
(639,639,o),
(796,796,o),
(796,989,cs),
(796,1022,o),
(769,1049,o),
(736,1049,cs),
(703,1049,o),
(676,1022,o),
(676,989,cs)
);
},
{
closed = 1;
nodes = (
(218,1177,o),
(321,1280,o),
(448,1280,cs),
(481,1280,o),
(508,1307,o),
(508,1340,cs),
(508,1373,o),
(481,1400,o),
(448,1400,cs),
(255,1400,o),
(98,1243,o),
(98,1050,cs),
(98,1017,o),
(125,990,o),
(158,990,cs),
(191,990,o),
(218,1017,o),
(218,1050,cs)
);
}
);
width = 896;
},
{
layerId = "FF87E3F2-B049-41CB-BF2F-09DB15105515";
shapes = (
{
closed = 1;
nodes = (
(698,368,o),
(623,300,o),
(540,300,cs),
(457,300,o),
(390,233,o),
(390,150,cs),
(390,67,o),
(457,0,o),
(540,0,cs),
(786,0,o),
(998,200,o),
(998,459,cs),
(998,542,o),
(931,609,o),
(848,609,cs),
(765,609,o),
(698,542,o),
(698,459,cs)
);
},
{
closed = 1;
nodes = (
(694,893,o),
(646,850,o),
(549,850,cs),
(314,850,o),
(104,658,o),
(104,403,cs),
(104,320,o),
(171,253,o),
(254,253,cs),
(337,253,o),
(404,320,o),
(404,403,cs),
(404,507,o),
(452,550,o),
(549,550,cs),
(784,550,o),
(994,742,o),
(994,997,cs),
(994,1080,o),
(927,1147,o),
(844,1147,cs),
(761,1147,o),
(694,1080,o),
(694,997,cs)
);
},
{
closed = 1;
nodes = (
(400,1032,o),
(475,1100,o),
(558,1100,cs),
(641,1100,o),
(708,1167,o),
(708,1250,cs),
(708,1333,o),
(641,1400,o),
(558,1400,cs),
(312,1400,o),
(100,1200,o),
(100,941,cs),
(100,858,o),
(167,791,o),
(250,791,cs),
(333,791,o),
(400,858,o),
(400,941,cs)
);
}
);
width = 1098;
}
);
unicode = 56;
},
{
color = 1;
glyphname = nine;
lastChange = "2022-06-03 00:46:04 +0000";
layers = (
{
layerId = m01;
shapes = (
{
closed = 1;
nodes = (
(231,782,o),
(103,910,o),
(103,1066,cs),
(103,1224,o),
(231,1350,o),
(387,1350,cs),
(543,1350,o),
(671,1224,o),
(671,1066,cs),
(671,910,o),
(543,782,o),
(387,782,cs)
);
},
{
closed = 1;
nodes = (
(571,732,o),
(721,882,o),
(721,1066,cs),
(721,1252,o),
(570,1400,o),
(387,1400,cs),
(204,1400,o),
(53,1252,o),
(53,1066,cs),
(53,882,o),
(203,732,o),
(387,732,cs)
);
},
{
closed = 1;
nodes = (
(499,478,ls),
(501,482,o),
(502,486,o),
(502,490,cs),
(502,504,o),
(491,515,o),
(477,515,cs),
(467,515,o),
(459,510,o),
(455,502,cs),
(211,37,ls),
(209,33,o),
(207,29,o),
(207,25,cs),
(207,11,o),
(219,0,o),
(232,0,cs),
(242,0,o),
(250,5,o),
(254,13,cs)
);
}
);
width = 774;
},
{
layerId = "19FA402B-9607-46D9-AAD6-815AECBA5B6B";
shapes = (
{
closed = 1;
nodes = (
(323,820,o),
(220,923,o),
(220,1050,cs),
(220,1177,o),
(323,1280,o),
(450,1280,cs),
(577,1280,o),
(680,1177,o),
(680,1050,cs),
(680,923,o),
(577,820,o),
(450,820,cs)
);
},
{
closed = 1;
nodes = (
(643,700,o),
(800,857,o),
(800,1050,cs),
(800,1243,o),
(643,1400,o),
(450,1400,cs),
(257,1400,o),
(100,1243,o),
(100,1050,cs),
(100,857,o),
(257,700,o),
(450,700,cs)
);
},
{
closed = 1;
nodes = (
(593,462,ls),
(598,470,o),
(600,480,o),
(600,490,cs),
(600,523,o),
(573,550,o),
(540,550,cs),
(517,550,o),
(497,537,o),
(487,518,cs),
(262,89,ls),
(257,80,o),
(254,70,o),
(254,60,cs),
(254,27,o),
(281,0,o),
(314,0,cs),
(337,0,o),
(356,12,o),
(367,31,cs)
);
}
);
width = 896;
},
{
layerId = "FF87E3F2-B049-41CB-BF2F-09DB15105515";
shapes = (
{
closed = 1;
nodes = (
(467,780,o),
(395,852,o),
(395,940,cs),
(395,1028,o),
(467,1100,o),
(555,1100,cs),
(643,1100,o),
(715,1028,o),
(715,940,cs),
(715,852,o),
(643,780,o),
(555,780,cs)
);
},
{
closed = 1;
nodes = (
(809,480,o),
(1015,686,o),
(1015,940,cs),
(1015,1194,o),
(809,1400,o),
(555,1400,cs),
(301,1400,o),
(95,1194,o),
(95,940,cs),
(95,686,o),
(301,480,o),
(555,480,cs)
);
},
{
closed = 1;
nodes = (
(648,203,ls),
(669,229,o),
(681,262,o),
(681,297,cs),
(681,380,o),
(614,447,o),
(531,447,cs),
(484,447,o),
(441,425,o),
(414,391,cs),
(298,246,ls),
(277,220,o),
(264,187,o),
(264,151,cs),
(264,69,o),
(332,1,o),
(414,1,cs),
(461,1,o),
(503,23,o),
(531,57,cs)
);
}
);
width = 1098;
}
);
unicode = 57;
},
{
color = 2;
glyphname = fraction;
lastChange = "2022-06-03 00:46:04 +0000";
layers = (
{
layerId = m01;
shapes = (
{
closed = 1;
nodes = (
(-410,52,ls),
(-413,48,o),
(-415,42,o),
(-415,36,cs),
(-415,22,o),
(-404,11,o),
(-390,11,cs),
(-384,11,o),
(-378,14,o),
(-373,18,c),
(756,1348,ls),
(759,1352,o),
(761,1358,o),
(761,1364,cs),
(761,1378,o),
(750,1389,o),
(736,1389,cs),
(730,1389,o),
(724,1386,o),
(719,1382,c)
);
}
);
width = 346;
},
{
layerId = "19FA402B-9607-46D9-AAD6-815AECBA5B6B";
shapes = (
{
closed = 1;
nodes = (
(-416,99,ls),
(-425,89,o),
(-430,75,o),
(-430,60,cs),
(-430,27,o),
(-403,0,o),
(-370,0,cs),
(-352,0,o),
(-336,8,o),
(-325,21,cs),
(762,1301,ls),
(771,1311,o),
(776,1325,o),
(776,1340,cs),
(776,1373,o),
(749,1400,o),
(716,1400,cs),
(698,1400,o),
(682,1392,o),
(671,1379,cs)
);
}
);
width = 346;
},
{
layerId = "FF87E3F2-B049-41CB-BF2F-09DB15105515";
shapes = (
{
closed = 1;
nodes = (
(-422,162,ls),
(-437,144,o),
(-446,121,o),
(-446,96,cs),
(-446,41,o),
(-402,-4,o),
(-346,-4,cs),
(-316,-4,o),
(-289,10,o),
(-271,31,cs),
(768,1238,ls),
(783,1256,o),
(792,1279,o),
(792,1304,cs),
(792,1359,o),
(748,1404,o),
(692,1404,cs),
(662,1404,o),
(635,1390,o),
(617,1369,cs)
);
}
);
width = 346;
}
);
unicode = 8260;
},
{
color = 2;
glyphname = zerosuperior;
lastChange = "2022-06-03 00:46:04 +0000";
layers = (
{
layerId = m01;
shapes = (
{
closed = 1;
nodes = (
(368,1208,ls),
(368,1134,o),
(308,1074,o),
(234,1074,cs),
(160,1074,o),
(100,1134,o),
(100,1208,cs),
(100,1222,o),
(89,1233,o),
(75,1233,cs),
(61,1233,o),
(50,1222,o),
(50,1208,cs),
(50,1106,o),
(132,1024,o),
(234,1024,cs),
(336,1024,o),
(418,1106,o),
(418,1208,cs),
(418,1354,ls),
(418,1368,o),
(407,1379,o),
(393,1379,cs),
(379,1379,o),
(368,1368,o),
(368,1354,cs)
);
},
{
closed = 1;
nodes = (
(133,1375,ls),
(126,1370,o),
(122,1363,o),
(122,1354,cs),
(122,1340,o),
(133,1329,o),
(147,1329,cs),
(152,1329,o),
(157,1331,o),
(161,1333,c),
(335,1449,ls),
(342,1454,o),
(346,1461,o),
(346,1470,cs),
(346,1484,o),
(335,1495,o),
(321,1495,cs),
(316,1495,o),
(311,1493,o),
(307,1491,c)
);
},
{
closed = 1;
nodes = (
(100,1616,ls),
(100,1690,o),
(160,1750,o),
(234,1750,cs),
(308,1750,o),
(368,1690,o),
(368,1616,cs),
(368,1602,o),
(379,1591,o),
(393,1591,cs),
(407,1591,o),
(418,1602,o),
(418,1616,cs),
(418,1718,o),
(336,1800,o),
(234,1800,cs),
(132,1800,o),
(50,1718,o),
(50,1616,cs),
(50,1470,ls),
(50,1456,o),
(61,1445,o),
(75,1445,cs),
(89,1445,o),
(100,1456,o),
(100,1470,cs)
);
}
);
width = 468;
},
{
layerId = "19FA402B-9607-46D9-AAD6-815AECBA5B6B";
shapes = (
{
closed = 1;
nodes = (
(384,1238,ls),
(384,1175,o),
(333,1124,o),
(270,1124,cs),
(207,1124,o),
(156,1175,o),
(156,1238,cs),
(156,1266,o),
(134,1288,o),
(106,1288,cs),
(78,1288,o),
(56,1266,o),
(56,1238,cs),
(56,1120,o),
(152,1024,o),
(270,1024,cs),
(388,1024,o),
(484,1120,o),
(484,1238,cs),
(484,1303,ls),
(484,1331,o),
(462,1353,o),
(434,1353,cs),
(406,1353,o),
(384,1331,o),
(384,1303,cs)
);
},
{
closed = 1;
nodes = (
(168,1405,ls),
(155,1396,o),
(146,1380,o),
(146,1363,cs),
(146,1335,o),
(168,1313,o),
(196,1313,cs),
(206,1313,o),
(216,1316,o),
(224,1321,cs),
(373,1420,ls),
(386,1429,o),
(395,1445,o),
(395,1462,cs),
(395,1490,o),
(373,1512,o),
(345,1512,cs),
(335,1512,o),
(325,1509,o),
(317,1504,cs)
);
},
{
closed = 1;
nodes = (
(156,1586,ls),
(156,1649,o),
(207,1700,o),
(270,1700,cs),
(333,1700,o),
(384,1649,o),
(384,1586,cs),
(384,1558,o),
(406,1536,o),
(434,1536,cs),
(462,1536,o),
(484,1558,o),
(484,1586,cs),
(484,1704,o),
(388,1800,o),
(270,1800,cs),
(152,1800,o),
(56,1704,o),
(56,1586,cs),
(56,1522,ls),
(56,1494,o),
(78,1472,o),
(106,1472,cs),
(134,1472,o),
(156,1494,o),
(156,1522,cs)
);
}
);
width = 540;
},
{
layerId = "FF87E3F2-B049-41CB-BF2F-09DB15105515";
shapes = (
{
closed = 1;
nodes = (
(413,1268,ls),
(413,1216,o),
(371,1174,o),
(319,1174,cs),
(267,1174,o),
(225,1216,o),
(225,1268,cs),
(225,1309,o),
(191,1343,o),
(150,1343,cs),
(109,1343,o),
(75,1309,o),
(75,1268,cs),
(75,1133,o),
(184,1024,o),
(319,1024,cs),
(454,1024,o),
(563,1133,o),
(563,1268,cs),
(563,1322,ls),
(563,1363,o),
(529,1397,o),
(488,1397,cs),
(447,1397,o),
(413,1363,o),
(413,1322,cs)
);
},
{
closed = 1;
nodes = (
(234,1445,ls),
(214,1432,o),
(201,1409,o),
(201,1383,cs),
(201,1342,o),
(235,1308,o),
(276,1308,cs),
(291,1308,o),
(306,1313,o),
(318,1321,cs),
(405,1379,ls),
(425,1392,o),
(438,1415,o),
(438,1441,cs),
(438,1482,o),
(404,1516,o),
(363,1516,cs),
(348,1516,o),
(333,1511,o),
(321,1503,cs)
);
},
{
closed = 1;
nodes = (
(225,1556,ls),
(225,1608,o),
(267,1650,o),
(319,1650,cs),
(371,1650,o),
(413,1608,o),
(413,1556,cs),
(413,1515,o),
(447,1481,o),
(488,1481,cs),
(529,1481,o),
(563,1515,o),
(563,1556,cs),
(563,1691,o),
(454,1800,o),
(319,1800,cs),
(184,1800,o),
(75,1691,o),
(75,1556,cs),
(75,1503,ls),
(75,1462,o),
(109,1428,o),
(150,1428,cs),
(191,1428,o),
(225,1462,o),
(225,1503,cs)
);
}
);
width = 638;
}
);
unicode = 8304;
},
{
color = 2;
glyphname = onesuperior;
lastChange = "2022-06-03 00:46:04 +0000";
layers = (
{
layerId = m01;
shapes = (
{
closed = 1;
nodes = (
(279,1268,ls),
(279,1282,o),
(268,1293,o),
(254,1293,cs),
(240,1293,o),
(229,1282,o),
(229,1268,cs),
(229,1050,ls),
(229,1036,o),
(240,1025,o),
(254,1025,cs),
(268,1025,o),
(279,1036,o),
(279,1050,cs)
);
},
{
closed = 1;
nodes = (
(74,1665,ls),
(68,1660,o),
(64,1653,o),
(64,1645,cs),
(64,1631,o),
(75,1620,o),
(89,1620,cs),
(95,1620,o),
(100,1622,o),
(104,1625,cs),
(269,1755,ls),
(275,1760,o),
(279,1767,o),
(279,1775,cs),
(279,1789,o),
(268,1800,o),
(254,1800,cs),
(248,1800,o),
(243,1798,o),
(239,1795,cs)
);
},
{
closed = 1;
nodes = (
(279,1775,ls),
(279,1788,o),
(268,1800,o),
(254,1800,cs),
(240,1800,o),
(229,1788,o),
(229,1775,cs),
(229,1489,ls),
(229,1475,o),
(240,1464,o),
(254,1464,cs),
(268,1464,o),
(279,1475,o),
(279,1489,cs)
);
}
);
width = 468;
},
{
layerId = "19FA402B-9607-46D9-AAD6-815AECBA5B6B";
shapes = (
{
closed = 1;
nodes = (
(354,1302,ls),
(354,1330,o),
(332,1352,o),
(304,1352,cs),
(276,1352,o),
(254,1330,o),
(254,1302,cs),
(254,1074,ls),
(254,1046,o),
(276,1024,o),
(304,1024,cs),
(332,1024,o),
(354,1046,o),
(354,1074,cs)
);
},
{
closed = 1;
nodes = (
(128,1689,ls),
(115,1680,o),
(106,1665,o),
(106,1648,cs),
(106,1620,o),
(128,1598,o),
(156,1598,cs),
(167,1598,o),
(176,1601,o),
(184,1607,cs),
(332,1709,ls),
(345,1718,o),
(354,1733,o),
(354,1750,cs),
(354,1778,o),
(332,1800,o),
(304,1800,cs),
(293,1800,o),
(284,1797,o),
(276,1791,cs)
);
},
{
closed = 1;
nodes = (
(354,1750,ls),
(354,1778,o),
(332,1800,o),
(304,1800,cs),
(276,1800,o),
(254,1778,o),
(254,1750,cs),
(254,1502,ls),
(254,1474,o),
(276,1452,o),
(304,1452,cs),
(332,1452,o),
(354,1474,o),
(354,1502,cs)
);
}
);
width = 540;
},
{
layerId = "FF87E3F2-B049-41CB-BF2F-09DB15105515";
shapes = (
{
closed = 1;
nodes = (
(409,1251,ls),
(409,1292,o),
(375,1326,o),
(334,1326,cs),
(293,1326,o),
(259,1292,o),
(259,1251,cs),
(259,1099,ls),
(259,1057,o),
(293,1024,o),
(334,1024,cs),
(375,1024,o),
(409,1057,o),
(409,1099,cs)
);
},
{
closed = 1;
nodes = (
(128,1679,ls),
(107,1665,o),
(94,1642,o),
(94,1616,cs),
(94,1575,o),
(128,1541,o),
(169,1541,cs),
(184,1541,o),
(198,1546,o),
(210,1553,cs),
(375,1662,ls),
(396,1676,o),
(409,1699,o),
(409,1725,cs),
(409,1766,o),
(375,1800,o),
(334,1800,cs),
(319,1800,o),
(305,1795,o),
(293,1788,cs)
);
},
{
closed = 1;
nodes = (
(409,1725,ls),
(409,1766,o),
(375,1800,o),
(334,1800,cs),
(293,1800,o),
(259,1766,o),
(259,1725,cs),
(259,1495,ls),
(259,1454,o),
(293,1420,o),
(334,1420,cs),
(375,1420,o),
(409,1454,o),
(409,1495,cs)
);
}
);
width = 638;
}
);
unicode = 185;
},
{
color = 2;
glyphname = twosuperior;
lastChange = "2022-06-03 00:46:04 +0000";
layers = (
{
layerId = m01;
shapes = (
{
closed = 1;
nodes = (
(394,1024,ls),
(407,1024,o),
(419,1035,o),
(419,1049,cs),
(419,1063,o),
(407,1074,o),
(394,1074,cs),
(75,1074,ls),
(61,1074,o),
(50,1063,o),
(50,1049,cs),
(50,1035,o),
(61,1024,o),
(75,1024,cs)
);
},
{
closed = 1;
nodes = (
(263,1280,l),
(265,1284,o),
(267,1289,o),
(267,1294,cs),
(267,1308,o),
(256,1319,o),
(242,1319,cs),
(233,1319,o),
(226,1315,o),
(221,1308,cs),
(55,1065,ls),
(52,1061,o),
(51,1056,o),
(51,1051,cs),
(51,1037,o),
(62,1026,o),
(76,1026,cs),
(84,1026,o),
(92,1030,o),
(96,1036,cs)
);
},
{
closed = 1;
nodes = (
(100,1690,o),
(160,1750,o),
(234,1750,cs),
(308,1750,o),
(368,1690,o),
(368,1616,cs),
(368,1602,o),
(379,1591,o),
(393,1591,cs),
(407,1591,o),
(418,1602,o),
(418,1616,cs),
(418,1718,o),
(336,1800,o),
(234,1800,cs),
(132,1800,o),
(50,1718,o),
(50,1616,cs),
(50,1602,o),
(61,1591,o),
(75,1591,cs),
(89,1591,o),
(100,1602,o),
(100,1616,cs)
);
}
);
width = 468;
},
{
layerId = "19FA402B-9607-46D9-AAD6-815AECBA5B6B";
shapes = (
{
closed = 1;
nodes = (
(433,1024,ls),
(461,1024,o),
(483,1046,o),
(483,1074,cs),
(483,1102,o),
(461,1124,o),
(433,1124,cs),
(101,1124,ls),
(73,1124,o),
(51,1102,o),
(51,1074,cs),
(51,1046,o),
(73,1024,o),
(101,1024,cs)
);
},
{
closed = 1;
nodes = (
(301,1251,ls),
(308,1260,o),
(312,1270,o),
(312,1282,cs),
(312,1310,o),
(290,1332,o),
(262,1332,cs),
(246,1332,o),
(232,1324,o),
(223,1313,cs),
(63,1108,ls),
(56,1099,o),
(52,1088,o),
(52,1076,cs),
(52,1049,o),
(74,1026,o),
(102,1026,cs),
(118,1026,o),
(132,1034,o),
(141,1045,cs)
);
},
{
closed = 1;
nodes = (
(151,1648,o),
(203,1700,o),
(266,1700,cs),
(329,1700,o),
(381,1648,o),
(381,1585,cs),
(381,1557,o),
(403,1535,o),
(431,1535,cs),
(459,1535,o),
(481,1557,o),
(481,1585,cs),
(481,1703,o),
(384,1800,o),
(266,1800,cs),
(148,1800,o),
(51,1703,o),
(51,1585,cs),
(51,1557,o),
(73,1535,o),
(101,1535,cs),
(129,1535,o),
(151,1557,o),
(151,1585,cs)
);
}
);
width = 540;
},
{
layerId = "FF87E3F2-B049-41CB-BF2F-09DB15105515";
shapes = (
{
closed = 1;
nodes = (
(486,1023,ls),
(527,1023,o),
(561,1057,o),
(561,1098,cs),
(561,1139,o),
(527,1173,o),
(486,1173,cs),
(154,1173,ls),
(112,1173,o),
(79,1139,o),
(79,1098,cs),
(79,1057,o),
(112,1023,o),
(154,1023,cs)
);
},
{
closed = 1;
nodes = (
(374,1262,ls),
(384,1275,o),
(390,1291,o),
(390,1308,cs),
(390,1349,o),
(356,1383,o),
(315,1383,cs),
(291,1383,o),
(270,1372,o),
(256,1354,cs),
(93,1146,ls),
(83,1133,o),
(77,1117,o),
(77,1099,cs),
(77,1058,o),
(110,1024,o),
(152,1024,cs),
(175,1024,o),
(197,1035,o),
(210,1052,cs)
);
},
{
closed = 1;
nodes = (
(230,1610,o),
(271,1650,o),
(320,1650,cs),
(370,1650,o),
(410,1610,o),
(410,1559,cs),
(410,1518,o),
(444,1484,o),
(485,1484,cs),
(526,1484,o),
(560,1518,o),
(560,1559,cs),
(560,1693,o),
(453,1800,o),
(320,1800,cs),
(188,1800,o),
(80,1693,o),
(80,1559,cs),
(80,1518,o),
(114,1484,o),
(155,1484,cs),
(196,1484,o),
(230,1518,o),
(230,1559,cs)
);
}
);
width = 638;
}
);
unicode = 178;
},
{
color = 2;
glyphname = threesuperior;
lastChange = "2022-06-03 00:46:04 +0000";
layers = (
{
layerId = m01;
shapes = (
{
closed = 1;
nodes = (
(368,1134,o),
(308,1074,o),
(234,1074,cs),
(160,1074,o),
(100,1134,o),
(100,1208,cs),
(100,1222,o),
(89,1233,o),
(75,1233,cs),
(61,1233,o),
(50,1222,o),
(50,1208,cs),
(50,1106,o),
(132,1024,o),
(234,1024,cs),
(336,1024,o),
(418,1106,o),
(418,1208,cs),
(418,1222,o),
(407,1233,o),
(393,1233,cs),
(379,1233,o),
(368,1222,o),
(368,1208,cs)
);
},
{
closed = 1;
nodes = (
(100,1690,o),
(160,1750,o),
(234,1750,cs),
(308,1750,o),
(368,1690,o),
(368,1616,cs),
(368,1543,o),
(308,1483,o),
(234,1483,cs),
(220,1483,o),
(209,1472,o),
(209,1458,cs),
(209,1444,o),
(220,1433,o),
(234,1433,cs),
(336,1433,o),
(418,1515,o),
(418,1616,cs),
(418,1718,o),
(336,1800,o),
(234,1800,cs),
(132,1800,o),
(50,1718,o),
(50,1616,cs),
(50,1602,o),
(61,1591,o),
(75,1591,cs),
(89,1591,o),
(100,1602,o),
(100,1616,cs)
);
}
);
width = 468;
},
{
layerId = "19FA402B-9607-46D9-AAD6-815AECBA5B6B";
shapes = (
{
closed = 1;
nodes = (
(382,1178,o),
(331,1126,o),
(267,1126,cs),
(204,1126,o),
(152,1178,o),
(152,1241,cs),
(152,1269,o),
(130,1291,o),
(102,1291,cs),
(74,1291,o),
(52,1269,o),
(52,1241,cs),
(52,1123,o),
(149,1026,o),
(267,1026,cs),
(386,1026,o),
(482,1123,o),
(482,1241,cs),
(482,1269,o),
(460,1291,o),
(432,1291,cs),
(404,1291,o),
(382,1269,o),
(382,1241,cs)
);
},
{
closed = 1;
nodes = (
(153,1652,o),
(205,1704,o),
(268,1704,cs),
(331,1704,o),
(383,1652,o),
(383,1589,cs),
(383,1526,o),
(331,1474,o),
(268,1474,cs),
(240,1474,o),
(218,1452,o),
(218,1424,cs),
(218,1396,o),
(240,1374,o),
(268,1374,cs),
(386,1374,o),
(483,1471,o),
(483,1589,cs),
(483,1707,o),
(386,1804,o),
(268,1804,cs),
(150,1804,o),
(53,1707,o),
(53,1589,cs),
(53,1561,o),
(75,1539,o),
(103,1539,cs),
(131,1539,o),
(153,1561,o),
(153,1589,cs)
);
}
);
width = 540;
},
{
layerId = "FF87E3F2-B049-41CB-BF2F-09DB15105515";
shapes = (
{
closed = 1;
nodes = (
(390,1205,o),
(357,1173,o),
(316,1173,cs),
(276,1173,o),
(244,1205,o),
(244,1245,cs),
(244,1286,o),
(210,1320,o),
(169,1320,cs),
(128,1320,o),
(94,1286,o),
(94,1245,cs),
(94,1122,o),
(193,1023,o),
(316,1023,cs),
(440,1023,o),
(540,1122,o),
(540,1245,cs),
(540,1286,o),
(506,1320,o),
(465,1320,cs),
(424,1320,o),
(390,1286,o),
(390,1245,cs)
);
},
{
closed = 1;
nodes = (
(244,1618,o),
(277,1650,o),
(318,1650,cs),
(358,1650,o),
(390,1618,o),
(390,1577,cs),
(390,1537,o),
(358,1504,o),
(318,1504,cs),
(277,1504,o),
(243,1470,o),
(243,1429,cs),
(243,1388,o),
(277,1354,o),
(318,1354,cs),
(441,1354,o),
(540,1454,o),
(540,1577,cs),
(540,1701,o),
(441,1800,o),
(318,1800,cs),
(194,1800,o),
(94,1701,o),
(94,1577,cs),
(94,1536,o),
(128,1502,o),
(169,1502,cs),
(210,1502,o),
(244,1536,o),
(244,1577,cs)
);
}
);
width = 638;
}
);
unicode = 179;
},
{
color = 2;
glyphname = foursuperior;
lastChange = "2022-06-03 00:46:04 +0000";
layers = (
{
layerId = m01;
shapes = (
{
closed = 1;
nodes = (
(63,1271,l),
(63,1221,l),
(256,1221,ls),
(270,1221,o),
(281,1232,o),
(281,1246,cs),
(281,1260,o),
(270,1271,o),
(256,1271,cs)
);
},
{
closed = 1;
nodes = (
(355,1050,ls),
(355,1036,o),
(366,1025,o),
(380,1025,cs),
(394,1025,o),
(405,1036,o),
(405,1050,cs),
(405,1577,ls),
(405,1591,o),
(394,1602,o),
(380,1602,cs),
(366,1602,o),
(355,1591,o),
(355,1577,cs)
);
},
{
closed = 1;
nodes = (
(314,1765,ls),
(315,1768,o),
(316,1772,o),
(316,1775,cs),
(316,1789,o),
(305,1800,o),
(291,1800,cs),
(281,1800,o),
(272,1794,o),
(268,1786,cs),
(41,1256,ls),
(40,1253,o),
(39,1250,o),
(39,1246,cs),
(39,1232,o),
(50,1221,o),
(64,1221,cs),
(74,1221,o),
(83,1227,o),
(87,1236,cs)
);
}
);
width = 468;
},
{
layerId = "19FA402B-9607-46D9-AAD6-815AECBA5B6B";
shapes = (
{
closed = 1;
nodes = (
(107,1279,l),
(107,1179,l),
(268,1179,ls),
(296,1179,o),
(318,1201,o),
(318,1229,cs),
(318,1257,o),
(296,1279,o),
(268,1279,cs)
);
},
{
closed = 1;
nodes = (
(368,1074,ls),
(368,1046,o),
(390,1024,o),
(418,1024,cs),
(446,1024,o),
(468,1046,o),
(468,1074,cs),
(468,1469,ls),
(468,1497,o),
(446,1519,o),
(418,1519,cs),
(390,1519,o),
(368,1497,o),
(368,1469,cs)
);
},
{
closed = 1;
nodes = (
(373,1728,ls),
(376,1734,o),
(377,1741,o),
(377,1749,cs),
(377,1776,o),
(355,1799,o),
(327,1799,cs),
(307,1799,o),
(290,1787,o),
(282,1770,cs),
(57,1249,ls),
(54,1243,o),
(53,1236,o),
(53,1229,cs),
(53,1201,o),
(75,1179,o),
(103,1179,cs),
(124,1179,o),
(141,1191,o),
(149,1209,cs)
);
}
);
width = 540;
},
{
layerId = "FF87E3F2-B049-41CB-BF2F-09DB15105515";
shapes = (
{
closed = 1;
nodes = (
(140,1320,l),
(140,1170,l),
(291,1170,ls),
(332,1170,o),
(366,1204,o),
(366,1245,cs),
(366,1286,o),
(332,1320,o),
(291,1320,cs)
);
},
{
closed = 1;
nodes = (
(395,1092,ls),
(395,1050,o),
(429,1017,o),
(470,1017,cs),
(511,1017,o),
(545,1050,o),
(545,1092,cs),
(545,1498,ls),
(545,1539,o),
(511,1573,o),
(470,1573,cs),
(429,1573,o),
(395,1539,o),
(395,1498,cs)
);
},
{
closed = 1;
nodes = (
(429,1691,ls),
(434,1701,o),
(437,1712,o),
(437,1724,cs),
(437,1765,o),
(403,1799,o),
(362,1799,cs),
(332,1799,o),
(306,1782,o),
(294,1757,cs),
(73,1276,ls),
(68,1267,o),
(66,1256,o),
(66,1245,cs),
(66,1204,o),
(100,1170,o),
(141,1170,cs),
(171,1170,o),
(197,1188,o),
(209,1214,cs)
);
}
);
width = 638;
}
);
unicode = 8308;
},
{
color = 2;
glyphname = fivesuperior;
lastChange = "2022-06-03 00:46:04 +0000";
layers = (
{
layerId = m01;
shapes = (
{
closed = 1;
nodes = (
(308,1432,o),
(368,1372,o),
(368,1298,cs),
(368,1208,ls),
(368,1134,o),
(308,1074,o),
(234,1074,cs),
(160,1074,o),
(100,1134,o),
(100,1208,cs),
(100,1222,o),
(89,1233,o),
(75,1233,cs),
(61,1233,o),
(50,1222,o),
(50,1208,cs),
(50,1106,o),
(132,1024,o),
(234,1024,cs),
(336,1024,o),
(418,1106,o),
(418,1208,cs),
(418,1298,ls),
(418,1400,o),
(336,1482,o),
(234,1482,cs),
(220,1482,o),
(209,1471,o),
(209,1457,cs),
(209,1443,o),
(220,1432,o),
(234,1432,cs)
);
},
{
closed = 1;
nodes = (
(108,1775,l),
(58,1775,l),
(58,1527,ls),
(58,1513,o),
(69,1502,o),
(83,1502,cs),
(97,1502,o),
(108,1513,o),
(108,1527,cs)
);
},
{
closed = 1;
nodes = (
(392,1750,ls),
(405,1750,o),
(417,1761,o),
(417,1775,cs),
(417,1789,o),
(405,1800,o),
(392,1800,cs),
(83,1800,ls),
(69,1800,o),
(58,1789,o),
(58,1775,cs),
(58,1761,o),
(69,1750,o),
(83,1750,cs)
);
}
);
width = 468;
},
{
layerId = "19FA402B-9607-46D9-AAD6-815AECBA5B6B";
shapes = (
{
closed = 1;
nodes = (
(338,1406,o),
(389,1355,o),
(389,1291,cs),
(389,1241,ls),
(389,1178,o),
(338,1126,o),
(274,1126,cs),
(211,1126,o),
(159,1178,o),
(159,1241,cs),
(159,1269,o),
(137,1291,o),
(109,1291,cs),
(81,1291,o),
(59,1269,o),
(59,1241,cs),
(59,1123,o),
(156,1026,o),
(274,1026,cs),
(393,1026,o),
(489,1123,o),
(489,1241,cs),
(489,1291,ls),
(489,1410,o),
(393,1506,o),
(274,1506,cs),
(246,1506,o),
(224,1484,o),
(224,1456,cs),
(224,1428,o),
(246,1406,o),
(274,1406,cs)
);
},
{
closed = 1;
nodes = (
(169,1753,l),
(69,1753,l),
(69,1529,ls),
(69,1501,o),
(91,1479,o),
(119,1479,cs),
(147,1479,o),
(169,1501,o),
(169,1529,cs)
);
},
{
closed = 1;
nodes = (
(434,1700,ls),
(462,1700,o),
(484,1722,o),
(484,1750,cs),
(484,1778,o),
(462,1800,o),
(434,1800,cs),
(119,1800,ls),
(91,1800,o),
(69,1778,o),
(69,1750,cs),
(69,1722,o),
(91,1700,o),
(119,1700,cs)
);
}
);
width = 540;
},
{
layerId = "FF87E3F2-B049-41CB-BF2F-09DB15105515";
shapes = (
{
closed = 1;
nodes = (
(362,1344,o),
(395,1312,o),
(395,1272,cs),
(395,1245,ls),
(395,1205,o),
(362,1173,o),
(321,1173,cs),
(281,1173,o),
(249,1205,o),
(249,1245,cs),
(249,1286,o),
(215,1320,o),
(174,1320,cs),
(133,1320,o),
(99,1286,o),
(99,1245,cs),
(99,1122,o),
(198,1023,o),
(321,1023,cs),
(445,1023,o),
(545,1122,o),
(545,1245,cs),
(545,1272,ls),
(545,1395,o),
(445,1494,o),
(321,1494,cs),
(280,1494,o),
(246,1460,o),
(246,1419,cs),
(246,1378,o),
(280,1344,o),
(321,1344,cs)
);
},
{
closed = 1;
nodes = (
(249,1725,l),
(99,1725,l),
(99,1541,ls),
(99,1500,o),
(133,1466,o),
(174,1466,cs),
(215,1466,o),
(249,1500,o),
(249,1541,cs)
);
},
{
closed = 1;
nodes = (
(468,1650,ls),
(509,1650,o),
(543,1684,o),
(543,1725,cs),
(543,1766,o),
(509,1800,o),
(468,1800,cs),
(174,1800,ls),
(132,1800,o),
(99,1766,o),
(99,1725,cs),
(99,1684,o),
(132,1650,o),
(174,1650,cs)
);
}
);
width = 638;
}
);
unicode = 8309;
},
{
color = 2;
glyphname = sixsuperior;
lastChange = "2022-06-03 00:46:04 +0000";
layers = (
{
layerId = m01;
shapes = (
{
closed = 1;
nodes = (
(160,1074,o),
(100,1134,o),
(100,1208,cs),
(100,1282,o),
(160,1342,o),
(234,1342,cs),
(308,1342,o),
(368,1282,o),
(368,1208,cs),
(368,1134,o),
(308,1074,o),
(234,1074,cs)
);
},
{
closed = 1;
nodes = (
(336,1024,o),
(418,1106,o),
(418,1208,cs),
(418,1310,o),
(336,1392,o),
(234,1392,cs),
(132,1392,o),
(50,1310,o),
(50,1208,cs),
(50,1106,o),
(132,1024,o),
(234,1024,cs)
);
},
{
closed = 1;
nodes = (
(155,1513,ls),
(154,1510,o),
(153,1507,o),
(153,1503,cs),
(153,1489,o),
(164,1478,o),
(178,1478,cs),
(188,1478,o),
(197,1484,o),
(201,1493,cs),
(325,1764,l),
(327,1767,o),
(328,1771,o),
(328,1775,cs),
(328,1788,o),
(316,1800,o),
(303,1800,cs),
(293,1800,o),
(284,1794,o),
(280,1785,cs)
);
}
);
width = 468;
},
{
layerId = "19FA402B-9607-46D9-AAD6-815AECBA5B6B";
shapes = (
{
closed = 1;
nodes = (
(204,1123,o),
(152,1175,o),
(152,1238,cs),
(152,1302,o),
(204,1353,o),
(267,1353,cs),
(331,1353,o),
(382,1302,o),
(382,1238,cs),
(382,1175,o),
(331,1123,o),
(267,1123,cs)
);
},
{
closed = 1;
nodes = (
(386,1023,o),
(482,1120,o),
(482,1238,cs),
(482,1357,o),
(386,1453,o),
(267,1453,cs),
(149,1453,o),
(52,1357,o),
(52,1238,cs),
(52,1120,o),
(149,1023,o),
(267,1023,cs)
);
},
{
closed = 1;
nodes = (
(178,1575,ls),
(174,1568,o),
(172,1560,o),
(172,1552,cs),
(172,1524,o),
(194,1502,o),
(222,1502,cs),
(241,1502,o),
(258,1513,o),
(266,1529,cs),
(370,1726,ls),
(374,1733,o),
(376,1741,o),
(376,1750,cs),
(376,1778,o),
(354,1800,o),
(326,1800,cs),
(307,1800,o),
(291,1790,o),
(282,1774,cs)
);
}
);
width = 540;
},
{
layerId = "FF87E3F2-B049-41CB-BF2F-09DB15105515";
shapes = (
{
closed = 1;
nodes = (
(267,1174,o),
(225,1216,o),
(225,1268,cs),
(225,1320,o),
(267,1362,o),
(319,1362,cs),
(371,1362,o),
(413,1320,o),
(413,1268,cs),
(413,1216,o),
(371,1174,o),
(319,1174,cs)
);
},
{
closed = 1;
nodes = (
(454,1024,o),
(563,1133,o),
(563,1268,cs),
(563,1403,o),
(454,1512,o),
(319,1512,cs),
(184,1512,o),
(75,1403,o),
(75,1268,cs),
(75,1133,o),
(184,1024,o),
(319,1024,cs)
);
},
{
closed = 1;
nodes = (
(232,1651,ls),
(226,1640,o),
(222,1627,o),
(222,1614,cs),
(222,1573,o),
(256,1539,o),
(297,1539,cs),
(325,1539,o),
(349,1554,o),
(362,1577,cs),
(425,1687,ls),
(431,1698,o),
(435,1711,o),
(435,1725,cs),
(435,1767,o),
(401,1800,o),
(360,1800,cs),
(332,1800,o),
(308,1785,o),
(295,1763,cs)
);
}
);
width = 638;
}
);
unicode = 8310;
},
{
color = 2;
glyphname = sevensuperior;
lastChange = "2022-06-03 00:46:04 +0000";
layers = (
{
layerId = m01;
shapes = (
{
closed = 1;
nodes = (
(205,1025,o),
(215,1033,o),
(217,1043,cs),
(421,1769,ls),
(425,1785,o),
(413,1800,o),
(397,1800,cs),
(385,1800,o),
(375,1792,o),
(373,1782,cs),
(169,1056,ls),
(165,1040,o),
(177,1025,o),
(193,1025,cs)
);
},
{
closed = 1;
nodes = (
(89,1800,ls),
(75,1800,o),
(64,1789,o),
(64,1775,cs),
(64,1761,o),
(75,1750,o),
(89,1750,cs),
(234,1750,ls),
(247,1750,o),
(259,1761,o),
(259,1775,cs),
(259,1789,o),
(247,1800,o),
(234,1800,cs)
);
}
);
width = 468;
},
{
layerId = "19FA402B-9607-46D9-AAD6-815AECBA5B6B";
shapes = (
{
closed = 1;
nodes = (
(221,1022,o),
(240,1037,o),
(246,1057,cs),
(472,1734,ls),
(480,1762,o),
(461,1798,o),
(424,1798,cs),
(401,1798,o),
(382,1783,o),
(376,1763,cs),
(150,1086,ls),
(142,1058,o),
(161,1022,o),
(198,1022,cs)
);
},
{
closed = 1;
nodes = (
(128,1800,ls),
(100,1800,o),
(78,1778,o),
(78,1750,cs),
(78,1722,o),
(100,1700,o),
(128,1700,cs),
(238,1700,ls),
(266,1700,o),
(288,1722,o),
(288,1750,cs),
(288,1778,o),
(266,1800,o),
(238,1800,cs)
);
}
);
width = 540;
},
{
layerId = "FF87E3F2-B049-41CB-BF2F-09DB15105515";
shapes = (
{
closed = 1;
nodes = (
(275,1023,o),
(302,1043,o),
(313,1071,cs),
(541,1700,ls),
(558,1743,o),
(530,1803,o),
(471,1803,cs),
(439,1803,o),
(412,1783,o),
(401,1755,cs),
(173,1126,ls),
(156,1083,o),
(184,1023,o),
(243,1023,cs)
);
},
{
closed = 1;
nodes = (
(177,1800,ls),
(135,1800,o),
(102,1766,o),
(102,1725,cs),
(102,1684,o),
(135,1650,o),
(177,1650,cs),
(252,1650,ls),
(293,1650,o),
(327,1684,o),
(327,1725,cs),
(327,1766,o),
(293,1800,o),
(252,1800,cs)
);
}
);
width = 638;
}
);
unicode = 8311;
},
{
color = 2;
glyphname = eightsuperior;
lastChange = "2022-06-03 00:46:04 +0000";
layers = (
{
layerId = m01;
shapes = (
{
closed = 1;
nodes = (
(368,1134,o),
(308,1074,o),
(234,1074,cs),
(220,1074,o),
(209,1063,o),
(209,1049,cs),
(209,1035,o),
(220,1024,o),
(234,1024,cs),
(336,1024,o),
(418,1106,o),
(418,1208,cs),
(418,1222,o),
(407,1233,o),
(393,1233,cs),
(379,1233,o),
(368,1222,o),
(368,1208,cs)
);
},
{
closed = 1;
nodes = (
(368,1487,o),
(312,1431,o),
(234,1431,cs),
(132,1431,o),
(50,1349,o),
(50,1247,cs),
(50,1233,o),
(61,1222,o),
(75,1222,cs),
(89,1222,o),
(100,1233,o),
(100,1247,cs),
(100,1325,o),
(156,1381,o),
(234,1381,cs),
(336,1381,o),
(418,1463,o),
(418,1577,cs),
(418,1591,o),
(407,1602,o),
(393,1602,cs),
(379,1602,o),
(368,1591,o),
(368,1577,cs)
);
},
{
closed = 1;
nodes = (
(100,1690,o),
(160,1750,o),
(234,1750,cs),
(248,1750,o),
(259,1761,o),
(259,1775,cs),
(259,1789,o),
(248,1800,o),
(234,1800,cs),
(132,1800,o),
(50,1718,o),
(50,1616,cs),
(50,1602,o),
(61,1591,o),
(75,1591,cs),
(89,1591,o),
(100,1602,o),
(100,1616,cs)
);
}
);
width = 468;
},
{
layerId = "19FA402B-9607-46D9-AAD6-815AECBA5B6B";
shapes = (
{
closed = 1;
nodes = (
(375,1176,o),
(324,1124,o),
(260,1124,cs),
(232,1124,o),
(210,1102,o),
(210,1074,cs),
(210,1046,o),
(232,1024,o),
(260,1024,cs),
(379,1024,o),
(475,1121,o),
(475,1239,cs),
(475,1267,o),
(453,1289,o),
(425,1289,cs),
(397,1289,o),
(375,1267,o),
(375,1239,cs)
);
},
{
closed = 1;
nodes = (
(376,1505,o),
(335,1464,o),
(270,1464,cs),
(156,1464,o),
(64,1372,o),
(64,1258,cs),
(64,1230,o),
(86,1208,o),
(114,1208,cs),
(142,1208,o),
(164,1230,o),
(164,1258,cs),
(164,1323,o),
(205,1364,o),
(270,1364,cs),
(384,1364,o),
(476,1456,o),
(476,1570,cs),
(476,1598,o),
(454,1620,o),
(426,1620,cs),
(398,1620,o),
(376,1598,o),
(376,1570,cs)
);
},
{
closed = 1;
nodes = (
(165,1652,o),
(216,1704,o),
(280,1704,cs),
(308,1704,o),
(330,1726,o),
(330,1754,cs),
(330,1782,o),
(308,1804,o),
(280,1804,cs),
(161,1804,o),
(65,1707,o),
(65,1589,cs),
(65,1561,o),
(87,1539,o),
(115,1539,cs),
(143,1539,o),
(165,1561,o),
(165,1589,cs)
);
}
);
width = 540;
},
{
layerId = "FF87E3F2-B049-41CB-BF2F-09DB15105515";
shapes = (
{
closed = 1;
nodes = (
(392,1205,o),
(359,1173,o),
(318,1173,cs),
(277,1173,o),
(243,1139,o),
(243,1098,cs),
(243,1057,o),
(277,1023,o),
(318,1023,cs),
(442,1023,o),
(542,1122,o),
(542,1245,cs),
(542,1286,o),
(508,1320,o),
(467,1320,cs),
(426,1320,o),
(392,1286,o),
(392,1245,cs)
);
},
{
closed = 1;
nodes = (
(392,1508,o),
(371,1488,o),
(320,1488,cs),
(198,1488,o),
(98,1391,o),
(98,1268,cs),
(98,1227,o),
(132,1193,o),
(173,1193,cs),
(214,1193,o),
(248,1227,o),
(248,1268,cs),
(248,1317,o),
(269,1338,o),
(320,1338,cs),
(441,1338,o),
(542,1434,o),
(542,1555,cs),
(542,1596,o),
(508,1630,o),
(467,1630,cs),
(426,1630,o),
(392,1596,o),
(392,1555,cs)
);
},
{
closed = 1;
nodes = (
(246,1618,o),
(279,1650,o),
(320,1650,cs),
(361,1650,o),
(395,1684,o),
(395,1725,cs),
(395,1766,o),
(361,1800,o),
(320,1800,cs),
(196,1800,o),
(96,1701,o),
(96,1577,cs),
(96,1536,o),
(130,1502,o),
(171,1502,cs),
(212,1502,o),
(246,1536,o),
(246,1577,cs)
);
}
);
width = 638;
}
);
unicode = 8312;
},
{
color = 2;
glyphname = ninesuperior;
lastChange = "2022-06-03 00:46:04 +0000";
layers = (
{
layerId = m01;
shapes = (
{
closed = 1;
nodes = (
(160,1482,o),
(100,1542,o),
(100,1616,cs),
(100,1690,o),
(160,1750,o),
(234,1750,cs),
(308,1750,o),
(368,1690,o),
(368,1616,cs),
(368,1542,o),
(308,1482,o),
(234,1482,cs)
);
},
{
closed = 1;
nodes = (
(336,1432,o),
(418,1514,o),
(418,1616,cs),
(418,1718,o),
(336,1800,o),
(234,1800,cs),
(132,1800,o),
(50,1718,o),
(50,1616,cs),
(50,1514,o),
(132,1432,o),
(234,1432,cs)
);
},
{
closed = 1;
nodes = (
(313,1311,ls),
(314,1314,o),
(315,1317,o),
(315,1321,cs),
(315,1335,o),
(304,1346,o),
(290,1346,cs),
(280,1346,o),
(271,1340,o),
(267,1331,cs),
(143,1060,l),
(141,1057,o),
(140,1053,o),
(140,1049,cs),
(140,1036,o),
(152,1024,o),
(165,1024,cs),
(175,1024,o),
(184,1030,o),
(188,1039,cs)
);
}
);
width = 468;
},
{
layerId = "19FA402B-9607-46D9-AAD6-815AECBA5B6B";
shapes = (
{
closed = 1;
nodes = (
(209,1470,o),
(158,1521,o),
(158,1585,cs),
(158,1648,o),
(209,1700,o),
(273,1700,cs),
(336,1700,o),
(388,1648,o),
(388,1585,cs),
(388,1521,o),
(336,1470,o),
(273,1470,cs)
);
},
{
closed = 1;
nodes = (
(391,1370,o),
(488,1466,o),
(488,1585,cs),
(488,1703,o),
(391,1800,o),
(273,1800,cs),
(154,1800,o),
(58,1703,o),
(58,1585,cs),
(58,1466,o),
(154,1370,o),
(273,1370,cs)
);
},
{
closed = 1;
nodes = (
(362,1248,ls),
(366,1255,o),
(368,1263,o),
(368,1271,cs),
(368,1299,o),
(346,1321,o),
(318,1321,cs),
(299,1321,o),
(282,1310,o),
(274,1294,cs),
(170,1097,ls),
(166,1090,o),
(164,1082,o),
(164,1073,cs),
(164,1045,o),
(186,1023,o),
(214,1023,cs),
(233,1023,o),
(249,1033,o),
(258,1049,cs)
);
}
);
width = 540;
},
{
layerId = "FF87E3F2-B049-41CB-BF2F-09DB15105515";
shapes = (
{
closed = 1;
nodes = (
(267,1462,o),
(225,1504,o),
(225,1556,cs),
(225,1608,o),
(267,1650,o),
(319,1650,cs),
(371,1650,o),
(413,1608,o),
(413,1556,cs),
(413,1504,o),
(371,1462,o),
(319,1462,cs)
);
},
{
closed = 1;
nodes = (
(454,1312,o),
(563,1421,o),
(563,1556,cs),
(563,1691,o),
(454,1800,o),
(319,1800,cs),
(184,1800,o),
(75,1691,o),
(75,1556,cs),
(75,1421,o),
(184,1312,o),
(319,1312,cs)
);
},
{
closed = 1;
nodes = (
(406,1173,ls),
(412,1184,o),
(416,1197,o),
(416,1210,cs),
(416,1251,o),
(382,1285,o),
(341,1285,cs),
(313,1285,o),
(289,1270,o),
(276,1247,cs),
(213,1137,ls),
(207,1126,o),
(203,1113,o),
(203,1099,cs),
(203,1057,o),
(237,1024,o),
(278,1024,cs),
(306,1024,o),
(330,1039,o),
(343,1061,cs)
);
}
);
width = 638;
}
);
unicode = 8313;
},
{
color = 11;
glyphname = .notdef;
lastChange = "2022-06-03 00:46:04 +0000";
layers = (
{
layerId = m01;
shapes = (
{
closed = 1;
nodes = (
(596,496,l),
(600,501,o),
(603,507,o),
(603,514,cs),
(603,528,o),
(592,539,o),
(578,539,cs),
(571,539,o),
(565,536,o),
(560,532,c),
(71,43,l),
(67,38,o),
(64,32,o),
(64,25,cs),
(64,11,o),
(75,0,o),
(89,0,cs),
(96,0,o),
(102,3,o),
(107,7,c)
);
},
{
closed = 1;
nodes = (
(417,99,ls),
(403,99,o),
(392,88,o),
(392,74,cs),
(392,60,o),
(403,49,o),
(417,49,cs),
(1112,50,ls),
(1126,50,o),
(1137,61,o),
(1137,75,cs),
(1137,89,o),
(1126,100,o),
(1112,100,cs)
);
},
{
closed = 1;
nodes = (
(164,1048,ls),
(164,1062,o),
(153,1073,o),
(139,1073,cs),
(125,1073,o),
(114,1062,o),
(114,1048,cs),
(115,353,ls),
(115,339,o),
(126,328,o),
(140,328,cs),
(154,328,o),
(165,339,o),
(165,353,cs)
);
},
{
closed = 1;
nodes = (
(107,1393,l),
(102,1397,o),
(96,1400,o),
(89,1400,cs),
(75,1400,o),
(64,1389,o),
(64,1375,cs),
(64,1368,o),
(67,1362,o),
(71,1357,c),
(1421,7,l),
(1426,3,o),
(1432,0,o),
(1439,0,cs),
(1453,0,o),
(1464,11,o),
(1464,25,cs),
(1464,32,o),
(1461,38,o),
(1457,43,c)
);
},
{
closed = 1;
nodes = (
(1112,1300,ls),
(1126,1300,o),
(1137,1311,o),
(1137,1325,cs),
(1137,1339,o),
(1126,1350,o),
(1112,1350,cs),
(417,1351,ls),
(403,1351,o),
(392,1340,o),
(392,1326,cs),
(392,1312,o),
(403,1301,o),
(417,1301,cs)
);
},
{
closed = 1;
nodes = (
(1415,1048,ls),
(1415,1062,o),
(1404,1073,o),
(1390,1073,cs),
(1376,1073,o),
(1365,1062,o),
(1365,1048,cs),
(1364,353,ls),
(1364,339,o),
(1375,328,o),
(1389,328,cs),
(1403,328,o),
(1414,339,o),
(1414,353,cs)
);
},
{
closed = 1;
nodes = (
(1458,1357,l),
(1462,1362,o),
(1465,1368,o),
(1465,1375,cs),
(1465,1389,o),
(1454,1400,o),
(1440,1400,cs),
(1433,1400,o),
(1427,1397,o),
(1422,1393,c),
(917,888,l),
(913,883,o),
(910,877,o),
(910,870,cs),
(910,856,o),
(921,845,o),
(935,845,cs),
(942,845,o),
(948,848,o),
(953,852,c)
);
}
);
width = 1529;
},
{
layerId = "19FA402B-9607-46D9-AAD6-815AECBA5B6B";
shapes = (
{
closed = 1;
nodes = (
(614,449,ls),
(625,460,o),
(632,475,o),
(632,492,cs),
(632,525,o),
(605,552,o),
(572,552,cs),
(555,552,o),
(540,545,o),
(529,534,cs),
(98,103,ls),
(87,92,o),
(80,77,o),
(80,60,cs),
(80,27,o),
(107,0,o),
(140,0,cs),
(157,0,o),
(172,7,o),
(183,18,cs)
);
},
{
closed = 1;
nodes = (
(559,163,ls),
(525.998,163,o),
(499,136,o),
(499,103,cs),
(499,70,o),
(525.998,43,o),
(559,43,cs),
(1002,44,ls),
(1035,44,o),
(1062,71,o),
(1062,104,cs),
(1062,137,o),
(1035,164,o),
(1002,164,cs)
);
},
{
closed = 1;
nodes = (
(244,922,ls),
(244,955.002,o),
(217,982,o),
(184,982,cs),
(151,982,o),
(124,955.002,o),
(124,922,cs),
(125,479,ls),
(125,446,o),
(152,419,o),
(185,419,cs),
(218,419,o),
(245,446,o),
(245,479,cs)
);
},
{
closed = 1;
nodes = (
(183,1382,ls),
(172,1393,o),
(157,1400,o),
(140,1400,cs),
(107,1400,o),
(80,1373,o),
(80,1340,cs),
(80,1323,o),
(87,1308,o),
(98,1297,cs),
(1378,18,ls),
(1388,7,o),
(1403,0,o),
(1420,0,cs),
(1453,0,o),
(1480,27,o),
(1480,60,cs),
(1480,77,o),
(1473,92,o),
(1462,102,cs)
);
},
{
closed = 1;
nodes = (
(1002,1236,ls),
(1035,1236,o),
(1062,1263,o),
(1062,1296,cs),
(1062,1329,o),
(1035,1356,o),
(1002,1356,cs),
(559,1357,ls),
(525.998,1357,o),
(499,1330,o),
(499,1297,cs),
(499,1264,o),
(525.998,1237,o),
(559,1237,cs)
);
},
{
closed = 1;
nodes = (
(1437,922,ls),
(1437,955.002,o),
(1410,982,o),
(1377,982,cs),
(1344,982,o),
(1317,955.002,o),
(1317,922,cs),
(1316,479,ls),
(1316,446,o),
(1343,419,o),
(1376,419,cs),
(1409,419,o),
(1436,446,o),
(1436,479,cs)
);
},
{
closed = 1;
nodes = (
(1463,1297,ls),
(1474,1308,o),
(1481,1323,o),
(1481,1340,cs),
(1481,1373,o),
(1454,1400,o),
(1421,1400,cs),
(1404,1400,o),
(1389,1393,o),
(1378,1382,cs),
(909,912,ls),
(898,902,o),
(891,887,o),
(891,870,cs),
(891,837,o),
(918,810,o),
(951,810,cs),
(968,810,o),
(983,817,o),
(993,828,cs)
);
}
);
width = 1561;
},
{
layerId = "FF87E3F2-B049-41CB-BF2F-09DB15105515";
shapes = (
{
closed = 1;
nodes = (
(630,298,ls),
(658,325,o),
(675,363,o),
(675,405,cs),
(675,487,o),
(607,555,o),
(525,555,cs),
(483,555,o),
(445,538,o),
(418,510,cs),
(166,258,ls),
(139,231,o),
(122,194,o),
(122,152,cs),
(122,70,o),
(190,2,o),
(272,2,cs),
(314,2,o),
(351,19,o),
(378,46,cs)
);
},
{
closed = 1;
nodes = (
(424,747,ls),
(424,830,o),
(357,897,o),
(274,897,cs),
(191,897,o),
(124,830,o),
(124,747,cs),
(124,653,ls),
(124,570,o),
(191,503,o),
(274,503,cs),
(357,503,o),
(424,570,o),
(424,653,cs)
);
},
{
closed = 1;
nodes = (
(774,304,ls),
(691,304,o),
(624,237,o),
(624,154,cs),
(624,71,o),
(691,4,o),
(774,4,cs),
(868,4,ls),
(951,4,o),
(1018,71,o),
(1018,154,cs),
(1018,237,o),
(951,304,o),
(868,304,cs)
);
},
{
closed = 1;
nodes = (
(377,1356,ls),
(349,1383,o),
(312,1400,o),
(270,1400,cs),
(188,1400,o),
(120,1332,o),
(120,1250,cs),
(120,1208,o),
(137,1171,o),
(164,1143,cs),
(1264,44,ls),
(1291,17,o),
(1329,0,o),
(1370,0,cs),
(1453,0,o),
(1520,67,o),
(1520,150,cs),
(1520,191,o),
(1503,229,o),
(1476,256,cs)
);
},
{
closed = 1;
nodes = (
(868,1096,ls),
(951,1096,o),
(1018,1163,o),
(1018,1246,cs),
(1018,1329,o),
(951,1396,o),
(868,1396,cs),
(774,1396,ls),
(691,1396,o),
(624,1329,o),
(624,1246,cs),
(624,1163,o),
(691,1096,o),
(774,1096,cs)
);
},
{
closed = 1;
nodes = (
(1517,747,ls),
(1517,830,o),
(1450,897,o),
(1367,897,cs),
(1284,897,o),
(1217,830,o),
(1217,747,cs),
(1217,653,ls),
(1217,570,o),
(1284,503,o),
(1367,503,cs),
(1450,503,o),
(1517,570,o),
(1517,653,cs)
);
},
{
closed = 1;
nodes = (
(1474,1141,ls),
(1502,1168,o),
(1519,1206,o),
(1519,1248,cs),
(1519,1330,o),
(1451,1398,o),
(1369,1398,cs),
(1327,1398,o),
(1289,1381,o),
(1262,1353,cs),
(1010,1101,ls),
(983,1074,o),
(966,1037,o),
(966,995,cs),
(966,913,o),
(1034,845,o),
(1116,845,cs),
(1158,845,o),
(1195,862,o),
(1222,889,cs)
);
}
);
width = 1640;
}
);
metricLeft = O;
metricRight = O;
},
{
color = 9;
glyphname = period;
kernLeft = PERIOD;
kernRight = PERIOD;
lastChange = "2022-05-31 21:46:56 +0000";
layers = (
{
layerId = m01;
shapes = (
{
closed = 1;
nodes = (
(138,0,o),
(155,17,o),
(155,38,cs),
(155,58,o),
(138,75,o),
(118,75,cs),
(97,75,o),
(80,58,o),
(80,38,cs),
(80,17,o),
(97,0,o),
(118,0,cs)
);
}
);
width = 235;
},
{
layerId = "19FA402B-9607-46D9-AAD6-815AECBA5B6B";
shapes = (
{
closed = 1;
nodes = (
(216,0,o),
(250,34,o),
(250,75,cs),
(250,116,o),
(216,150,o),
(175,150,cs),
(134,150,o),
(100,116,o),
(100,75,cs),
(100,34,o),
(134,0,o),
(175,0,cs)
);
}
);
width = 350;
},
{
layerId = "FF87E3F2-B049-41CB-BF2F-09DB15105515";
shapes = (
{
closed = 1;
nodes = (
(402,0,o),
(476,73,o),
(476,162,cs),
(476,251,o),
(402,325,o),
(313,325,cs),
(224,325,o),
(150,251,o),
(150,162,cs),
(150,73,o),
(224,0,o),
(313,0,cs)
);
}
);
width = 626;
}
);
unicode = 46;
},
{
color = 9;
glyphname = comma;
kernLeft = COMMA;
kernRight = COMMA;
lastChange = "2022-06-01 01:28:06 +0000";
layers = (
{
layerId = m01;
shapes = (
{
closed = 1;
nodes = (
(121,-187,o),
(131,-178,o),
(134,-166,cs),
(228,186,ls),
(232,203,o),
(220,220,o),
(201,220,cs),
(188,220,o),
(178,211,o),
(175,199,cs),
(81,-153,ls),
(77,-170,o),
(89,-187,o),
(108,-187,cs)
);
}
);
width = 309;
},
{
layerId = "19FA402B-9607-46D9-AAD6-815AECBA5B6B";
shapes = (
{
closed = 1;
nodes = (
(188,-193,o),
(212,-173,o),
(218,-147,cs),
(297,152,ls),
(306,187,o),
(280,226,o),
(239,226,cs),
(211,226,o),
(187,206,o),
(181,180,cs),
(102,-119,ls),
(93,-154,o),
(119,-193,o),
(160,-193,cs)
);
}
);
width = 399;
},
{
layerId = "FF87E3F2-B049-41CB-BF2F-09DB15105515";
shapes = (
{
closed = 1;
nodes = (
(372,-279,o),
(432,-228,o),
(447,-160,cs),
(514,122,ls),
(533,215,o),
(464,304,o),
(367,304,cs),
(295,304,o),
(235,253,o),
(220,185,cs),
(153,-97,ls),
(134,-190,o),
(203,-279,o),
(300,-279,cs)
);
}
);
width = 667;
}
);
metricLeft = period;
metricRight = period;
unicode = 44;
},
{
color = 9;
glyphname = colon;
kernLeft = COLON;
kernRight = COLON;
lastChange = "2022-05-31 21:43:17 +0000";
layers = (
{
layerId = m01;
shapes = (
{
closed = 1;
nodes = (
(138,983,o),
(155,1000,o),
(155,1020,cs),
(155,1041,o),
(138,1058,o),
(117,1058,cs),
(97,1058,o),
(80,1041,o),
(80,1020,cs),
(80,1000,o),
(97,983,o),
(117,983,cs)
);
},
{
closed = 1;
nodes = (
(138,343,o),
(155,360,o),
(155,380,cs),
(155,401,o),
(138,418,o),
(117,418,cs),
(97,418,o),
(80,401,o),
(80,380,cs),
(80,360,o),
(97,343,o),
(117,343,cs)
);
}
);
width = 235;
},
{
layerId = "19FA402B-9607-46D9-AAD6-815AECBA5B6B";
shapes = (
{
closed = 1;
nodes = (
(216,945,o),
(250,979,o),
(250,1020,cs),
(250,1061,o),
(216,1095,o),
(175,1095,cs),
(134,1095,o),
(100,1061,o),
(100,1020,cs),
(100,979,o),
(134,945,o),
(175,945,cs)
);
},
{
closed = 1;
nodes = (
(216,305,o),
(250,339,o),
(250,380,cs),
(250,421,o),
(216,455,o),
(175,455,cs),
(134,455,o),
(100,421,o),
(100,380,cs),
(100,339,o),
(134,305,o),
(175,305,cs)
);
}
);
width = 350;
},
{
layerId = "FF87E3F2-B049-41CB-BF2F-09DB15105515";
shapes = (
{
closed = 1;
nodes = (
(401,857,o),
(475,931,o),
(475,1020,cs),
(475,1109,o),
(401,1183,o),
(312,1183,cs),
(223,1183,o),
(150,1109,o),
(150,1020,cs),
(150,931,o),
(223,857,o),
(312,857,cs)
);
},
{
closed = 1;
nodes = (
(401,218,o),
(475,291,o),
(475,380,cs),
(475,469,o),
(401,543,o),
(312,543,cs),
(223,543,o),
(150,469,o),
(150,380,cs),
(150,291,o),
(223,218,o),
(312,218,cs)
);
}
);
width = 625;
}
);
metricLeft = period;
metricRight = period;
unicode = 58;
},
{
color = 9;
glyphname = semicolon;
kernLeft = SEMICOLON;
kernRight = SEMICOLON;
lastChange = "2022-06-01 01:27:02 +0000";
layers = (
{
layerId = m01;
shapes = (
{
closed = 1;
nodes = (
(222,785,o),
(239,802,o),
(239,822,cs),
(239,843,o),
(222,860,o),
(201,860,cs),
(181,860,o),
(164,843,o),
(164,822,cs),
(164,802,o),
(181,785,o),
(201,785,cs)
);
},
{
ref = comma;
}
);
width = 319;
},
{
layerId = "19FA402B-9607-46D9-AAD6-815AECBA5B6B";
shapes = (
{
closed = 1;
nodes = (
(280,731,o),
(314,765,o),
(314,806,cs),
(314,847,o),
(280,881,o),
(239,881,cs),
(198,881,o),
(164,847,o),
(164,806,cs),
(164,765,o),
(198,731,o),
(239,731,cs)
);
},
{
ref = comma;
}
);
width = 414;
},
{
layerId = "FF87E3F2-B049-41CB-BF2F-09DB15105515";
shapes = (
{
closed = 1;
nodes = (
(458,618,o),
(532,692,o),
(532,781,cs),
(532,870,o),
(458,944,o),
(369,944,cs),
(280,944,o),
(207,870,o),
(207,781,cs),
(207,692,o),
(280,618,o),
(369,618,cs)
);
},
{
ref = comma;
}
);
width = 682;
}
);
metricLeft = period;
metricRight = period;
unicode = 59;
},
{
color = 9;
glyphname = exclam;
lastChange = "2022-06-03 00:46:04 +0000";
layers = (
{
layerId = m01;
shapes = (
{
closed = 1;
nodes = (
(143,0,o),
(160,17,o),
(160,38,cs),
(160,58,o),
(143,75,o),
(122,75,cs),
(102,75,o),
(85,58,o),
(85,38,cs),
(85,17,o),
(102,0,o),
(122,0,cs)
);
},
{
closed = 1;
nodes = (
(97,382,ls),
(97,368,o),
(108,357,o),
(122,357,cs),
(136,357,o),
(147,368,o),
(147,382,cs),
(147,1375,ls),
(147,1388,o),
(136,1400,o),
(122,1400,cs),
(108,1400,o),
(97,1388,o),
(97,1375,cs)
);
}
);
width = 245;
},
{
layerId = "19FA402B-9607-46D9-AAD6-815AECBA5B6B";
shapes = (
{
closed = 1;
nodes = (
(216,0,o),
(250,34,o),
(250,75,cs),
(250,116,o),
(216,150,o),
(175,150,cs),
(134,150,o),
(100,116,o),
(100,75,cs),
(100,34,o),
(134,0,o),
(175,0,cs)
);
},
{
closed = 1;
nodes = (
(115,413,ls),
(115,380,o),
(142,353,o),
(175,353,cs),
(208,353,o),
(235,380,o),
(235,413,cs),
(235,1340,ls),
(235,1373,o),
(208,1400,o),
(175,1400,cs),
(142,1400,o),
(115,1373,o),
(115,1340,cs)
);
}
);
width = 350;
},
{
layerId = "FF87E3F2-B049-41CB-BF2F-09DB15105515";
shapes = (
{
closed = 1;
nodes = (
(401,0,o),
(474,74,o),
(474,163,cs),
(474,251,o),
(401,325,o),
(312,325,cs),
(223,325,o),
(150,251,o),
(150,163,cs),
(150,74,o),
(223,0,o),
(312,0,cs)
);
},
{
closed = 1;
nodes = (
(162,614,ls),
(162,531,o),
(229,464,o),
(312,464,cs),
(395,464,o),
(462,531,o),
(462,614,cs),
(462,1250,ls),
(462,1333,o),
(395,1400,o),
(312,1400,cs),
(229,1400,o),
(162,1333,o),
(162,1250,cs)
);
}
);
width = 624;
}
);
metricLeft = I;
metricRight = I;
unicode = 33;
},
{
color = 9;
glyphname = exclamdown;
lastChange = "2022-06-03 00:46:04 +0000";
layers = (
{
layerId = m01;
shapes = (
{
closed = 1;
nodes = (
(102,1400,o),
(85,1383,o),
(85,1362,cs),
(85,1342,o),
(102,1325,o),
(122,1325,cs),
(143,1325,o),
(160,1342,o),
(160,1362,cs),
(160,1383,o),
(143,1400,o),
(122,1400,cs)
);
},
{
closed = 1;
nodes = (
(97,26,ls),
(97,12,o),
(108,1,o),
(122,1,cs),
(136,1,o),
(147,12,o),
(147,26,cs),
(147,1019,ls),
(147,1032,o),
(136,1044,o),
(122,1044,cs),
(108,1044,o),
(97,1032,o),
(97,1019,cs)
);
}
);
width = 245;
},
{
layerId = "19FA402B-9607-46D9-AAD6-815AECBA5B6B";
shapes = (
{
closed = 1;
nodes = (
(134,1400,o),
(100,1366,o),
(100,1325,cs),
(100,1284,o),
(134,1250,o),
(175,1250,cs),
(216,1250,o),
(250,1284,o),
(250,1325,cs),
(250,1366,o),
(216,1400,o),
(175,1400,cs)
);
},
{
closed = 1;
nodes = (
(115,60,ls),
(115,27,o),
(142,0,o),
(175,0,cs),
(208,0,o),
(235,27,o),
(235,60,cs),
(235,987,ls),
(235,1020,o),
(208,1047,o),
(175,1047,cs),
(142,1047,o),
(115,1020,o),
(115,987,cs)
);
}
);
width = 350;
},
{
layerId = "FF87E3F2-B049-41CB-BF2F-09DB15105515";
shapes = (
{
closed = 1;
nodes = (
(223,1400,o),
(150,1326,o),
(150,1237,cs),
(150,1149,o),
(223,1075,o),
(312,1075,cs),
(401,1075,o),
(474,1149,o),
(474,1237,cs),
(474,1326,o),
(401,1400,o),
(312,1400,cs)
);
},
{
closed = 1;
nodes = (
(162,150,ls),
(162,67,o),
(229,0,o),
(312,0,cs),
(395,0,o),
(462,67,o),
(462,150,cs),
(462,786,ls),
(462,869,o),
(395,936,o),
(312,936,cs),
(229,936,o),
(162,869,o),
(162,786,cs)
);
}
);
width = 624;
}
);
metricLeft = "=|exclam";
metricRight = "=|exclam";
unicode = 161;
},
{
color = 9;
glyphname = question;
lastChange = "2022-06-03 00:46:04 +0000";
layers = (
{
layerId = m01;
shapes = (
{
closed = 1;
nodes = (
(426,0,o),
(443,17,o),
(443,38,cs),
(443,58,o),
(426,75,o),
(405,75,cs),
(385,75,o),
(368,58,o),
(368,38,cs),
(368,17,o),
(385,0,o),
(405,0,cs)
);
},
{
closed = 1;
nodes = (
(380,322,ls),
(380,308,o),
(391,297,o),
(405,297,cs),
(419,297,o),
(430,308,o),
(430,322,cs),
(430,516,ls),
(430,529,o),
(419,541,o),
(405,541,cs),
(391,541,o),
(380,529,o),
(380,516,cs)
);
},
{
closed = 1;
nodes = (
(272,1386,o),
(504,1386,o),
(648,1242,cs),
(793,1097,o),
(793,865,o),
(648,721,cs),
(643,716,o),
(641,710,o),
(641,703,cs),
(641,689,o),
(652,678,o),
(666,678,cs),
(672,678,o),
(679,681,o),
(683,686,c),
(848,849,o),
(848,1113,o),
(683,1277,cs),
(520,1441,o),
(256,1441,o),
(93,1277,c),
(88,1273,o),
(85,1267,o),
(85,1260,cs),
(85,1246,o),
(97,1235,o),
(110,1235,cs),
(117,1235,o),
(123,1237,o),
(128,1242,cs)
);
}
);
width = 892;
},
{
layerId = "19FA402B-9607-46D9-AAD6-815AECBA5B6B";
shapes = (
{
closed = 1;
nodes = (
(442,0,o),
(476,34,o),
(476,75,cs),
(476,116,o),
(442,150,o),
(401,150,cs),
(360,150,o),
(326,116,o),
(326,75,cs),
(326,34,o),
(360,0,o),
(401,0,cs)
);
},
{
closed = 1;
nodes = (
(341,353,ls),
(341,320,o),
(368,293,o),
(401,293,cs),
(434,293,o),
(461,320,o),
(461,353,cs),
(461,584,ls),
(461,617,o),
(434,644,o),
(401,644,cs),
(368,644,o),
(341,617,o),
(341,584,cs)
);
},
{
closed = 1;
nodes = (
(312,1308,o),
(490,1308,o),
(600,1198,cs),
(711,1087,o),
(711,909,o),
(600,799,cs),
(589,788,o),
(582,773,o),
(582,756,cs),
(582,723,o),
(609,696,o),
(642,696,cs),
(659,696,o),
(674,703,o),
(684,714,cs),
(843,871,o),
(843,1125,o),
(685,1283,cs),
(528,1440,o),
(274,1440,o),
(117,1283,cs),
(106,1272,o),
(100,1257,o),
(100,1240,cs),
(100,1207,o),
(126,1180,o),
(160,1180,cs),
(176,1180,o),
(191,1187,o),
(202,1198,cs)
);
}
);
width = 903;
},
{
layerId = "FF87E3F2-B049-41CB-BF2F-09DB15105515";
shapes = (
{
closed = 1;
nodes = (
(570,0,o),
(643,74,o),
(643,163,cs),
(643,251,o),
(570,325,o),
(481,325,cs),
(392,325,o),
(319,251,o),
(319,163,cs),
(319,74,o),
(392,0,o),
(481,0,cs)
);
},
{
closed = 1;
nodes = (
(331,497,ls),
(331,414,o),
(398,347,o),
(481,347,cs),
(564,347,o),
(631,414,o),
(631,497,cs),
(631,504,ls),
(631,587,o),
(564,654,o),
(481,654,cs),
(398,654,o),
(331,587,o),
(331,504,cs)
);
},
{
closed = 1;
nodes = (
(463,1106,o),
(553,1106,o),
(610,1049,cs),
(667,991,o),
(667,901,o),
(610,844,cs),
(583,817,o),
(566,779,o),
(566,738,cs),
(566,655,o),
(633,588,o),
(716,588,cs),
(757,588,o),
(795,605,o),
(822,632,cs),
(996,805,o),
(996,1085,o),
(823,1260,cs),
(649,1435,o),
(368,1436,o),
(194,1261,cs),
(167,1234,o),
(150,1196,o),
(150,1155,cs),
(150,1072,o),
(217,1005,o),
(300,1005,cs),
(341,1005,o),
(379,1022,o),
(406,1049,cs)
);
}
);
width = 1103;
}
);
metricLeft = asterisk;
metricRight = asterisk;
unicode = 63;
},
{
color = 9;
glyphname = asterisk;
lastChange = "2022-06-03 00:46:04 +0000";
layers = (
{
layerId = m01;
shapes = (
{
closed = 1;
nodes = (
(589,1196,o),
(606,1212,o),
(606,1233,cs),
(606,1254,o),
(589,1271,o),
(568,1271,cs),
(547,1271,o),
(531,1254,o),
(531,1233,cs),
(531,1212,o),
(547,1196,o),
(568,1196,cs)
);
},
{
closed = 1;
nodes = (
(143,938,o),
(160,954,o),
(160,975,cs),
(160,996,o),
(143,1013,o),
(122,1013,cs),
(101,1013,o),
(85,996,o),
(85,975,cs),
(85,954,o),
(101,938,o),
(122,938,cs)
);
},
{
closed = 1;
nodes = (
(365,810,o),
(382,826,o),
(382,847,cs),
(382,868,o),
(365,885,o),
(344,885,cs),
(323,885,o),
(307,868,o),
(307,847,cs),
(307,826,o),
(323,810,o),
(344,810,cs)
);
},
{
closed = 1;
nodes = (
(567,947,ls),
(570,945,o),
(575,943,o),
(580,943,cs),
(593,943,o),
(605,954,o),
(605,968,cs),
(605,977,o),
(600,985,o),
(592,990,cs),
(123,1261,ls),
(120,1263,o),
(115,1265,o),
(110,1265,cs),
(97,1265,o),
(85,1254,o),
(85,1240,cs),
(85,1231,o),
(90,1223,o),
(98,1218,cs)
);
},
{
closed = 1;
nodes = (
(366,1325,o),
(383,1341,o),
(383,1362,cs),
(383,1383,o),
(366,1400,o),
(345,1400,cs),
(324,1400,o),
(308,1383,o),
(308,1362,cs),
(308,1341,o),
(324,1325,o),
(345,1325,cs)
);
}
);
width = 691;
},
{
layerId = "19FA402B-9607-46D9-AAD6-815AECBA5B6B";
shapes = (
{
closed = 1;
nodes = (
(639,1151,o),
(666,1178,o),
(666,1211,cs),
(666,1244,o),
(639,1271,o),
(606,1271,cs),
(573,1271,o),
(546,1244,o),
(546,1211,cs),
(546,1178,o),
(573,1151,o),
(606,1151,cs)
);
},
{
closed = 1;
nodes = (
(193,893,o),
(220,920,o),
(220,953,cs),
(220,986,o),
(193,1013,o),
(160,1013,cs),
(127,1013,o),
(100,986,o),
(100,953,cs),
(100,920,o),
(127,893,o),
(160,893,cs)
);
},
{
closed = 1;
nodes = (
(415,765,o),
(442,792,o),
(442,825,cs),
(442,858,o),
(415,885,o),
(382,885,cs),
(349,885,o),
(322,858,o),
(322,825,cs),
(322,792,o),
(349,765,o),
(382,765,cs)
);
},
{
closed = 1;
nodes = (
(575,902,ls),
(584,896,o),
(595,893,o),
(606,893,cs),
(639,893,o),
(666,920,o),
(666,953,cs),
(666,975,o),
(655,994,o),
(637,1004,cs),
(191,1262,ls),
(182,1268,o),
(171,1271,o),
(160,1271,cs),
(127,1271,o),
(100,1244,o),
(100,1211,cs),
(100,1189,o),
(111,1170,o),
(129,1160,cs)
);
},
{
closed = 1;
nodes = (
(416,1280,o),
(443,1307,o),
(443,1340,cs),
(443,1373,o),
(416,1400,o),
(383,1400,cs),
(350,1400,o),
(323,1373,o),
(323,1340,cs),
(323,1307,o),
(350,1280,o),
(383,1280,cs)
);
}
);
width = 766;
},
{
layerId = "FF87E3F2-B049-41CB-BF2F-09DB15105515";
shapes = (
{
closed = 1;
nodes = (
(751,1071,o),
(796,1116,o),
(796,1171,cs),
(796,1226,o),
(751,1271,o),
(696,1271,cs),
(641,1271,o),
(596,1226,o),
(596,1171,cs),
(596,1116,o),
(641,1071,o),
(696,1071,cs)
);
},
{
closed = 1;
nodes = (
(305,813,o),
(350,858,o),
(350,913,cs),
(350,968,o),
(305,1013,o),
(250,1013,cs),
(195,1013,o),
(150,968,o),
(150,913,cs),
(150,858,o),
(195,813,o),
(250,813,cs)
);
},
{
closed = 1;
nodes = (
(527,685,o),
(572,730,o),
(572,785,cs),
(572,840,o),
(527,885,o),
(472,885,cs),
(417,885,o),
(372,840,o),
(372,785,cs),
(372,730,o),
(417,685,o),
(472,685,cs)
);
},
{
closed = 1;
nodes = (
(670,833,ls),
(682,825,o),
(697,821,o),
(712,821,cs),
(758,821,o),
(795,858,o),
(795,903,cs),
(795,933,o),
(779,960,o),
(755,974,cs),
(276,1251,ls),
(264,1259,o),
(249,1263,o),
(234,1263,cs),
(188,1263,o),
(151,1226,o),
(151,1181,cs),
(151,1151,o),
(167,1124,o),
(191,1110,cs)
);
},
{
closed = 1;
nodes = (
(528,1200,o),
(573,1245,o),
(573,1300,cs),
(573,1355,o),
(528,1400,o),
(473,1400,cs),
(418,1400,o),
(373,1355,o),
(373,1300,cs),
(373,1245,o),
(418,1200,o),
(473,1200,cs)
);
}
);
width = 946;
}
);
metricLeft = I;
metricRight = I;
unicode = 42;
},
